<?xml version="1.0" encoding="UTF-8"?>
<svg version="1.1" xmlns="http://www.w3.org/2000/svg" width="48" height="48" viewBox="0 0 768 768">
<path d="M0 0 C62.9966524 -0.051426 125.99330726 -0.09912343 188.98997498 -0.12702942 C189.92256011 -0.12744359 190.85514524 -0.12785776 191.81599053 -0.12828448 C212.08428185 -0.13726351 232.35257339 -0.14557401 252.62086526 -0.15319599 C262.56063874 -0.15693795 272.50041216 -0.16082762 282.44018555 -0.16479492 C283.42930487 -0.1651872 284.41842419 -0.16557948 285.43751682 -0.16598364 C317.48937827 -0.17876438 349.54122385 -0.20129585 381.59307568 -0.22889166 C414.53448597 -0.2572018 447.47588746 -0.2756592 480.41730971 -0.28174497 C485.07159677 -0.28260942 489.7258838 -0.28358633 494.38017082 -0.28463173 C495.29618825 -0.284834 496.21220567 -0.28503627 497.1559812 -0.28524467 C511.89274634 -0.28878782 526.6294843 -0.30269662 541.36623836 -0.3204961 C556.18684813 -0.33817513 571.00743098 -0.3448996 585.82805092 -0.34050413 C594.62986952 -0.33822493 603.43158948 -0.34428298 612.23339025 -0.36239263 C618.119575 -0.37367431 624.00569545 -0.37396853 629.89188472 -0.36549544 C633.24160174 -0.36098318 636.59098228 -0.3627672 639.94070334 -0.37464955 C665.49552805 -0.46001331 665.49552805 -0.46001331 678 3 C678.84304532 3.23143025 679.68609064 3.46286049 680.55468279 3.70130378 C682.52818702 4.27235197 684.44591998 4.91920227 686.375 5.625 C687.07069092 5.87660889 687.76638184 6.12821777 688.4831543 6.38745117 C701.57740632 11.31706921 713.13082069 18.25549064 724 27 C724.76699219 27.53882812 725.53398438 28.07765625 726.32421875 28.6328125 C726.87722656 29.08398438 727.43023438 29.53515625 728 30 C728 30.66 728 31.32 728 32 C728.5775 32.2475 729.155 32.495 729.75 32.75 C732.32939979 34.18299988 734.06121592 35.78424676 736 38 C736 38.66 736 39.32 736 40 C736.66 40 737.32 40 738 40 C756.05948143 59.65705094 768.18555667 87.84229971 768.13142776 114.53392792 C768.13450672 115.95247114 768.13450672 115.95247114 768.13764787 117.39967179 C768.14331098 120.57468851 768.14186146 123.74966175 768.14044189 126.92468262 C768.14302593 129.22167272 768.14603919 131.51866238 768.1494453 133.81565142 C768.15751412 140.13295719 768.1593048 146.4502516 768.16004276 152.76756191 C768.16122056 158.87955883 768.1680217 164.9915509 768.17412117 171.10354447 C768.19017089 187.47657739 768.19608337 203.84960938 768.20086992 220.22264876 C768.20320699 227.97074303 768.20680977 235.71883656 768.2105653 243.46693025 C768.22340014 269.99803065 768.23411919 296.52913064 768.2375679 323.06023407 C768.23778953 324.72529245 768.23801132 326.39035084 768.23823325 328.05540922 C768.23845389 329.72445204 768.23867437 331.39349485 768.2388947 333.06253767 C768.23933725 336.41083241 768.23978437 339.75912714 768.24023438 343.10742188 C768.24034377 343.93760251 768.24045316 344.76778314 768.24056586 345.62312076 C768.24419566 372.53551481 768.26011314 399.44788191 768.28342474 426.36026563 C768.3080354 454.82450389 768.32174132 483.28872674 768.32293582 511.75297594 C768.32310727 514.8792677 768.3233227 518.00555945 768.32357025 521.1318512 C768.32362602 521.90161232 768.32368179 522.67137344 768.32373925 523.46446065 C768.32488864 535.83813469 768.33590114 548.21178102 768.35045731 560.58544571 C768.36484254 573.02924534 768.36804787 585.47300955 768.36001733 597.91681522 C768.35596103 604.65479505 768.35703367 611.39267635 768.37107468 618.13064575 C768.38382174 624.30421655 768.38260879 630.47762451 768.37048396 636.65119511 C768.36852838 638.87936877 768.37159892 641.107554 768.38032833 643.33571142 C768.43522624 658.30100431 767.56961442 672.17712644 762.375 686.375 C762.12339111 687.07069092 761.87178223 687.76638184 761.61254883 688.4831543 C756.68293079 701.57740632 749.74450936 713.13082069 741 724 C740.46117187 724.76699219 739.92234375 725.53398438 739.3671875 726.32421875 C738.91601562 726.87722656 738.46484375 727.43023438 738 728 C737.34 728 736.68 728 736 728 C735.7525 728.5775 735.505 729.155 735.25 729.75 C733.81700012 732.32939979 732.21575324 734.06121592 730 736 C729.34 736 728.68 736 728 736 C728 736.66 728 737.32 728 738 C708.34294906 756.05948143 680.15770029 768.18555667 653.46607208 768.13142776 C652.04752886 768.13450672 652.04752886 768.13450672 650.60032821 768.13764787 C647.42531149 768.14331098 644.25033825 768.14186146 641.07531738 768.14044189 C638.77832728 768.14302593 636.48133762 768.14603919 634.18434858 768.1494453 C627.86704281 768.15751412 621.5497484 768.1593048 615.23243809 768.16004276 C609.12044117 768.16122056 603.0084491 768.1680217 596.89645553 768.17412117 C580.52342261 768.19017089 564.15039062 768.19608337 547.77735124 768.20086992 C540.02925697 768.20320699 532.28116344 768.20680977 524.53306975 768.2105653 C498.00196935 768.22340014 471.47086936 768.23411919 444.93976593 768.2375679 C443.27470755 768.23778953 441.60964916 768.23801132 439.94459078 768.23823325 C438.27554796 768.23845389 436.60650515 768.23867437 434.93746233 768.2388947 C431.58916759 768.23933725 428.24087286 768.23978437 424.89257812 768.24023438 C424.06239749 768.24034377 423.23221686 768.24045316 422.37687924 768.24056586 C395.46448519 768.24419566 368.55211809 768.26011314 341.63973437 768.28342474 C313.17549611 768.3080354 284.71127326 768.32174132 256.24702406 768.32293582 C253.1207323 768.32310727 249.99444055 768.3233227 246.8681488 768.32357025 C245.71350712 768.3236539 245.71350712 768.3236539 244.53553935 768.32373925 C232.16186531 768.32488864 219.78821898 768.33590114 207.41455429 768.35045731 C194.97075466 768.36484254 182.52699045 768.36804787 170.08318478 768.36001733 C163.34520495 768.35596103 156.60732365 768.35703367 149.86935425 768.37107468 C143.69578345 768.38382174 137.52237549 768.38260879 131.34880489 768.37048396 C129.12063123 768.36852838 126.892446 768.37159892 124.66428858 768.38032833 C109.69899569 768.43522624 95.82287356 767.56961442 81.625 762.375 C80.92930908 762.12339111 80.23361816 761.87178223 79.5168457 761.61254883 C66.42259368 756.68293079 54.86917931 749.74450936 44 741 C42.84951172 740.19175781 42.84951172 740.19175781 41.67578125 739.3671875 C40.84626953 738.69042969 40.84626953 738.69042969 40 738 C40 737.34 40 736.68 40 736 C39.4225 735.7525 38.845 735.505 38.25 735.25 C35.67060021 733.81700012 33.93878408 732.21575324 32 730 C32 729.34 32 728.68 32 728 C31.34 728 30.68 728 30 728 C11.30937441 707.65597291 -0.19218321 679.2934029 -0.12304783 651.78434849 C-0.12420167 650.65687982 -0.12535552 649.52941116 -0.12654433 648.36777678 C-0.12919968 644.57456125 -0.12469766 640.78138782 -0.12025452 636.98817444 C-0.12013375 634.24738988 -0.12152351 631.50660655 -0.12284368 628.76582235 C-0.12491644 622.79909903 -0.12327531 616.83238569 -0.11920547 610.86566353 C-0.11317059 601.99336528 -0.11286966 593.12107332 -0.11374746 584.24877339 C-0.11506147 569.32417794 -0.11171955 554.39958691 -0.10573006 539.47499275 C-0.09981435 524.6963912 -0.09596437 509.91779149 -0.09487724 495.13918877 C-0.0948085 494.22052203 -0.09473976 493.30185529 -0.09466894 492.35535017 C-0.09433061 487.6899631 -0.09402923 483.02457604 -0.09374207 478.35918897 C-0.09164129 445.30871261 -0.08490293 412.25823867 -0.07543945 379.20776367 C-0.06625606 347.0983888 -0.05917193 314.98901459 -0.05493164 282.87963867 C-0.05480011 281.89000029 -0.05466859 280.9003619 -0.05453308 279.88073447 C-0.05321456 269.94243766 -0.05193875 260.00414085 -0.05069422 250.06584404 C-0.04815796 229.82013602 -0.04533671 209.57442805 -0.04234314 189.32872009 C-0.04220585 188.39784197 -0.04206856 187.46696384 -0.04192711 186.50787729 C-0.03272544 124.33858385 -0.01688012 62.16929176 0 0 Z " fill="#663399" transform="translate(0,0)"/>
<path d="M0 0 C2.04265047 0.02915272 4.08271443 0.02050349 6.12548828 0.00756836 C24.75764899 0.03388774 40.33321941 5.71613851 54.41455078 17.93530273 C71.2924362 35.05090485 76.91064453 59.20872166 76.91064453 82.46655273 C60.08064453 82.46655273 43.25064453 82.46655273 25.91064453 82.46655273 C23.93064453 72.56655273 23.93064453 72.56655273 21.91064453 62.46655273 C17.33882144 53.310319 17.33882144 53.310319 8.91064453 49.46655273 C1.54816196 48.59320997 -5.03389539 48.91442033 -11.08935547 53.46655273 C-15.32113452 57.31952804 -17.70868296 61.73686852 -18.29443359 67.47583008 C-18.39405759 69.72702736 -18.41791694 71.96322268 -18.40185547 74.21655273 C-18.39766602 75.01351562 -18.39347656 75.81047852 -18.38916016 76.6315918 C-18.22534241 85.18845495 -16.74693819 92.76678372 -11.08935547 99.46655273 C-4.85270735 105.07945118 1.81759917 108.59692578 9.47314453 111.90405273 C11.6042135 112.85394718 13.73442117 113.80577626 15.86376953 114.75952148 C16.89566406 115.21891113 17.92755859 115.67830078 18.99072266 116.15161133 C38.57854046 124.97268045 57.67193434 135.40421004 68.91064453 154.46655273 C69.35666016 155.19616211 69.80267578 155.92577148 70.26220703 156.67749023 C81.58013491 177.02198636 83.86622756 207.55352816 78.28564453 230.02905273 C77.5542049 232.52665149 76.76469049 235.00817746 75.91064453 237.46655273 C75.59716064 238.42851563 75.59716064 238.42851563 75.27734375 239.40991211 C72.11582437 249.00577466 67.49289765 256.79306188 60.91064453 264.46655273 C60.33443359 265.14331055 59.75822266 265.82006836 59.16455078 266.51733398 C48.39480507 278.16518846 33.09882365 283.54726636 17.91064453 286.46655273 C17.00830078 286.65217773 16.10595703 286.83780273 15.17626953 287.02905273 C-7.99454575 290.13327679 -30.87724623 286.00746718 -50.08935547 272.46655273 C-64.09584309 261.40501892 -72.16294895 242.48509185 -75.50341797 225.34155273 C-76.33559433 217.94442955 -76.08935547 211.08685348 -76.08935547 203.46655273 C-58.59935547 203.46655273 -41.10935547 203.46655273 -23.08935547 203.46655273 C-22.09935547 210.89155273 -22.09935547 210.89155273 -21.08935547 218.46655273 C-19.0480274 226.95417996 -15.40311593 232.7598795 -7.90185547 237.46655273 C-0.20594649 239.48515181 7.12039576 239.64011127 14.19189453 235.73217773 C20.60574116 231.00925431 22.65871365 225.16671341 23.91064453 217.46655273 C25.29923128 203.90298782 24.37153356 192.73589897 16.72314453 181.15405273 C7.13761183 171.99454371 -4.94114294 166.73879426 -16.85107422 161.27514648 C-31.12358572 154.70571579 -43.84473588 147.67072405 -55.08935547 136.46655273 C-56.04068359 135.5500293 -56.04068359 135.5500293 -57.01123047 134.61499023 C-73.25387485 117.72551489 -74.61069851 93.54823063 -74.35888672 71.48608398 C-73.77852473 50.0241262 -64.86403337 31.77311932 -49.52685547 16.84155273 C-35.41712726 4.65195574 -18.36068122 -0.28474728 0 0 Z " fill="#FDFDFE" transform="translate(627.08935546875,421.533447265625)"/>
<path d="M0 0 C0.92683594 0.38414062 1.85367188 0.76828125 2.80859375 1.1640625 C18.89789072 8.36383922 29.28098101 22.11231968 36 38 C40.88944254 51.14037681 42 62.83427721 42 77 C25.17 77 8.34 77 -9 77 C-9.66 72.05 -10.32 67.1 -11 62 C-13.46240915 53.38156796 -15.19526491 49.545936 -22.796875 44.90234375 C-28.10468343 42.72840094 -35.04893145 43.14293927 -40.48828125 44.72265625 C-46.09309356 47.32979117 -48.83604028 50.83836051 -51.75 56.25 C-55.38237092 66.74795113 -53.78312525 80.03552579 -49.109375 89.875 C-42.61294841 100.73469818 -28.33867515 105.2105626 -17.36547852 109.92822266 C5.97405413 119.9704393 26.39832384 132.63169494 38 156 C38.42023438 156.80695313 38.84046875 157.61390625 39.2734375 158.4453125 C45.2718561 171.38926842 45.26812062 186.5409767 45.3125 200.5 C45.31797852 201.76360352 45.32345703 203.02720703 45.32910156 204.32910156 C45.1738849 224.61966595 39.36227925 245.98843145 25 261 C4.92069869 278.92697458 -18.81612438 282.96489062 -44.96142578 282.18798828 C-51.62626947 281.77565262 -57.68783243 280.14643613 -64 278 C-64.90234375 277.72285156 -65.8046875 277.44570313 -66.734375 277.16015625 C-83.09860838 271.50563612 -94.44904688 258.88113188 -102.12011719 243.82177734 C-109.33306968 228.88752332 -111 214.48268689 -111 198 C-93.51 198 -76.02 198 -58 198 C-57.01 204.435 -57.01 204.435 -56 211 C-54.1440294 218.88787506 -51.76704829 225.2247537 -45.25390625 230.3828125 C-39.55353464 233.77222265 -33.44621254 233.92088751 -27 233 C-22.04247435 231.63169542 -18.33174045 229.87180109 -15.3046875 225.6171875 C-11.20188983 217.76326053 -10.7709251 210.52764168 -10.6875 201.8125 C-10.65849609 200.82185547 -10.62949219 199.83121094 -10.59960938 198.81054688 C-10.51218992 188.55557177 -13.37889899 180.62337133 -20.58105469 173.24438477 C-27.922492 166.43273426 -37.25187173 162.23214349 -46.25 158.0625 C-48.45415418 157.02040321 -50.65728402 155.97613704 -52.859375 154.9296875 C-53.91318359 154.42920898 -54.96699219 153.92873047 -56.05273438 153.41308594 C-65.69045014 148.79221956 -74.86803749 144.03011263 -83 137 C-83.75796875 136.38511719 -84.5159375 135.77023437 -85.296875 135.13671875 C-100.30357965 122.57238046 -106.92142854 104.39296193 -108.82128906 85.31689453 C-110.77789614 59.95049951 -106.35902922 37.03036251 -90 17 C-68.74932168 -6.26769186 -28.53595259 -13.3290514 0 0 Z " fill="#FEFDFE" transform="translate(489,427)"/>
<path d="M0 0 C1.59908203 0.5259375 1.59908203 0.5259375 3.23046875 1.0625 C19.05264572 6.95743786 33.00745911 18.57228736 40.375 33.8515625 C48.30366102 52.1157995 48 67.35849308 48 88 C29.52 88 11.04 88 -8 88 C-8.495 79.09 -8.495 79.09 -9 70 C-10.57031833 62.85505159 -12.58787912 56.12564935 -18.80859375 51.71875 C-20.4967986 50.73601121 -22.24624907 49.86033065 -24 49 C-24.66 48.67 -25.32 48.34 -26 48 C-32.96456969 47.44283443 -39.87184802 47.28596849 -46 51 C-52.38096568 56.510834 -54.47096607 65.20026289 -55.37159729 73.37137032 C-55.51499335 76.93495708 -55.54097597 80.47878511 -55.51757812 84.04516602 C-55.52301556 85.39706164 -55.53014721 86.74895133 -55.53881836 88.10083008 C-55.55686088 91.73106687 -55.55006497 95.36084267 -55.53730202 98.99108624 C-55.52707623 102.81445764 -55.53659378 106.6377932 -55.54284668 110.46116638 C-55.55009464 116.87709541 -55.54060992 123.29283939 -55.52148438 129.70874023 C-55.49971171 137.09738373 -55.50678118 144.48558567 -55.52879 151.87421852 C-55.54701473 158.25087433 -55.54946825 164.62739819 -55.53903532 171.00407165 C-55.53284021 174.79823941 -55.53185378 178.59220046 -55.54518127 182.38635445 C-55.5568434 185.9546842 -55.54852842 189.52245136 -55.52560425 193.09072113 C-55.51790158 195.00388849 -55.52958332 196.91710415 -55.54211426 198.83024597 C-55.44474094 208.90725366 -53.90891438 219.20717927 -46.54296875 226.6640625 C-41.18277586 231.30503963 -36.14407699 231.53603412 -29.26171875 231.33984375 C-23.75172329 230.76574841 -19.26804076 229.47319017 -15.4453125 225.3046875 C-8.47234503 215.11342735 -8.72243701 204.28142918 -8 192 C10.48 192 28.96 192 48 192 C48 220.03805731 45.64914806 241.13643478 26.234375 261.7890625 C17.32023985 270.60969274 5.13118327 276.87381177 -7 280 C-8.48693359 280.41572266 -8.48693359 280.41572266 -10.00390625 280.83984375 C-18.27657289 282.84561879 -26.19970469 283.28547281 -34.6875 283.3125 C-35.72003906 283.31789795 -36.75257813 283.3232959 -37.81640625 283.32885742 C-47.89016078 283.23673896 -57.64486803 281.99994992 -67.0625 278.3125 C-68.07691162 277.92058472 -68.07691162 277.92058472 -69.11181641 277.52075195 C-86.24826113 270.64135043 -99.53622083 258.10617722 -106.87109375 241.13671875 C-110.48772562 231.08773816 -113.11753006 220.24196645 -113.13371277 209.55075073 C-113.13797775 208.2724791 -113.14224274 206.99420746 -113.14663696 205.67720032 C-113.14628749 204.27291867 -113.14582599 202.86863705 -113.14526367 201.46435547 C-113.14825812 199.97556982 -113.1516613 198.48678496 -113.15544128 196.9980011 C-113.16425903 192.96255124 -113.16661853 188.92712259 -113.16725707 184.89166403 C-113.16796913 182.36582438 -113.17010648 179.83999008 -113.17275429 177.31415176 C-113.18200218 168.48872792 -113.1860901 159.66331915 -113.18530273 150.83789062 C-113.18470293 142.63438295 -113.19523703 134.43094125 -113.2110464 126.22745025 C-113.22416339 119.1673244 -113.22948485 112.10721999 -113.22884732 105.04708207 C-113.22859345 100.83814621 -113.23138312 96.62926894 -113.24202538 92.42034531 C-113.25177593 88.45584462 -113.25173835 84.49145766 -113.24450874 80.52695274 C-113.24347131 79.08068486 -113.24577513 77.63440964 -113.2518692 76.18815422 C-113.33889259 54.08439936 -108.32808707 33.75959411 -92.58984375 17.4296875 C-80.83668505 6.40334555 -66.50866312 0.43815416 -51 -3 C-49.85398315 -3.2626062 -49.85398315 -3.2626062 -48.68481445 -3.53051758 C-32.98992593 -6.27501795 -15.09210954 -5.10344972 0 0 Z " fill="#FDFDFE" transform="translate(309,426)"/>
</svg>
