<?xml version="1.0" encoding="UTF-8"?>
<svg version="1.1" xmlns="http://www.w3.org/2000/svg" width="447" height="439">
<path d="M0 0 C4.66548113 0.01135993 9.33073303 0.00461876 13.99620628 -0.0068779 C33.37777581 -0.04730552 52.71368782 0.22328379 72.07421875 1.16699219 C72.90834038 1.20689018 73.74246201 1.24678818 74.60186005 1.2878952 C105.28114011 2.79254615 137.47372057 5.81796244 165.86328125 18.26074219 C166.63929688 18.58558594 167.4153125 18.91042969 168.21484375 19.24511719 C186.68239831 27.63277145 198.93252894 43.14066914 206.11328125 61.57324219 C206.60755615 62.83454956 206.60755615 62.83454956 207.11181641 64.12133789 C211.73565877 76.54658386 213.47003949 89.39840227 214.5078125 102.54589844 C214.57034525 103.31066057 214.632878 104.07542271 214.69730568 104.86335945 C216.20039558 123.55275921 216.42238715 142.24314321 216.53324127 160.98378754 C216.5632409 165.62647514 216.60778712 170.26903062 216.64990234 174.91162109 C216.73484931 184.61642175 216.79637013 194.32126775 216.85037994 204.02628326 C216.8691065 207.2696541 216.89140349 210.51299877 216.91357422 213.75634766 C217.82311579 353.55789262 217.82311579 353.55789262 190.85424805 381.37792969 C189.53876251 382.68727766 188.20180154 383.97495148 186.86328125 385.26074219 C185.98929687 386.14632812 185.98929687 386.14632812 185.09765625 387.04980469 C169.25860014 402.00891324 145.47632985 407.15946857 124.86328125 411.26074219 C124.1554248 411.40995117 123.44756836 411.55916016 122.71826172 411.71289062 C111.6941607 414.01918791 100.50616121 414.93239912 89.30078125 415.88574219 C88.57638855 415.94836243 87.85199585 416.01098267 87.10565186 416.07550049 C63.0495708 418.12330406 38.98994729 418.42648078 14.86352539 418.39111328 C10.97280927 418.38544154 7.08216194 418.38879806 3.19144821 418.39454556 C-22.3878489 418.42671144 -48.02369334 418.33261623 -73.51171875 415.94824219 C-74.55878998 415.85261993 -74.55878998 415.85261993 -75.62701416 415.75506592 C-109.50040818 412.63531099 -149.08728996 407.67124382 -174.13671875 382.26074219 C-174.75933594 381.6484375 -175.38195312 381.03613281 -176.0234375 380.40527344 C-185.3947115 370.52858242 -190.49906542 358.1730231 -194.13671875 345.26074219 C-194.58144531 343.71 -194.58144531 343.71 -195.03515625 342.12792969 C-205.35427651 302.17965224 -201.46503039 256.69144046 -201.39385647 215.79894847 C-201.38630339 210.95277012 -201.38904977 206.10667344 -201.39746094 201.26049805 C-201.62980634 63.73274172 -201.62980634 63.73274172 -174.4296875 35.53027344 C-173.29466797 34.40685547 -173.29466797 34.40685547 -172.13671875 33.26074219 C-171.47285156 32.56335937 -170.80898437 31.86597656 -170.125 31.14746094 C-143.42938141 4.96033032 -93.49056274 3.12707569 -58.546875 1.19433594 C-57.75957253 1.15074699 -56.97227005 1.10715805 -56.16110992 1.06224823 C-37.44424727 0.05516371 -18.73971224 -0.04599659 0 0 Z " fill="#E7E7E7" transform="translate(216.13671875,13.7392578125)"/>
<path d="M0 0 C0.74077286 -0.00846954 1.48154572 -0.01693909 2.24476624 -0.02566528 C4.68215356 -0.04896829 7.11890636 -0.05005846 9.55639648 -0.04882812 C11.26545967 -0.05593798 12.97452049 -0.06363818 14.68357849 -0.07189941 C18.2653567 -0.08533198 21.84691462 -0.08692043 25.42871094 -0.08105469 C29.98568273 -0.07518504 34.54157934 -0.10564129 39.09834385 -0.14617157 C42.63062587 -0.17222452 46.16265585 -0.17490972 49.69502068 -0.17127991 C51.37291076 -0.17295736 53.05081427 -0.18246528 54.72860909 -0.20042419 C72.16049742 -0.36637337 83.85123475 4.14847537 96.56031799 16.3478241 C98.016537 17.78635704 99.4675524 19.23017147 100.9140625 20.6784668 C101.71516953 21.4728566 102.51627655 22.2672464 103.34165955 23.08570862 C105.96016459 25.68537573 108.57121473 28.29236846 111.18139648 30.90039062 C113.00684777 32.71941008 114.83244721 34.53828087 116.65818787 36.35700989 C120.46839122 40.15528047 124.27452161 43.95757315 128.078125 47.76245117 C132.47430748 52.15984089 136.88159092 56.54588655 141.29407459 60.92691344 C145.5503155 65.15389185 149.79547268 69.39182114 154.03651237 73.634058 C155.83908882 75.43426986 157.64491946 77.23122922 159.45401192 79.02489281 C161.97238595 81.52377025 164.4778877 84.03488082 166.98046875 86.54956055 C167.7330899 87.29094269 168.48571106 88.03232483 169.26113892 88.7961731 C169.93809311 89.48151627 170.6150473 90.16685944 171.31251526 90.87297058 C171.90552209 91.46488788 172.49852892 92.05680517 173.10950565 92.66665936 C174.36499023 94.41992188 174.36499023 94.41992188 174.36499023 98.41992188 C173.28837128 98.42800873 172.21175232 98.43609558 171.10250854 98.44442749 C160.9501331 98.52195459 150.79789058 98.60971057 140.64568901 98.70744896 C135.42649869 98.75736784 130.20732817 98.80369837 124.98803711 98.84179688 C119.94995051 98.87870522 114.91203141 98.92508044 109.87408829 98.97798538 C107.95322741 98.99649981 106.03233066 99.01161864 104.11141586 99.02326584 C101.41826014 99.04017874 98.72548555 99.06922604 96.0324707 99.10107422 C94.84455681 99.1043145 94.84455681 99.1043145 93.63264465 99.10762024 C89.16797653 99.17494785 85.57338905 99.74211065 81.36499023 101.41992188 C81.35690338 102.46117722 81.34881653 103.50243256 81.34048462 104.57524109 C81.26299037 114.38946059 81.17524268 124.20354201 81.07746315 134.01758099 C81.02752341 139.06304361 80.98119306 144.10848554 80.94311523 149.15405273 C80.90623324 154.02355858 80.85986517 158.89289025 80.80692673 163.76224709 C80.78839831 165.61973833 80.77328461 167.47726688 80.76164627 169.33481407 C80.74475733 171.9371765 80.71571585 174.53914141 80.68383789 177.14135742 C80.6816777 177.90884308 80.67951752 178.67632874 80.67729187 179.46707153 C80.61346056 183.54769739 80.18157949 186.74513971 78.36499023 190.41992188 C73.82719615 189.57132703 71.51488595 186.90764023 68.42749023 183.66992188 C67.65888672 182.88101563 67.65888672 182.88101563 66.87475586 182.07617188 C65.85154302 181.02565602 64.83110109 179.97243402 63.81347656 178.91650391 C61.69114482 176.72370202 59.52616072 174.57438065 57.36499023 172.41992188 C56.34749228 171.39184073 55.33059936 170.36316053 54.31420898 169.33398438 C47.35033808 162.2604683 47.35033808 162.2604683 39.98999023 155.60742188 C36.68398908 152.80254089 33.88219427 149.73578377 31.10327148 146.41210938 C28.96543705 143.96200699 26.67769226 141.70607926 24.36499023 139.41992188 C23.26236022 138.30769792 22.16086501 137.19434819 21.06030273 136.08007812 C19.87023881 134.88081944 18.68013394 133.68160138 17.48999023 132.48242188 C16.9034668 131.88751953 16.31694336 131.29261719 15.71264648 130.6796875 C12.23926424 127.18722074 8.65849217 123.92978599 4.8918457 120.75756836 C3.022259 119.11966213 1.43599756 117.34360432 -0.13500977 115.41992188 C-2.3379714 112.81283753 -4.52528943 110.6025791 -7.19750977 108.48242188 C-12.51027658 103.9168677 -16.48668156 99.5879272 -17.17849731 92.33709717 C-17.45709551 87.2168837 -17.39031428 82.09985029 -17.32641602 76.97460938 C-17.32283423 75.07610354 -17.32148248 73.17759231 -17.32225037 71.27908325 C-17.31757442 67.31315501 -17.29284978 63.34804634 -17.25244141 59.38232422 C-17.2014034 54.31051123 -17.19000151 49.23959463 -17.19227695 44.16755486 C-17.1914596 40.25203976 -17.17498124 36.33671881 -17.15327263 32.42126846 C-17.14375903 30.55145865 -17.13782131 28.68162697 -17.13559151 26.81179428 C-17.12905448 24.19625438 -17.10272784 21.58164651 -17.07080078 18.96630859 C-17.07216034 18.20145142 -17.0735199 17.43659424 -17.07492065 16.64855957 C-16.9842813 11.54643064 -16.23807532 7.86225493 -13.63500977 3.41992188 C-9.27633817 0.34627843 -5.19051035 -0.02212999 0 0 Z " fill="#272727" transform="translate(143.635009765625,173.580078125)"/>
<path d="M0 0 C1.59571445 -0.00463456 3.1914278 -0.00966007 4.78713989 -0.01504517 C9.10311383 -0.02810317 13.41907226 -0.03460027 17.73506284 -0.03905582 C20.4340792 -0.04199511 23.13309139 -0.04610134 25.83210564 -0.05056 C34.28483292 -0.0642128 42.73755059 -0.07389228 51.19028813 -0.07776189 C60.93421618 -0.08224799 70.67800433 -0.09983072 80.42188984 -0.12876248 C87.96605006 -0.15038313 95.51017089 -0.16046625 103.05436176 -0.16180301 C107.55545155 -0.16285005 112.05640943 -0.16873745 116.55746651 -0.18662262 C120.78876386 -0.20311164 125.01983017 -0.20525483 129.25114822 -0.19648361 C130.80111371 -0.19571389 132.35109168 -0.20004745 133.90102577 -0.20994186 C136.02226772 -0.2226866 138.14269417 -0.21677195 140.26393127 -0.20635986 C141.44910623 -0.20782642 142.63428118 -0.20929298 143.85537052 -0.21080399 C147.96643649 0.24096219 150.57480197 1.24804748 154.23999023 3.16113281 C156.74529962 6.91909688 156.52853858 9.87333234 156.51464844 14.22509766 C156.51975937 15.04655777 156.5248703 15.86801788 156.53013611 16.71437073 C156.54405177 19.43367776 156.54307368 22.15273187 156.54077148 24.87207031 C156.54465772 26.76152643 156.54899223 28.65098168 156.55375671 30.54043579 C156.56122345 34.50322296 156.56092464 38.46592105 156.55566406 42.42871094 C156.54987293 47.50529617 156.56678961 52.58151615 156.59000874 57.658041 C156.60474715 61.56141286 156.60561756 65.46469683 156.60249901 69.36809158 C156.6030123 71.2395767 156.60825155 73.11106672 156.61831093 74.98252487 C156.63065825 77.60138346 156.62389371 80.21953155 156.61230469 82.83837891 C156.61994843 83.61050217 156.62759216 84.38262543 156.63546753 85.17814636 C156.59168913 89.65778016 156.24548269 92.74484473 153.23999023 96.16113281 C148.58309649 98.4261576 143.93560938 98.4522818 138.85131836 98.43579102 C138.03102646 98.44090195 137.21073456 98.44601288 136.36558533 98.45127869 C133.66739507 98.46512292 130.96946167 98.46422209 128.27124023 98.46191406 C126.38846747 98.46580329 124.50569557 98.47013843 122.6229248 98.47489929 C118.68226269 98.48234998 114.74169019 98.48207817 110.80102539 98.47680664 C105.75713346 98.47100778 100.71360822 98.48795867 95.66977692 98.51115131 C91.78352726 98.5258975 87.89736581 98.52675924 84.01109314 98.52364159 C82.15159884 98.52415416 80.29209953 98.52937992 78.43263245 98.53945351 C75.83106767 98.55182039 73.23021588 98.54502534 70.62866211 98.53344727 C69.48293983 98.54491287 69.48293983 98.54491287 68.31407166 98.55661011 C59.14626036 98.46664413 54.59344871 93.95581447 48.49389648 87.80322266 C47.74187958 87.05646271 46.98986267 86.30970276 46.21505737 85.54031372 C43.7366129 83.07504792 41.26927576 80.59899822 38.80249023 78.12207031 C37.07709844 76.39870049 35.35126162 74.67577612 33.625 72.95327759 C30.0090145 69.34171313 26.39850498 65.72478399 22.79174805 62.10400391 C18.18200498 57.47720802 13.55897698 52.86395935 8.93171692 48.25469017 C5.36423893 44.69808864 1.80398159 41.13432791 -1.75418091 37.56840897 C-3.45513066 35.86546589 -5.15828987 34.16472658 -6.86373901 32.46628952 C-9.25449277 30.0832092 -11.63532804 27.6906256 -14.01391602 25.29541016 C-15.06145554 24.25697968 -15.06145554 24.25697968 -16.13015747 23.1975708 C-20.51939803 18.75171835 -25.24550155 13.95321021 -27.76000977 8.16113281 C-27.60084534 5.51712608 -27.60084534 5.51712608 -26.76000977 3.16113281 C-19.41817968 -1.73342058 -8.55956038 0.00580734 0 0 Z " fill="#252525" transform="translate(164.760009765625,76.8388671875)"/>
<path d="M0 0 C0.9075 0.680625 1.815 1.36125 2.75 2.0625 C5.71472615 4.26982809 5.71472615 4.26982809 8.375 3.75 C8.91125 3.5025 9.4475 3.255 10 3 C10 3.66 10 4.32 10 5 C12.97 5.495 12.97 5.495 16 6 C16.66 8.31 17.32 10.62 18 13 C19.98 12.34 21.96 11.68 24 11 C28.875 15.75 28.875 15.75 30 18 C31.32 18 32.64 18 34 18 C34 18.66 34 19.32 34 20 C40.43028541 21.32388229 46.4294834 22.24794402 53 22 C53 22.66 53 23.32 53 24 C53.89203125 23.98839844 54.7840625 23.97679687 55.703125 23.96484375 C56.87359375 23.95582031 58.0440625 23.94679688 59.25 23.9375 C60.41015625 23.92589844 61.5703125 23.91429687 62.765625 23.90234375 C65.48677822 23.98450417 67.41189459 24.33336679 70 25 C72.58656673 25.22288501 75.15952778 25.41314385 77.75 25.5625 C78.44738281 25.60568359 79.14476563 25.64886719 79.86328125 25.69335938 C81.57531922 25.79889596 83.28763561 25.8998991 85 26 C85 26.66 85 27.32 85 28 C97.0193343 28.97082693 97.0193343 28.97082693 109 28 C109.66 28.33 110.32 28.66 111 29 C111 29.99 111 30.98 111 32 C128.09147207 32.02350338 145.182939 32.04106392 162.2744236 32.05181217 C170.21273976 32.05693846 178.15104581 32.06391002 186.08935547 32.07543945 C193.01944943 32.08549966 199.94953606 32.09187999 206.87963712 32.09408849 C210.53899571 32.09537664 214.19833332 32.09833905 217.85768509 32.10573006 C234.26422758 32.13762297 250.6164523 31.95176011 267 31 C267.33 30.34 267.66 29.68 268 29 C270.44140625 28.5859375 270.44140625 28.5859375 273.5625 28.375 C274.6453125 28.29894531 275.728125 28.22289062 276.84375 28.14453125 C279.43278925 28.02597376 281.97358076 27.99970905 284.5625 28.0625 C288.12405164 28.3069254 288.12405164 28.3069254 291 26 C293.38979684 25.77604514 295.78854611 25.64190369 298.1875 25.5625 C303.22789144 25.33262942 307.42731813 24.7757536 312.0390625 22.69140625 C315.40576668 21.50434123 318.90161731 21.48565863 322.44140625 21.25 C325.49308807 20.9518204 328.14591477 20.09772509 331 19 C331.66 19 332.32 19 333 19 C333 18.34 333 17.68 333 17 C333.763125 16.896875 334.52625 16.79375 335.3125 16.6875 C338.01667757 16.26118359 338.01667757 16.26118359 339.34375 14.5 C341.58190403 12.47299258 343.21096069 12.50578177 346.1875 12.3125 C347.08855469 12.24675781 347.98960937 12.18101562 348.91796875 12.11328125 C349.60503906 12.07589844 350.29210937 12.03851563 351 12 C351 10.68 351 9.36 351 8 C353.97 8 356.94 8 360 8 C360.33 7.01 360.66 6.02 361 5 C362.64551962 4.28272222 364.31422289 3.61674772 366 3 C366.66 2.34 367.32 1.68 368 1 C368.99 1 369.98 1 371 1 C365.30950023 13.67047239 350.10814556 20.63444427 337.9453125 25.56640625 C315.10452428 34.07766672 290.99660519 37.74040838 266.8125 39.75 C266.10592255 39.80916595 265.39934509 39.86833191 264.6713562 39.92929077 C240.80772566 41.87729259 216.92784718 42.16546678 193.00024414 42.13037109 C189.10952802 42.12469935 185.21888069 42.12805587 181.32816696 42.13380337 C155.74886985 42.16596925 130.11302541 42.07187405 104.625 39.6875 C103.92695251 39.62375183 103.22890503 39.56000366 102.50970459 39.49432373 C68.38018179 36.35097923 29.38629803 31.29121826 4 6 C3.24976563 5.29359375 2.49953125 4.5871875 1.7265625 3.859375 C0 2 0 2 0 0 Z " fill="#A2A2A2" transform="translate(38,390)"/>
<path d="M0 0 C1.59571445 -0.00463456 3.1914278 -0.00966007 4.78713989 -0.01504517 C9.10311383 -0.02810317 13.41907226 -0.03460027 17.73506284 -0.03905582 C20.4340792 -0.04199511 23.13309139 -0.04610134 25.83210564 -0.05056 C34.28483292 -0.0642128 42.73755059 -0.07389228 51.19028813 -0.07776189 C60.93421618 -0.08224799 70.67800433 -0.09983072 80.42188984 -0.12876248 C87.96605006 -0.15038313 95.51017089 -0.16046625 103.05436176 -0.16180301 C107.55545155 -0.16285005 112.05640943 -0.16873745 116.55746651 -0.18662262 C120.78876386 -0.20311164 125.01983017 -0.20525483 129.25114822 -0.19648361 C130.80111371 -0.19571389 132.35109168 -0.20004745 133.90102577 -0.20994186 C136.02226772 -0.2226866 138.14269417 -0.21677195 140.26393127 -0.20635986 C141.44910623 -0.20782642 142.63428118 -0.20929298 143.85537052 -0.21080399 C147.96643649 0.24096219 150.57480197 1.24804748 154.23999023 3.16113281 C156.76169439 6.94368905 156.50719715 9.92599049 156.46704102 14.30444336 C156.46733307 15.13393494 156.46762512 15.96342651 156.46792603 16.8180542 C156.46653203 19.56142618 156.45096755 22.30452699 156.43530273 25.04785156 C156.43157285 26.94928336 156.42872576 28.85071708 156.42672729 30.75215149 C156.41908888 35.75812074 156.39943858 40.76397404 156.37731934 45.76989746 C156.35686541 50.87750683 156.34772655 55.98513492 156.33764648 61.09277344 C156.31619291 71.11561085 156.28205442 81.13836219 156.23999023 91.16113281 C155.24999023 91.49113281 154.25999023 91.82113281 153.23999023 92.16113281 C152.90999023 65.10113281 152.57999023 38.04113281 152.23999023 10.16113281 C151.24999023 10.16113281 150.25999023 10.16113281 149.23999023 10.16113281 C147.99452618 7.67020471 148.46323243 6.75032548 149.23999023 4.16113281 C127.23958397 4.22158903 105.23929638 4.29903311 83.23902321 4.39684772 C73.02451227 4.44186355 62.81003666 4.48126473 52.59545898 4.50756836 C43.69515175 4.53050171 34.79495575 4.56384713 25.89473665 4.60983437 C21.17966125 4.63382976 16.46469644 4.65251701 11.74956131 4.65874672 C7.3155948 4.66476917 2.88191148 4.68466511 -1.55195045 4.71540833 C-3.18299841 4.72423438 -4.81408331 4.72790176 -6.44515419 4.72614098 C-8.66497047 4.7245006 -10.88391058 4.74107941 -13.10360718 4.7624054 C-14.34802771 4.76701436 -15.59244823 4.77162333 -16.87457848 4.77637196 C-17.8267708 4.90334304 -18.77896313 5.03031412 -19.76000977 5.16113281 C-20.75000977 6.64613281 -20.75000977 6.64613281 -21.76000977 8.16113281 C-22.42000977 7.83113281 -23.08000977 7.50113281 -23.76000977 7.16113281 C-23.43000977 8.81113281 -23.10000977 10.46113281 -22.76000977 12.16113281 C-24.69750977 11.53613281 -24.69750977 11.53613281 -26.76000977 10.16113281 C-27.51000977 7.03613281 -27.51000977 7.03613281 -27.76000977 4.16113281 C-21.10240986 -2.2190671 -8.62241706 0.00584999 0 0 Z " fill="#626262" transform="translate(164.760009765625,76.8388671875)"/>
<path d="M0 0 C-1 2 -1 2 -2.84399414 2.63842773 C-3.64957764 2.81833252 -4.45516113 2.9982373 -5.28515625 3.18359375 C-6.19571777 3.38750732 -7.1062793 3.5914209 -8.04443359 3.80151367 C-9.04039551 4.01138916 -10.03635742 4.22126465 -11.0625 4.4375 C-12.09455566 4.65704346 -13.12661133 4.87658691 -14.18994141 5.1027832 C-29.4645746 8.23927005 -44.91289915 9.82164244 -60.4375 11.125 C-61.32743652 11.20065186 -62.21737305 11.27630371 -63.13427734 11.35424805 C-85.0600647 13.04658381 -107.02378461 13.16265906 -128.99975586 13.13037109 C-132.89047515 13.12469934 -136.78112567 13.12805717 -140.67184258 13.13380146 C-166.47151453 13.16626583 -192.29776993 13.03386828 -218 10.5625 C-219.38275168 10.43877151 -220.76556502 10.3157303 -222.1484375 10.19335938 C-241.52209417 8.44109052 -241.52209417 8.44109052 -248 7 C-248.33 6.34 -248.66 5.68 -249 5 C-246.59077228 3.79538614 -245.15303956 3.90134178 -242.46533203 3.9465332 C-241.52319855 3.9601741 -240.58106506 3.973815 -239.61038208 3.98786926 C-238.58653412 4.00863022 -237.56268616 4.02939117 -236.5078125 4.05078125 C-235.45149628 4.0696489 -234.39518005 4.08851654 -233.30685425 4.10795593 C-231.06226477 4.14991735 -228.81772591 4.19466239 -226.57324219 4.24194336 C-223.17392824 4.31149885 -219.77459687 4.36624663 -216.375 4.41992188 C-214.19008614 4.46262943 -212.00518939 4.50622247 -209.8203125 4.55078125 C-208.81670685 4.56546951 -207.8131012 4.58015778 -206.77908325 4.59529114 C-199.71021933 4.76298116 -192.94275965 5.67486396 -186 7 C-186 7.66 -186 8.32 -186 9 C-172.60146772 8.93808393 -159.20311899 8.86049439 -145.80478668 8.76428509 C-139.57966976 8.72004724 -133.35461137 8.6806968 -127.12939453 8.65356445 C-88.6525089 8.51111366 -88.6525089 8.51111366 -50.3334198 5.39138794 C-44.16951745 4.6676636 -37.98960676 4.09815856 -31.8125 3.5 C-23.98604123 2.72493032 -16.58394439 1.56465229 -8.97924805 -0.49414062 C-5.69868065 -1.05116231 -3.2293878 -0.71971449 0 0 Z " fill="#6B6B6B" transform="translate(360,419)"/>
<path d="M0 0 C0 0.99 0 1.98 0 3 C-23.33423619 13.4503021 -23.33423619 13.4503021 -29.17578125 12.44921875 C-34.20443485 11.81145833 -38.36346128 12.64117083 -43.25 13.8125 C-51.78121697 15.67444682 -60.1559197 16.7833178 -68.85449219 17.46289062 C-72.9665615 17.80094552 -77.05287022 18.23485198 -81.14746094 18.74121094 C-106.97342265 21.7769019 -132.83263895 21.34983273 -158.79840088 21.20599365 C-165.04135022 21.1748031 -171.28433826 21.16149778 -177.52734375 21.14648438 C-189.68499458 21.11471321 -201.84247787 21.06380066 -214 21 C-214 20.34 -214 19.68 -214 19 C-212.02135956 18.9845388 -212.02135956 18.9845388 -210.00274658 18.96876526 C-197.58351895 18.87109276 -185.16434211 18.76836445 -172.7451973 18.66066074 C-166.36009705 18.60544983 -159.97499222 18.55203265 -153.58984375 18.50268555 C-147.43012216 18.45501513 -141.27045653 18.40267117 -135.1108017 18.34705925 C-132.75844462 18.32664787 -130.4060722 18.30793278 -128.05368805 18.29092598 C-124.76392564 18.2668552 -121.47426897 18.23680401 -118.18457031 18.20532227 C-117.20777313 18.1995668 -116.23097595 18.19381134 -115.22457886 18.18788147 C-114.32717987 18.17809265 -113.42978088 18.16830383 -112.50518799 18.15821838 C-111.72719471 18.15176583 -110.94920143 18.14531328 -110.1476326 18.1386652 C-107.98319845 17.99891518 -106.08956133 17.56139932 -104 17 C-102.40590808 16.88972121 -100.80848009 16.82294694 -99.2109375 16.7890625 C-97.81186157 16.74942383 -97.81186157 16.74942383 -96.38452148 16.70898438 C-94.89480835 16.66741211 -94.89480835 16.66741211 -93.375 16.625 C-85.16820025 16.34145136 -77.28815825 15.59140129 -69.22045898 14.08642578 C-64.78054801 13.26565256 -60.45642088 12.74648659 -55.9375 12.5 C-39.63218036 11.55311733 -24.7211278 7.37357985 -9.734375 1.04296875 C-6.01187324 -0.46671252 -3.83422271 -1.2414774 0 0 Z " fill="#868686" transform="translate(388,407)"/>
<path d="M0 0 C0.9075 0.680625 1.815 1.36125 2.75 2.0625 C5.71472615 4.26982809 5.71472615 4.26982809 8.375 3.75 C8.91125 3.5025 9.4475 3.255 10 3 C10 3.66 10 4.32 10 5 C12.97 5.495 12.97 5.495 16 6 C16.66 8.31 17.32 10.62 18 13 C19.98 12.34 21.96 11.68 24 11 C28.875 15.625 28.875 15.625 30 19 C40.62524512 24.81502349 55.12957452 26.17249438 67 27 C67 27.66 67 28.32 67 29 C67.55042969 28.96519531 68.10085937 28.93039062 68.66796875 28.89453125 C76.14367237 28.65113625 83.21663231 29.70727167 90.57250977 30.86035156 C98.15573828 31.99713039 105.67256914 32.45588579 113.33544922 32.62084961 C114.58092529 32.65577515 114.58092529 32.65577515 115.8515625 32.69140625 C116.58197754 32.70373291 117.31239258 32.71605957 118.06494141 32.72875977 C120 33 120 33 123 35 C122.41197601 34.98525131 121.82395203 34.97050262 121.21810913 34.95530701 C115.0861491 34.80262768 108.95403722 34.65793048 102.82177734 34.51782227 C100.53461953 34.46452329 98.24750786 34.40920387 95.96044922 34.35180664 C92.66904649 34.26955733 89.3775451 34.19462636 86.0859375 34.12109375 C84.55747696 34.08054115 84.55747696 34.08054115 82.99813843 34.03916931 C78.15114205 33.93776144 73.78801846 34.19641031 69 35 C66.27783203 34.65795898 66.27783203 34.65795898 63.5078125 33.99609375 C62.48083252 33.7532666 61.45385254 33.51043945 60.39575195 33.26025391 C58.77672974 32.85299072 58.77672974 32.85299072 57.125 32.4375 C55.45087036 32.02250244 55.45087036 32.02250244 53.74291992 31.59912109 C34.82288337 26.77993097 18.07106244 20.01836183 4 6 C3.24976563 5.29359375 2.49953125 4.5871875 1.7265625 3.859375 C0 2 0 2 0 0 Z " fill="#7E7E7E" transform="translate(38,390)"/>
<path d="M0 0 C0.76819565 -0.00365067 1.5363913 -0.00730133 2.3278656 -0.01106262 C4.85064232 -0.01912679 7.37276861 -0.0055979 9.89550781 0.0090332 C11.65334065 0.0095521 13.41117408 0.00903327 15.16900635 0.00752258 C18.84404212 0.00761211 22.51885759 0.01800492 26.19384766 0.03613281 C30.91075182 0.05888627 35.62733622 0.05934994 40.34428024 0.05261517 C43.96959288 0.04927989 47.59483218 0.0558958 51.22013092 0.0657444 C52.96011217 0.06959931 54.70010157 0.07074341 56.44008636 0.06915855 C58.86516495 0.06878903 61.28982749 0.08137365 63.71484375 0.09765625 C64.79798103 0.09394012 64.79798103 0.09394012 65.90299988 0.09014893 C70.86988197 0.14356361 70.86988197 0.14356361 73.09863281 2.37231445 C71.31715983 4.15378743 68.6398351 3.71007545 66.22363281 3.87231445 C62.91145094 4.09578697 60.25487086 4.32023511 57.09863281 5.37231445 C56.39794678 5.23067871 55.69726074 5.08904297 54.9753418 4.94311523 C50.9956343 4.15345588 47.11868202 4.22963487 43.07128906 4.23950195 C42.20475204 4.23854523 41.33821503 4.2375885 40.44541931 4.23660278 C38.61733935 4.23592395 36.78925694 4.23775754 34.96118164 4.24194336 C32.17426085 4.24728927 29.38750169 4.24199166 26.60058594 4.2355957 C24.81998663 4.23625666 23.03938741 4.2375382 21.25878906 4.23950195 C20.43049088 4.23747772 19.60219269 4.23545349 18.74879456 4.23336792 C14.40986506 4.25080777 10.37802386 4.57010076 6.09863281 5.37231445 C3.6410914 5.43809447 1.18194503 5.45800608 -1.27636719 5.43481445 C-3.14421875 5.4212793 -3.14421875 5.4212793 -5.04980469 5.4074707 C-6.46132812 5.39006836 -6.46132812 5.39006836 -7.90136719 5.37231445 C-8.23136719 6.36231445 -8.56136719 7.35231445 -8.90136719 8.37231445 C-9.89136719 8.70231445 -10.88136719 9.03231445 -11.90136719 9.37231445 C-12.63727883 13.97548129 -13.02411992 18.38218432 -13.01489258 23.04199219 C-13.01481705 24.3227916 -13.01474152 25.603591 -13.0146637 26.92320251 C-13.00955864 28.30077148 -13.00434267 29.67834004 -12.99902344 31.0559082 C-12.99715579 32.48079885 -12.99573352 33.90569014 -12.99473572 35.33058167 C-12.99093785 39.06071785 -12.9811312 42.79081441 -12.97003174 46.52093506 C-12.9597586 50.3353217 -12.95522551 54.14971481 -12.95019531 57.96411133 C-12.93950621 65.43353033 -12.92246299 72.90291682 -12.90136719 80.37231445 C-13.89136719 80.86731445 -13.89136719 80.86731445 -14.90136719 81.37231445 C-14.92453431 71.79299954 -14.9423046 62.21369427 -14.95317936 52.63435745 C-14.9583986 48.18632264 -14.96547891 43.73830699 -14.97680664 39.2902832 C-14.98766951 34.99795086 -14.99365125 30.70563696 -14.99624443 26.41329193 C-14.99809254 24.77543599 -15.00170138 23.13758106 -15.00709724 21.49973297 C-15.01435275 19.20626136 -15.01535622 16.912866 -15.01489258 14.61938477 C-15.0182235 12.66080536 -15.0182235 12.66080536 -15.0216217 10.66265869 C-14.82245515 5.21316248 -14.82245515 5.21316248 -13.90136719 3.37231445 C-9.39145199 0.34061947 -5.28621798 -0.05659211 0 0 Z " fill="#A6A6A6" transform="translate(238.9013671875,271.627685546875)"/>
<path d="M0 0 C9.94529087 -0.11644056 19.89041651 -0.20499033 29.83625317 -0.25906086 C34.45577966 -0.28502725 39.07483587 -0.32018463 43.6940918 -0.37719727 C48.16157387 -0.43198434 52.62860691 -0.46151767 57.09639931 -0.47438622 C58.79108042 -0.48354313 60.48574017 -0.50142187 62.18022728 -0.52865028 C72.69702502 -0.69074464 84.4981859 -0.86690889 92.84635925 6.6660614 C93.2270607 7.10626114 93.60776215 7.54646088 94 8 C93.42683013 7.85650305 92.85366026 7.7130061 92.2631216 7.56516075 C91.51629148 7.3786577 90.76946135 7.19215466 90 7 C89.32165383 6.82709757 88.64330767 6.65419514 87.94440556 6.47605324 C82.68222334 5.20926787 77.76133634 4.69684271 72.35913086 4.68115234 C71.54827026 4.67110672 70.73740967 4.6610611 69.90197754 4.65071106 C67.25627265 4.62013928 64.61066768 4.6029172 61.96484375 4.5859375 C60.11681778 4.56720486 58.26880018 4.54762992 56.42079163 4.5272522 C51.58270217 4.47614629 46.74458505 4.4364059 41.90637207 4.39910889 C36.95899737 4.35893346 32.01173561 4.30790319 27.06445312 4.2578125 C17.37638167 4.1613086 7.68824612 4.07682289 -2 4 C-1.34 2.68 -0.68 1.36 0 0 Z " fill="#6A6A6A" transform="translate(136,174)"/>
<path d="M0 0 C0.33 0 0.66 0 1 0 C4.89785612 17.79594968 -1.81756257 35.82991723 -11 51 C-12.61339076 53.37905794 -14.29030325 55.68775387 -16 58 C-17.32 57.34 -18.64 56.68 -20 56 C-18.35 55.34 -16.7 54.68 -15 54 C-15.309375 53.13375 -15.309375 53.13375 -15.625 52.25 C-16 50 -16 50 -15.0625 48.25 C-13.44610496 44.8270458 -13.87464081 41.76077557 -14 38 C-13.34 38 -12.68 38 -12 38 C-11.566875 36.14375 -11.566875 36.14375 -11.125 34.25 C-10.559366 31.9553713 -10.04865446 30.09158486 -8.9375 28 C-7.70408208 25.36870843 -7.5686523 22.87874945 -7.34375 20 C-6.94954039 17.70641682 -6.04859897 16.06928847 -5 14 C-4.64509516 12.53043107 -4.33316887 11.04988988 -4.0625 9.5625 C-3.29629675 5.87742721 -2.27620344 3.06792638 0 0 Z M-23 57 C-22.34 57.66 -21.68 58.32 -21 59 C-21.99 59.66 -22.98 60.32 -24 61 C-23.67 59.68 -23.34 58.36 -23 57 Z " fill="#D5D5D5" transform="translate(426,334)"/>
<path d="M0 0 C0.54269531 0.42152344 1.08539063 0.84304687 1.64453125 1.27734375 C2.35996094 1.82519531 3.07539063 2.37304688 3.8125 2.9375 C4.87404297 3.75541016 4.87404297 3.75541016 5.95703125 4.58984375 C10.04127856 7.4089896 14.10095158 7.1690299 18.86791992 7.20532227 C19.66815079 7.21522186 20.46838165 7.22512146 21.29286194 7.23532104 C23.93870075 7.26691603 26.58455752 7.29168558 29.23046875 7.31640625 C31.06464607 7.3369775 32.89881867 7.35797402 34.73298645 7.37937927 C39.5613116 7.43458223 44.38967942 7.48399937 49.21807861 7.53222656 C54.14477334 7.58245452 59.07140609 7.63813384 63.99804688 7.69335938 C73.66531164 7.80091924 83.33263022 7.90236907 93 8 C92.67 8.99 92.34 9.98 92 11 C91.31301025 10.99476318 90.62602051 10.98952637 89.91821289 10.98413086 C76.22776066 10.89448762 62.58457932 10.99099741 48.90820312 11.64868164 C41.48174345 11.99194646 34.08896628 12.05874572 26.65820312 11.78710938 C24.25574477 11.70328684 24.25574477 11.70328684 21 12 C20.01 13.485 20.01 13.485 19 15 C19.66 15.33 20.32 15.66 21 16 C20.67 17.32 20.34 18.64 20 20 C19.46632812 19.54109375 18.93265625 19.0821875 18.3828125 18.609375 C12.91429868 14.10589303 7.70768376 11.25456594 1 9 C1.33 7.68 1.66 6.36 2 5 C1.34 4.67 0.68 4.34 0 4 C0 2.68 0 1.36 0 0 Z " fill="#ABABAB" transform="translate(216,167)"/>
<path d="M0 0 C39.27 0.33 78.54 0.66 119 1 C119 1.66 119 2.32 119 3 C109.33559392 3.90645197 99.73357296 4.14835537 90.03515625 4.1328125 C88.5113473 4.1334897 86.98753845 4.13446314 85.46372986 4.13571167 C82.27764858 4.13717673 79.09159553 4.13507789 75.90551758 4.13037109 C71.92035932 4.12475636 67.93526906 4.12800593 63.9501133 4.13380814 C48.29214358 4.15316513 32.64695189 4.05460015 16.99609375 3.5546875 C15.75005875 3.51594513 14.50402374 3.47720276 13.2202301 3.43728638 C12.07432907 3.39594574 10.92842804 3.3546051 9.74780273 3.31201172 C8.75304428 3.2761496 7.75828583 3.24028748 6.73338318 3.20333862 C4.0818214 3.00608676 1.59187199 2.58175192 -1 2 C-0.67 1.34 -0.34 0.68 0 0 Z " fill="#606060" transform="translate(156,428)"/>
<path d="M0 0 C0.94213348 0.0136409 1.88426697 0.0272818 2.85494995 0.04133606 C3.87879791 0.06209702 4.90264587 0.08285797 5.95751953 0.10424805 C7.01383575 0.12311569 8.07015198 0.14198334 9.15847778 0.16142273 C11.40306726 0.20338414 13.64760612 0.24812919 15.89208984 0.29541016 C19.2914038 0.36496565 22.69073516 0.41971343 26.09033203 0.47338867 C28.27524589 0.51609622 30.46014265 0.55968927 32.64501953 0.60424805 C33.64862518 0.61893631 34.65223083 0.63362457 35.68624878 0.64875793 C42.7551127 0.81644796 49.52257238 1.72833076 56.46533203 3.0534668 C56.46533203 3.3834668 56.46533203 3.7134668 56.46533203 4.0534668 C55.47315674 4.04822998 54.48098145 4.04299316 53.45874023 4.03759766 C49.71444633 4.01925211 45.97015624 4.00792885 42.22583008 3.99853516 C40.61709928 3.99356152 39.00837287 3.98678023 37.3996582 3.97802734 C28.60855916 3.93145561 19.97110649 4.10686696 11.20629883 4.88232422 C7.55548154 5.11027674 4.328673 4.80912788 0.71533203 4.2409668 C-0.45513672 4.06952148 -1.62560547 3.89807617 -2.83154297 3.72143555 C-3.72357422 3.50100586 -4.61560547 3.28057617 -5.53466797 3.0534668 C-5.86466797 2.3934668 -6.19466797 1.7334668 -6.53466797 1.0534668 C-4.12544025 -0.15114706 -2.68770752 -0.04519143 0 0 Z " fill="#7F7F7F" transform="translate(117.53466796875,422.946533203125)"/>
<path d="M0 0 C0.9075 0.680625 1.815 1.36125 2.75 2.0625 C5.71472615 4.26982809 5.71472615 4.26982809 8.375 3.75 C8.91125 3.5025 9.4475 3.255 10 3 C10 3.66 10 4.32 10 5 C12.97 5.495 12.97 5.495 16 6 C16.66 8.31 17.32 10.62 18 13 C19.98 12.34 21.96 11.68 24 11 C25.65 12.65 27.3 14.3 29 16 C28.67 16.99 28.34 17.98 28 19 C22.21464494 19.87326114 19.35023734 18.96786248 14.5625 15.5625 C9.34690358 11.47597823 4.27189665 7.08408441 0 2 C0 1.34 0 0.68 0 0 Z " fill="#ACACAC" transform="translate(38,390)"/>
<path d="M0 0 C2 1 2 1 2.6328125 2.6796875 C4.01479115 8.84375098 4.21206472 14.69696525 4 21 C4.66 21.33 5.32 21.66 6 22 C6.66 21.34 7.32 20.68 8 20 C8.103125 21.0725 8.20625 22.145 8.3125 23.25 C8.97400493 26.85820872 9.57483421 28.36395023 12 31 C10.68 31.33 9.36 31.66 8 32 C-5.21125337 12.65902965 -5.21125337 12.65902965 -4 2 C-2.68 2.33 -1.36 2.66 0 3 C0 2.01 0 1.02 0 0 Z " fill="#CFCFCF" transform="translate(28,357)"/>
<path d="M0 0 C3.5625 0.1875 3.5625 0.1875 5.5625 2.1875 C3.78102702 3.96897298 1.10370228 3.525261 -1.3125 3.6875 C-4.62468188 3.91097251 -7.28126196 4.13542065 -10.4375 5.1875 C-11.49553833 4.97395874 -11.49553833 4.97395874 -12.57495117 4.75610352 C-16.48079392 3.9802649 -20.26655041 4.06439142 -24.23828125 4.08984375 C-25.4928437 4.09196617 -25.4928437 4.09196617 -26.77275085 4.09413147 C-29.431871 4.09970816 -32.0909055 4.11225635 -34.75 4.125 C-36.55794149 4.13001801 -38.3658843 4.13458039 -40.17382812 4.13867188 C-44.59508484 4.14966996 -49.01627793 4.1669185 -53.4375 4.1875 C-53.4375 3.5275 -53.4375 2.8675 -53.4375 2.1875 C-40.36093264 1.26522321 -27.33426131 1.10274566 -14.23193359 1.22460938 C-12.97719238 1.23298828 -11.72245117 1.24136719 -10.4296875 1.25 C-8.73368408 1.26740234 -8.73368408 1.26740234 -7.00341797 1.28515625 C-3.73580053 1.16079403 -3.55662367 0.19399765 0 0 Z " fill="#B0B0B0" transform="translate(306.4375,271.8125)"/>
<path d="M0 0 C10.38437306 -0.1492961 20.74597292 0.09973618 31.125 0.4375 C32.99889404 0.49635376 32.99889404 0.49635376 34.91064453 0.55639648 C43.2942359 0.8428881 51.63750514 1.34479587 60 2 C60 2.33 60 2.66 60 3 C52.1162993 3.0253547 44.23260912 3.04286889 36.34887695 3.05493164 C33.66689899 3.05939552 30.98494471 3.06635359 28.30297852 3.07543945 C24.44807254 3.08756853 20.59320282 3.09324287 16.73828125 3.09765625 C15.53915604 3.10281754 14.34003082 3.10797882 13.10456848 3.11329651 C11.4233918 3.11340981 11.4233918 3.11340981 9.70825195 3.11352539 C8.72452103 3.115746 7.7407901 3.11796661 6.72724915 3.12025452 C4.0512648 3.00226045 1.60665662 2.59948333 -1 2 C-0.67 1.34 -0.34 0.68 0 0 Z " fill="#515151" transform="translate(156,428)"/>
<path d="M0 0 C2 1.375 2 1.375 4 3 C4 3.66 4 4.32 4 5 C4.55171875 5.226875 5.1034375 5.45375 5.671875 5.6875 C8.68692417 7.38725926 10.81230369 9.54804816 13.25 12 C14.14203125 12.886875 15.0340625 13.77375 15.953125 14.6875 C18 17 18 17 18 19 C18.99 19.33 19.98 19.66 21 20 C20.34 20.66 19.68 21.32 19 22 C17.65737935 21.70630173 16.32303717 21.3721042 15 21 C14.34 21.33 13.68 21.66 13 22 C12.34 21.34 11.68 20.68 11 20 C11.66 20 12.32 20 13 20 C11.84826645 17.53199953 10.95216435 15.95216435 9 14 C9.33 13.34 9.66 12.68 10 12 C9.34 12 8.68 12 8 12 C7.67 11.01 7.34 10.02 7 9 C6.34 8.67 5.68 8.34 5 8 C4.67 8.99 4.34 9.98 4 11 C2.0625 10.375 2.0625 10.375 0 9 C-0.99184231 5.41410857 -1.18429132 3.55287397 0 0 Z " fill="#A6A6A6" transform="translate(129,274)"/>
<path d="M0 0 C6.78376359 5.55035203 12.85522968 11.76442027 19 18 C18.34 18.33 17.68 18.66 17 19 C17 19.66 17 20.32 17 21 C16.01 21.33 15.02 21.66 14 22 C13.34 22.66 12.68 23.32 12 24 C8.92307692 19.69230769 8.92307692 19.69230769 9.3125 16.1875 C9.539375 15.465625 9.76625 14.74375 10 14 C9.34 14 8.68 14 8 14 C7.525625 13.195625 7.05125 12.39125 6.5625 11.5625 C5.20016328 8.7081924 5.20016328 8.7081924 2 8 C2 7.01 2 6.02 2 5 C1.34 4.67 0.68 4.34 0 4 C0 2.68 0 1.36 0 0 Z " fill="#BABABA" transform="translate(199,344)"/>
<path d="M0 0 C9.8668257 -0.04649637 19.73362499 -0.08195672 29.60053825 -0.10362434 C34.1829505 -0.11402769 38.76528737 -0.12812338 43.34765625 -0.15087891 C47.77618264 -0.17273094 52.20463686 -0.18459452 56.63321304 -0.18975449 C58.31635803 -0.19342817 59.99949941 -0.20060151 61.68261337 -0.21146011 C70.28868966 -0.26473566 78.62789374 -0.30960864 87 2 C87 2.33 87 2.66 87 3 C83.04 3 79.08 3 75 3 C75 2.34 75 1.68 75 1 C50.25 1 25.5 1 0 1 C0 0.67 0 0.34 0 0 Z " fill="#707070" transform="translate(200,428)"/>
<path d="M0 0 C0 0.99 0 1.98 0 3 C-12.38506743 9.77637383 -12.38506743 9.77637383 -18.3125 8.375 C-19.529375 7.92125 -20.74625 7.4675 -22 7 C-19.64756869 4.64756869 -17.81713547 4.08414977 -14.6875 3 C-11.85162534 2.00957174 -9.05551692 1.02351869 -6.2890625 -0.1484375 C-3.69611223 -1.1130504 -2.55329991 -0.94566663 0 0 Z " fill="#939393" transform="translate(388,407)"/>
<path d="M0 0 C1.10312408 2.75781019 1.07561442 3.80925835 -0.0390625 6.62109375 C-2.91920305 11.73582611 -5.51266269 16.17256523 -10 20 C-10.99 19.34 -11.98 18.68 -13 18 C-11.35 17.34 -9.7 16.68 -8 16 C-8.21011719 15.44570313 -8.42023438 14.89140625 -8.63671875 14.3203125 C-9.1259621 11.19546791 -8.23543425 9.67079456 -6.8125 6.875 C-6.38582031 6.00617188 -5.95914062 5.13734375 -5.51953125 4.2421875 C-3.87425737 1.8144569 -2.70411339 1.0306899 0 0 Z M-16 19 C-15.34 19.66 -14.68 20.32 -14 21 C-14.99 21.66 -15.98 22.32 -17 23 C-16.67 21.68 -16.34 20.36 -16 19 Z " fill="#C3C3C3" transform="translate(419,372)"/>
<path d="M0 0 C5.66129431 4.69766975 10.85228904 9.74723372 16 15 C15.67 15.99 15.34 16.98 15 18 C14.34 17.67 13.68 17.34 13 17 C12.34 17.66 11.68 18.32 11 19 C10.7525 18.030625 10.505 17.06125 10.25 16.0625 C9.63125 14.5465625 9.63125 14.5465625 9 13 C6.96756452 12.03122943 6.96756452 12.03122943 5 12 C4.87625 11.071875 4.87625 11.071875 4.75 10.125 C3.76174558 7.32494581 2.59640015 7.25886068 0 6 C-1.25 3.875 -1.25 3.875 -2 2 C-1.34 1.34 -0.68 0.68 0 0 Z " fill="#A8A8A8" transform="translate(153,298)"/>
<path d="M0 0 C0.74900574 0.0028299 1.49801147 0.00565979 2.26971436 0.00857544 C4.65393276 0.0197399 7.03777079 0.04483719 9.421875 0.0703125 C11.04166123 0.08034715 12.66145336 0.08947215 14.28125 0.09765625 C18.24493746 0.11966695 22.20834181 0.15417075 26.171875 0.1953125 C19.71886599 4.4973185 10.42019443 3.29167045 2.859375 3.3203125 C1.55141968 3.32732178 1.55141968 3.32732178 0.21704102 3.33447266 C-3.92546641 3.32409343 -7.78944186 3.2445374 -11.828125 2.1953125 C-8.06917964 -0.26245947 -4.32858954 -0.06179565 0 0 Z " fill="#5A5A5A" transform="translate(288.828125,426.8046875)"/>
<path d="M0 0 C0.33 0 0.66 0 1 0 C1.85976146 3.73480376 2.1632868 7.23197154 2.1875 11.0625 C2.20167969 12.08472656 2.21585937 13.10695313 2.23046875 14.16015625 C2.00158808 16.98043159 1.45275779 18.6055336 0 21 C-0.66 18.69 -1.32 16.38 -2 14 C-3.96189209 17.6678852 -5.39301257 20.87248551 -6 25 C-6.33 25 -6.66 25 -7 25 C-7.17012398 20.57677653 -6.9973297 17.88328414 -5 14 C-4.64509516 12.53043107 -4.33316887 11.04988988 -4.0625 9.5625 C-3.29629675 5.87742721 -2.27620344 3.06792638 0 0 Z " fill="#DCDCDC" transform="translate(426,334)"/>
<path d="M0 0 C8.04311287 -0.50858091 15.65930743 0.6199075 23.57250977 1.86035156 C31.15573828 2.99713039 38.67256914 3.45588579 46.33544922 3.62084961 C47.58092529 3.65577515 47.58092529 3.65577515 48.8515625 3.69140625 C49.94718506 3.70989624 49.94718506 3.70989624 51.06494141 3.72875977 C53 4 53 4 56 6 C51.74564921 5.8820238 47.49154179 5.7577963 43.23754883 5.62768555 C41.7893576 5.5842837 40.34111346 5.54261256 38.89282227 5.50268555 C36.81510441 5.44510938 34.73765427 5.38137972 32.66015625 5.31640625 C30.78275757 5.26141968 30.78275757 5.26141968 28.86743164 5.20532227 C26 5 26 5 25 4 C22.32939127 3.78916247 19.6747865 3.62408803 17 3.5 C9.13513514 3.13513514 9.13513514 3.13513514 8 2 C6.65252916 1.76924918 5.29622435 1.58846937 3.9375 1.4375 C2.638125 1.293125 1.33875 1.14875 0 1 C0 0.67 0 0.34 0 0 Z " fill="#949494" transform="translate(105,419)"/>
<path d="M0 0 C15.84 0 31.68 0 48 0 C47.67 0.99 47.34 1.98 47 3 C36.88131124 3.17935637 26.84336552 2.61421746 16.75 2 C15.11850863 1.90332384 13.48699828 1.80696747 11.85546875 1.7109375 C7.90341771 1.47763785 3.95164741 1.24003545 0 1 C0 0.67 0 0.34 0 0 Z " fill="#AFAFAF" transform="translate(261,175)"/>
<path d="M0 0 C3.65316671 1.24976756 4.78065836 1.67098753 7 5 C6.67 5.99 6.34 6.98 6 8 C0.63245971 8.5750936 -2.11258719 8.34522494 -6.5 5.0625 C-8.53125 3.41015625 -8.53125 3.41015625 -10 2 C-10 1.67 -10 1.34 -10 1 C-7 1 -4 1 -1 1 C-0.67 0.67 -0.34 0.34 0 0 Z " fill="#979797" transform="translate(60,401)"/>
<path d="M0 0 C0.69222656 0.59748047 0.69222656 0.59748047 1.3984375 1.20703125 C6.62104158 5.44910689 11.4722806 7.47508194 18 9 C16.0625 11.1875 16.0625 11.1875 13 13 C9.79800653 12.47287673 6.97087861 11.27402847 4 10 C3.01 9.67 2.02 9.34 1 9 C1.33 7.68 1.66 6.36 2 5 C1.34 4.67 0.68 4.34 0 4 C0 2.68 0 1.36 0 0 Z " fill="#A7A7A7" transform="translate(216,167)"/>
<path d="M0 0 C5.63624342 -0.23952163 10.48573392 0.61720415 15.9375 2 C16.71673828 2.19078125 17.49597656 2.3815625 18.29882812 2.578125 C20.20099248 3.0449138 22.10076009 3.52145136 24 4 C22 6 22 6 18.6875 6.3125 C12.73116267 6.15864627 6.60489262 4.99998371 1 3 C0.67 2.01 0.34 1.02 0 0 Z " fill="#676767" transform="translate(88,418)"/>
<path d="M0 0 C0.66 0.33 1.32 0.66 2 1 C2 2.65 2 4.3 2 6 C2.66 5.67 3.32 5.34 4 5 C4.99 6.485 4.99 6.485 6 8 C6.99 8 7.98 8 9 8 C9 9.65 9 11.3 9 13 C12.04913228 14.01111093 12.04913228 14.01111093 15 13 C15 14.65 15 16.3 15 18 C9.43572085 17.75898603 6.78146531 14.23981113 3.1875 10.4375 C2.59001953 9.82197266 1.99253906 9.20644531 1.37695312 8.57226562 C-0.0912621 7.05706751 -1.54689553 5.52969562 -3 4 C-2.01 2.68 -1.02 1.36 0 0 Z " fill="#0A0A0A" transform="translate(209,153)"/>
<path d="M0 0 C0.54460876 0.32342377 1.08921753 0.64684753 1.65032959 0.98007202 C4.45375227 2.19696151 6.54191423 2.27759344 9.59472656 2.31884766 C10.71558655 2.33871735 11.83644653 2.35858704 12.99127197 2.37905884 C14.19555847 2.39061005 15.39984497 2.40216125 16.640625 2.4140625 C18.49660309 2.44311172 18.49660309 2.44311172 20.39007568 2.4727478 C23.67138571 2.52237989 26.95266112 2.56366067 30.23413086 2.60089111 C33.58588276 2.64097656 36.93744345 2.69221225 40.2890625 2.7421875 C46.85926609 2.83824493 53.42954355 2.92329277 60 3 C60 3.33 60 3.66 60 4 C39.87 4 19.74 4 -1 4 C-0.67 2.68 -0.34 1.36 0 0 Z " fill="#F9F9F9" transform="translate(146,73)"/>
<path d="M0 0 C5.44265823 0.10558949 10.75061861 0.5445354 16.15234375 1.23046875 C16.48234375 2.22046875 16.81234375 3.21046875 17.15234375 4.23046875 C2.37102257 4.59948925 2.37102257 4.59948925 -3.84765625 2.23046875 C-1.84765625 0.23046875 -1.84765625 0.23046875 0 0 Z " fill="#636363" transform="translate(114.84765625,422.76953125)"/>
<path d="M0 0 C2.475 0.99 2.475 0.99 5 2 C4.67 3.65 4.34 5.3 4 7 C4.66 7 5.32 7 6 7 C6.33 8.32 6.66 9.64 7 11 C7.66 11 8.32 11 9 11 C9.33 10.34 9.66 9.68 10 9 C10.5534764 11.07553648 11 12.84365964 11 15 C6.70772058 14.53730015 4.97077935 12.09840542 2.25 8.9375 C1.45078125 8.01839844 0.6515625 7.09929687 -0.171875 6.15234375 C-0.77515625 5.44207031 -1.3784375 4.73179688 -2 4 C-1.67 3.34 -1.34 2.68 -1 2 C-0.67 2 -0.34 2 0 2 C0 1.34 0 0.68 0 0 Z " fill="#131313" transform="translate(141,85)"/>
<path d="M0 0 C1.32 0 2.64 0 4 0 C4 0.66 4 1.32 4 2 C10.43028541 3.32388229 16.4294834 4.24794402 23 4 C23 4.66 23 5.32 23 6 C24.134375 6.12375 25.26875 6.2475 26.4375 6.375 C27.613125 6.58125 28.78875 6.7875 30 7 C30.33 7.66 30.66 8.32 31 9 C20.30304219 8.09347815 10.10214441 5.59567852 0 2 C0 1.34 0 0.68 0 0 Z " fill="#989898" transform="translate(68,408)"/>
<path d="M0 0 C1.32 0.33 2.64 0.66 4 1 C3.67 3.64 3.34 6.28 3 9 C2.34 8.67 1.68 8.34 1 8 C-1.08333333 8.16666667 -1.08333333 8.16666667 -3 9 C-3.33 9.99 -3.66 10.98 -4 12 C-4.66 12 -5.32 12 -6 12 C-6 10.35 -6 8.7 -6 7 C-5.34 7 -4.68 7 -4 7 C-4 6.34 -4 5.68 -4 5 C-3.34 5 -2.68 5 -2 5 C-1.34 3.35 -0.68 1.7 0 0 Z " fill="#D0D0D0" transform="translate(418,365)"/>
<path d="M0 0 C0.33 0 0.66 0 1 0 C1.17835515 4.54805635 0.99785435 7.8794254 -1 12 C-3.37948772 11.82374165 -4.70225849 11.30280227 -6.37890625 9.59765625 C-7.62115486 8.09350908 -8.81376056 6.54870149 -10 5 C-7.69 5 -5.38 5 -3 5 C-2.67 3.68 -2.34 2.36 -2 1 C-1.67 1.33 -1.34 1.66 -1 2 C-0.67 1.34 -0.34 0.68 0 0 Z " fill="#151515" transform="translate(223,352)"/>
<path d="M0 0 C0.79277344 0.01353516 1.58554688 0.02707031 2.40234375 0.04101562 C4.35185564 0.07624777 6.30101626 0.13005179 8.25 0.1875 C8.25 0.5175 8.25 0.8475 8.25 1.1875 C3.3 1.1875 -1.65 1.1875 -6.75 1.1875 C-6.75 1.8475 -6.75 2.5075 -6.75 3.1875 C-6.09 3.5175 -5.43 3.8475 -4.75 4.1875 C-5.74 5.6725 -5.74 5.6725 -6.75 7.1875 C-7.41 6.8575 -8.07 6.5275 -8.75 6.1875 C-8.42 7.8375 -8.09 9.4875 -7.75 11.1875 C-9.6875 10.5625 -9.6875 10.5625 -11.75 9.1875 C-12.5 6.0625 -12.5 6.0625 -12.75 3.1875 C-8.95853035 -0.69569875 -5.06357505 -0.16374745 0 0 Z " fill="#404040" transform="translate(149.75,77.8125)"/>
<path d="M0 0 C3.68069887 1.53643852 5.98775204 3.78150945 8.75 6.625 C9.54921875 7.44226563 10.3484375 8.25953125 11.171875 9.1015625 C12.07679688 10.04128906 12.07679688 10.04128906 13 11 C12.67 11.99 12.34 12.98 12 14 C11.34 14 10.68 14 10 14 C9.67 14.66 9.34 15.32 9 16 C9 14.02 9 12.04 9 10 C7.35 9.67 5.7 9.34 4 9 C4.33 8.01 4.66 7.02 5 6 C4.01 6.33 3.02 6.66 2 7 C1.01 5.02 0.02 3.04 -1 1 C-0.67 0.67 -0.34 0.34 0 0 Z " fill="#A5A5A5" transform="translate(186,332)"/>
<path d="M0 0 C0.97453125 0.01353516 1.9490625 0.02707031 2.953125 0.04101562 C5.34432863 0.07618038 7.73436975 0.1253933 10.125 0.1875 C7.1038566 2.2015956 6.31839983 2.45586596 2.89453125 2.6015625 C2.09208984 2.64023437 1.28964844 2.67890625 0.46289062 2.71875 C-0.37048828 2.7496875 -1.20386719 2.780625 -2.0625 2.8125 C-2.90748047 2.85117187 -3.75246094 2.88984375 -4.62304688 2.9296875 C-6.70667524 3.02386279 -8.79080753 3.10676675 -10.875 3.1875 C-11.205 3.8475 -11.535 4.5075 -11.875 5.1875 C-13.525 5.1875 -15.175 5.1875 -16.875 5.1875 C-16.875 4.5275 -16.875 3.8675 -16.875 3.1875 C-11.29023931 -0.39464448 -6.39242747 -0.1689056 0 0 Z " fill="#888888" transform="translate(241.875,271.8125)"/>
<path d="M0 0 C-1 3 -1 3 -2.875 4 C-3.57625 4.33 -4.2775 4.66 -5 5 C-5.6496875 5.7115625 -5.6496875 5.7115625 -6.3125 6.4375 C-9.53768285 9.42378041 -13.88678385 10.62892795 -18 12 C-18 11.01 -18 10.02 -18 9 C-15.37785672 7.49480613 -12.75255792 5.99568681 -10.125 4.5 C-9.37863281 4.07074219 -8.63226563 3.64148437 -7.86328125 3.19921875 C-7.14785156 2.79316406 -6.43242188 2.38710938 -5.6953125 1.96875 C-5.03547363 1.59169922 -4.37563477 1.21464844 -3.69580078 0.82617188 C-2 0 -2 0 0 0 Z " fill="#F5F5F5" transform="translate(68,32)"/>
<path d="M0 0 C4.43677521 -0.43497796 6.36663666 -0.47502251 10 2.25 C12 5 12 5 11.8125 7.3125 C11.544375 7.869375 11.27625 8.42625 11 9 C10.67 8.34 10.34 7.68 10 7 C8.68 7.99 7.36 8.98 6 10 C4 7 4 7 4.375 3.8125 C4.58125 2.884375 4.7875 1.95625 5 1 C3.35 1 1.7 1 0 1 C0 0.67 0 0.34 0 0 Z " fill="#393939" transform="translate(309,78)"/>
<path d="M0 0 C1.078125 1.83203125 1.078125 1.83203125 2 4 C1.05698138 6.02749004 0.04451438 8.02288349 -1 10 C-1.34876661 11.55480685 -1.65985635 13.11843133 -1.9375 14.6875 C-2.56085519 17.85222637 -2.74026316 18.74790248 -5.125 21.0625 C-6.053125 21.5265625 -6.053125 21.5265625 -7 22 C-5.56006454 14.27670981 -2.94467554 7.2717751 0 0 Z " fill="#F4F4F4" transform="translate(29,68)"/>
<path d="M0 0 C-0.33 0.66 -0.66 1.32 -1 2 C-11.67880252 5.46686575 -23.94920713 4.19175161 -35 4 C-35 3.67 -35 3.34 -35 3 C-34.39526855 2.98018066 -33.79053711 2.96036133 -33.16748047 2.93994141 C-30.40291491 2.84413701 -27.63904826 2.73468445 -24.875 2.625 C-23.44800781 2.57859375 -23.44800781 2.57859375 -21.9921875 2.53125 C-14.32955168 2.21197351 -7.66971471 -0.26447292 0 0 Z " fill="#9C9C9C" transform="translate(320,420)"/>
<path d="M0 0 C1.98 0 3.96 0 6 0 C7 3 7 3 6.0625 5.1875 C5.5365625 6.0846875 5.5365625 6.0846875 5 7 C5.66 7.33 6.32 7.66 7 8 C6.67 9.32 6.34 10.64 6 12 C4.8274869 11.04882866 3.66212985 10.08882991 2.5 9.125 C1.8503125 8.59132812 1.200625 8.05765625 0.53125 7.5078125 C0.0259375 7.01023438 -0.479375 6.51265625 -1 6 C-1 5.34 -1 4.68 -1 4 C-0.01 3.34 0.98 2.68 2 2 C1.34 1.34 0.68 0.68 0 0 Z " fill="#B1B1B1" transform="translate(230,175)"/>
<path d="M0 0 C2.24226443 3.36339665 3.42592747 6.76340552 4.6875 10.5625 C4.92533203 11.24763672 5.16316406 11.93277344 5.40820312 12.63867188 C5.99980093 14.40652572 6.5063209 16.20234149 7 18 C6.67 18.66 6.34 19.32 6 20 C3.49974903 18.04328185 3.02534041 17.15521003 2.5 13.9375 C2.335 12.968125 2.17 11.99875 2 11 C1.01 10.34 0.02 9.68 -1 9 C-1.47114738 6.2572492 -1.17805784 3.80441103 -1 1 C-0.67 0.67 -0.34 0.34 0 0 Z " fill="#F5F5F5" transform="translate(420,72)"/>
<path d="M0 0 C4.90287065 -0.29804685 8.3463586 0.65157494 12.875 2.5 C14.02742188 2.9640625 15.17984375 3.428125 16.3671875 3.90625 C17.23601562 4.2671875 18.10484375 4.628125 19 5 C19 5.33 19 5.66 19 6 C5.18223235 5.40546697 5.18223235 5.40546697 0 2 C0 1.34 0 0.68 0 0 Z " fill="#898989" transform="translate(60,408)"/>
<path d="M0 0 C5.28 0 10.56 0 16 0 C15.67 0.66 15.34 1.32 15 2 C10.69185156 3.01631395 6.53608185 3.10751104 2.125 3.0625 C0.97257812 3.05347656 -0.17984375 3.04445313 -1.3671875 3.03515625 C-2.23601562 3.02355469 -3.10484375 3.01195312 -4 3 C-2.68 2.67 -1.36 2.34 0 2 C0 1.34 0 0.68 0 0 Z " fill="#616161" transform="translate(321,424)"/>
<path d="M0 0 C2.56280208 0.14154136 5.12515485 0.28808562 7.6875 0.4375 C8.40873047 0.47681641 9.12996094 0.51613281 9.87304688 0.55664062 C13.66707282 0.78185678 17.28651492 1.12839305 21 2 C21 2.66 21 3.32 21 4 C4.45708055 4.30509483 4.45708055 4.30509483 1.27734375 1.45703125 C0.85582031 0.97621094 0.43429688 0.49539063 0 0 Z " fill="#888888" transform="translate(84,415)"/>
<path d="M0 0 C1.8871875 0.0309375 1.8871875 0.0309375 3.8125 0.0625 C3.8125 1.0525 3.8125 2.0425 3.8125 3.0625 C-0.01070557 4.48508812 -3.10031305 5.30292276 -7.1875 5.0625 C-7.5175 4.4025 -7.8475 3.7425 -8.1875 3.0625 C-6.45706736 -0.39836529 -3.47359009 -0.0569441 0 0 Z " fill="#757575" transform="translate(368.1875,413.9375)"/>
<path d="M0 0 C4.88049925 3.9419417 9.0580583 8.11950075 13 13 C12.01 13.495 12.01 13.495 11 14 C9.68103535 13.07161713 8.37001311 12.13194268 7.0625 11.1875 C6.33160156 10.66542969 5.60070312 10.14335937 4.84765625 9.60546875 C3 8 3 8 2 5 C1.34 4.67 0.68 4.34 0 4 C0 2.68 0 1.36 0 0 Z " fill="#A5A5A5" transform="translate(199,344)"/>
<path d="M0 0 C3.29158865 -0.05905417 6.58303756 -0.09394375 9.875 -0.125 C10.7928125 -0.14175781 11.710625 -0.15851563 12.65625 -0.17578125 C19.00812606 -0.22051277 24.82610036 0.51148437 31 2 C31 2.33 31 2.66 31 3 C27.04 3 23.08 3 19 3 C19 2.34 19 1.68 19 1 C12.73 1 6.46 1 0 1 C0 0.67 0 0.34 0 0 Z " fill="#676767" transform="translate(256,428)"/>
<path d="M0 0 C9.17286652 0.35010941 9.17286652 0.35010941 12.625 3.0625 C13.07875 3.701875 13.5325 4.34125 14 5 C13.01 5.33 12.02 5.66 11 6 C11 5.34 11 4.68 11 4 C9.6078125 4.2475 9.6078125 4.2475 8.1875 4.5 C5 5 5 5 2 5 C1.34 4.34 0.68 3.68 0 3 C0 2.01 0 1.02 0 0 Z " fill="#3C3C3C" transform="translate(214,178)"/>
<path d="M0 0 C-3.27345993 3.27345993 -7.7972852 3.88053072 -12.3046875 4.125 C-14.20358219 4.125 -16.10231518 4.06777446 -18 4 C-17 2 -17 2 -13.9375 0.9375 C-3.5390625 -1.76953125 -3.5390625 -1.76953125 0 0 Z " fill="#ACACAC" transform="translate(362,412)"/>
<path d="M0 0 C0.103125 1.0725 0.20625 2.145 0.3125 3.25 C0.97400493 6.85820872 1.57483421 8.36395023 4 11 C2.68 11.33 1.36 11.66 0 12 C-4 6.375 -4 6.375 -4 3 C-1.44444444 0 -1.44444444 0 0 0 Z " fill="#BBBBBB" transform="translate(36,377)"/>
<path d="M0 0 C0.66 0 1.32 0 2 0 C2 0.99 2 1.98 2 3 C2.99 2.67 3.98 2.34 5 2 C5.433125 2.763125 5.86625 3.52625 6.3125 4.3125 C7.83752358 6.96286253 7.83752358 6.96286253 9.6875 8.6875 C10.120625 9.120625 10.55375 9.55375 11 10 C11 10.66 11 11.32 11 12 C7.86989542 10.60807296 5.67663308 8.97357774 3.25 6.5625 C2.63640625 5.96566406 2.0228125 5.36882812 1.390625 4.75390625 C0 3 0 3 0 0 Z " fill="#0A0A0A" transform="translate(179,127)"/>
<path d="M0 0 C1.9375 1.0625 1.9375 1.0625 4 3 C4.75 6.6875 4.75 6.6875 5 10 C2 10 2 10 0.3125 8.875 C-1.55219419 6.21115115 -1.27580792 4.17179104 -1 1 C-0.67 0.67 -0.34 0.34 0 0 Z " fill="#C1C1C1" transform="translate(129,274)"/>
<path d="M0 0 C0.70189453 0.01353516 1.40378906 0.02707031 2.12695312 0.04101562 C3.85579829 0.07629818 5.58424765 0.13010417 7.3125 0.1875 C7.3125 0.5175 7.3125 0.8475 7.3125 1.1875 C1.15879161 3.010821 -4.28396678 3.4236959 -10.6875 3.1875 C-7.97885416 -0.76650025 -4.33266512 -0.15777212 0 0 Z " fill="#ABABAB" transform="translate(336.6875,415.8125)"/>
<path d="M0 0 C-0.99 0 -1.98 0 -3 0 C-3.33 0.99 -3.66 1.98 -4 3 C-4.99 3.33 -5.98 3.66 -7 4 C-8.22520264 7.00847418 -8.22520264 7.00847418 -9 10 C-9.33 10 -9.66 10 -10 10 C-10.125 2.25 -10.125 2.25 -9 0 C-5.65506316 -0.99444068 -3.31044803 -1.10348268 0 0 Z " fill="#A7A7A7" transform="translate(234,277)"/>
<path d="M0 0 C0.33 0.33 0.66 0.66 1 1 C2.34747084 1.23075082 3.70377565 1.41153063 5.0625 1.5625 C6.361875 1.706875 7.66125 1.85125 9 2 C9 2.33 9 2.66 9 3 C6.22890693 3.05392397 3.45886182 3.09363455 0.6875 3.125 C-0.09818359 3.14175781 -0.88386719 3.15851563 -1.69335938 3.17578125 C-2.45068359 3.18222656 -3.20800781 3.18867188 -3.98828125 3.1953125 C-5.03302612 3.21102295 -5.03302612 3.21102295 -6.09887695 3.22705078 C-8 3 -8 3 -11 1 C-7.28738544 0.30928101 -3.78074281 -0.21604245 0 0 Z " fill="#565656" transform="translate(144,426)"/>
<path d="M0 0 C1.17539996 0.92652701 2.34010577 1.86663387 3.5 2.8125 C4.1496875 3.33457031 4.799375 3.85664063 5.46875 4.39453125 C7 6 7 6 7 9 C6.34 9 5.68 9 5 9 C5 8.34 5 7.68 5 7 C2.03 6.505 2.03 6.505 -1 6 C-1.33 4.35 -1.66 2.7 -2 1 C-1.34 0.67 -0.68 0.34 0 0 Z " fill="#A6A6A6" transform="translate(170,315)"/>
<path d="M0 0 C3.18673962 1.40301147 5.32221406 3.07765071 7.75 5.5625 C8.67039063 6.49255859 8.67039063 6.49255859 9.609375 7.44140625 C11 9 11 9 11 10 C9.02 10 7.04 10 5 10 C5.33 9.01 5.66 8.02 6 7 C5.34 7 4.68 7 4 7 C3.67 6.01 3.34 5.02 3 4 C0.99983534 2.79117904 0.99983534 2.79117904 -1 2 C-0.67 1.34 -0.34 0.68 0 0 Z " fill="#A5A5A5" transform="translate(133,279)"/>
<path d="M0 0 C0.33 1.32 0.66 2.64 1 4 C0.38125 4.12375 -0.2375 4.2475 -0.875 4.375 C-3.19120832 4.87197356 -3.19120832 4.87197356 -5 7 C-5.39764263 8.98821313 -5.73775349 10.98944339 -6 13 C-6.66 13 -7.32 13 -8 13 C-7.63282337 5.77885953 -7.63282337 5.77885953 -4.5625 2 C-2 0 -2 0 0 0 Z " fill="#383838" transform="translate(135,175)"/>
<path d="M0 0 C4.29 0 8.58 0 13 0 C12.67 0.99 12.34 1.98 12 3 C8.04 3 4.08 3 0 3 C0 2.01 0 1.02 0 0 Z " fill="#B9B9B9" transform="translate(296,175)"/>
<path d="M0 0 C-1.265625 1.4921875 -1.265625 1.4921875 -3 3 C-4.95208421 3.06506947 -6.90782552 3.11857007 -8.859375 3.0390625 C-11.98812769 2.98196847 -14.91781969 3.48630328 -18 4 C-17.67 3.01 -17.34 2.02 -17 1 C-11.29309366 0.00749455 -5.78591511 -0.10477512 0 0 Z " fill="#ACACAC" transform="translate(323,418)"/>
<path d="M0 0 C2.475 0.99 2.475 0.99 5 2 C5 2.99 5 3.98 5 5 C4.34 5 3.68 5 3 5 C2.01 6.485 2.01 6.485 1 8 C-0.5625 6.75 -0.5625 6.75 -2 5 C-1.74853421 2.86254078 -1.54074221 1.54074221 0 0 Z " fill="#DFDFDF" transform="translate(282,226)"/>
<path d="M0 0 C0.99 0.33 1.98 0.66 3 1 C2.43628586 4.26954202 1.50037734 5.82575883 -1 8 C-1.99 7.34 -2.98 6.68 -4 6 C-2.35 5.34 -0.7 4.68 1 4 C0.67 2.68 0.34 1.36 0 0 Z M-7 7 C-6.34 7.66 -5.68 8.32 -5 9 C-5.99 9.66 -6.98 10.32 -8 11 C-7.67 9.68 -7.34 8.36 -7 7 Z " fill="#B8B8B8" transform="translate(410,384)"/>
<path d="M0 0 C0.99 0.33 1.98 0.66 3 1 C4.47666292 4.49029418 4.07164685 8.27436386 4 12 C3.67 12 3.34 12 3 12 C2.67 10.35 2.34 8.7 2 7 C1.01 7.99 0.02 8.98 -1 10 C-0.67 6.7 -0.34 3.4 0 0 Z " fill="#DBDBDB" transform="translate(425,326)"/>
<path d="M0 0 C1.17539996 0.92652701 2.34010577 1.86663387 3.5 2.8125 C4.1496875 3.33457031 4.799375 3.85664062 5.46875 4.39453125 C7 6 7 6 7 9 C4.625 8.6875 4.625 8.6875 2 8 C-0.1519437 4.77208445 -0.20086443 3.71599191 0 0 Z " fill="#AFAFAF" transform="translate(168,119)"/>
<path d="M0 0 C0 0.66 0 1.32 0 2 C-4.38461538 5 -4.38461538 5 -7 5 C-6.67 3.35 -6.34 1.7 -6 0 C-3 -1 -3 -1 0 0 Z " fill="#929292" transform="translate(396,403)"/>
<path d="M0 0 C4.67692308 1.47692308 4.67692308 1.47692308 6.3125 4.125 C6.539375 4.74375 6.76625 5.3625 7 6 C4.125 5.75 4.125 5.75 1 5 C-0.375 2.9375 -0.375 2.9375 -1 1 C-0.67 0.67 -0.34 0.34 0 0 Z " fill="#AAAAAA" transform="translate(60,401)"/>
<path d="M0 0 C0.99 0 1.98 0 3 0 C2.71788123 1.6266848 2.42397625 3.25132896 2.125 4.875 C1.96257813 5.77992187 1.80015625 6.68484375 1.6328125 7.6171875 C1 10 1 10 -1 12 C-0.67 8.04 -0.34 4.08 0 0 Z " fill="#F1F1F1" transform="translate(21,91)"/>
<path d="M0 0 C4.82142857 5.78571429 4.82142857 5.78571429 6 9 C5.67 9.99 5.34 10.98 5 12 C4.34 11.34 3.68 10.68 3 10 C3 9.01 3 8.02 3 7 C2.34 6.67 1.68 6.34 1 6 C0.34 5.67 -0.32 5.34 -1 5 C-0.67 3.35 -0.34 1.7 0 0 Z " fill="#F3F3F3" transform="translate(413,58)"/>
<path d="M0 0 C0 0.66 0 1.32 0 2 C1.134375 2.12375 2.26875 2.2475 3.4375 2.375 C4.613125 2.58125 5.78875 2.7875 7 3 C7.33 3.66 7.66 4.32 8 5 C-1.59453303 4.40546697 -1.59453303 4.40546697 -5 1 C-3 0 -3 0 0 0 Z " fill="#A0A0A0" transform="translate(91,412)"/>
<path d="M0 0 C1.08667969 0.01804687 2.17335937 0.03609375 3.29296875 0.0546875 C4.54013672 0.08949219 4.54013672 0.08949219 5.8125 0.125 C5.8125 0.455 5.8125 0.785 5.8125 1.125 C4.85537109 1.19847656 4.85537109 1.19847656 3.87890625 1.2734375 C3.05261719 1.34820312 2.22632813 1.42296875 1.375 1.5 C0.13943359 1.60441406 0.13943359 1.60441406 -1.12109375 1.7109375 C-1.80300781 1.84757812 -2.48492187 1.98421875 -3.1875 2.125 C-3.5175 2.785 -3.8475 3.445 -4.1875 4.125 C-5.8375 4.125 -7.4875 4.125 -9.1875 4.125 C-9.1875 3.465 -9.1875 2.805 -9.1875 2.125 C-5.66070901 -0.22619399 -4.15870515 -0.08943452 0 0 Z " fill="#8F8F8F" transform="translate(234.1875,272.875)"/>
<path d="M0 0 C0.33 0.66 0.66 1.32 1 2 C4.02934491 2.65772428 4.02934491 2.65772428 7 3 C7.33 4.65 7.66 6.3 8 8 C4.21479387 7.45925627 2.40822445 5.92427254 0 3 C0 2.01 0 1.02 0 0 Z " fill="#0B0B0B" transform="translate(152,100)"/>
<path d="M0 0 C3.63094642 2.64960955 5.89851796 5.01824456 8 9 C5 9 5 9 2.875 7.3125 C0.83027036 4.79066678 0.35401103 3.18609925 0 0 Z " fill="#E0E0E0" transform="translate(305,252)"/>
<path d="M0 0 C0.66 0.33 1.32 0.66 2 1 C2 2.65 2 4.3 2 6 C1.34 6 0.68 6 0 6 C-0.33 7.32 -0.66 8.64 -1 10 C-1.66 10 -2.32 10 -3 10 C-2.39009109 6.44219804 -1.4216319 3.3171411 0 0 Z " fill="#C7C7C7" transform="translate(321,165)"/>
<path d="M0 0 C1.14926266 0.95421808 2.29430541 1.91352045 3.4375 2.875 C4.07558594 3.40867188 4.71367187 3.94234375 5.37109375 4.4921875 C7 6 7 6 8 8 C6.35 7.67 4.7 7.34 3 7 C3 6.34 3 5.68 3 5 C2.01 5 1.02 5 0 5 C0 3.35 0 1.7 0 0 Z " fill="#AEAEAE" transform="translate(192,143)"/>
<path d="M0 0 C0 0.99 0 1.98 0 3 C-1.98 3 -3.96 3 -6 3 C-6 2.34 -6 1.68 -6 1 C-7.32 0.67 -8.64 0.34 -10 0 C-3.375 -1.125 -3.375 -1.125 0 0 Z " fill="#AFAFAF" transform="translate(149,419)"/>
<path d="M0 0 C2.64 0 5.28 0 8 0 C8 0.66 8 1.32 8 2 C8.66 2.33 9.32 2.66 10 3 C8.72125 3.061875 7.4425 3.12375 6.125 3.1875 C5.40570313 3.22230469 4.68640625 3.25710938 3.9453125 3.29296875 C3.30335937 3.19628906 2.66140625 3.09960938 2 3 C1.34 2.01 0.68 1.02 0 0 Z " fill="#B0B0B0" transform="translate(115,416)"/>
<path d="M0 0 C2.97 0 5.94 0 9 0 C8.67 0.66 8.34 1.32 8 2 C5.93359375 2.4140625 5.93359375 2.4140625 3.4375 2.625 C2.61121094 2.69976562 1.78492188 2.77453125 0.93359375 2.8515625 C-0.02353516 2.92503906 -0.02353516 2.92503906 -1 3 C-0.67 2.01 -0.34 1.02 0 0 Z " fill="#A4A4A4" transform="translate(364,410)"/>
<path d="M0 0 C-4.43076923 3.07692308 -4.43076923 3.07692308 -7.3125 2.6875 C-8.1478125 2.3471875 -8.1478125 2.3471875 -9 2 C-8 0 -8 0 -6.1875 -0.6875 C-3.81180233 -1.02688538 -2.26664171 -0.72856341 0 0 Z M-11 3 C-10.34 3.33 -9.68 3.66 -9 4 C-10.32 4.33 -11.64 4.66 -13 5 C-12.34 4.34 -11.68 3.68 -11 3 Z " fill="#B2B2B2" transform="translate(387,403)"/>
<path d="M0 0 C0.33 0.99 0.66 1.98 1 3 C-1.64738916 4.4606285 -2.89448334 5 -6 5 C-6 3.68 -6 2.36 -6 1 C-4.02 0.67 -2.04 0.34 0 0 Z " fill="#7C7C7C" transform="translate(380,410)"/>
<path d="M0 0 C2.01822917 0.06510417 4.03645833 0.13020833 6.0546875 0.1953125 C5.0646875 0.6903125 5.0646875 0.6903125 4.0546875 1.1953125 C4.3846875 2.1853125 4.7146875 3.1753125 5.0546875 4.1953125 C0.5996875 3.2053125 0.5996875 3.2053125 -3.9453125 2.1953125 C-1.9453125 0.1953125 -1.9453125 0.1953125 0 0 Z " fill="#878787" transform="translate(369.9453125,411.8046875)"/>
<path d="M0 0 C4.95 0.99 4.95 0.99 10 2 C10 2.99 10 3.98 10 5 C5.49378854 3.89470285 3.34905453 3.34905453 0 0 Z " fill="#F7F7F7" transform="translate(359,25)"/>
<path d="M0 0 C-1.0625 1.5 -1.0625 1.5 -3 3 C-6.5 3.1875 -6.5 3.1875 -10 3 C-10.99 3 -11.98 3 -13 3 C-12.67 2.34 -12.34 1.68 -12 1 C-7.973409 0.22565558 -4.09613971 -0.12412545 0 0 Z " fill="#F6F6F6" transform="translate(146,16)"/>
<path d="M0 0 C1.98 0 3.96 0 6 0 C6.66 1.32 7.32 2.64 8 4 C5.125 3.6875 5.125 3.6875 2 3 C1.34 2.01 0.68 1.02 0 0 Z " fill="#747474" transform="translate(80,416)"/>
<path d="M0 0 C0 0.66 0 1.32 0 2 C-3.3 2 -6.6 2 -10 2 C-10 1.34 -10 0.68 -10 0 C-6.42355152 -1.2380014 -3.66305234 -0.74926071 0 0 Z " fill="#909090" transform="translate(105,417)"/>
<path d="M0 0 C1.98 0 3.96 0 6 0 C6 0.66 6 1.32 6 2 C2.535 3.485 2.535 3.485 -1 5 C-0.67 3.35 -0.34 1.7 0 0 Z " fill="#8A8A8A" transform="translate(382,408)"/>
<path d="M0 0 C0.66 0.33 1.32 0.66 2 1 C2 2.65 2 4.3 2 6 C2.66 6 3.32 6 4 6 C4 6.66 4 7.32 4 8 C1.37812506 6.95125002 0.20628639 6.35068687 -1.25 3.875 C-1.4975 3.25625 -1.745 2.6375 -2 2 C-1.34 1.34 -0.68 0.68 0 0 Z " fill="#B4B4B4" transform="translate(153,298)"/>
<path d="M0 0 C4.875 3.625 4.875 3.625 6 7 C3 7 3 7 1.61328125 5.6875 C0.40885417 4.125 -0.79557292 2.5625 -2 1 C-1.34 0.67 -0.68 0.34 0 0 Z " fill="#BABABA" transform="translate(239,186)"/>
<path d="M0 0 C0.99 0.66 1.98 1.32 3 2 C2.67 3.65 2.34 5.3 2 7 C0.68 6.67 -0.64 6.34 -2 6 C-1.125 1.125 -1.125 1.125 0 0 Z " fill="#0C0C0C" transform="translate(317,165)"/>
<path d="M0 0 C0.99 0.66 1.98 1.32 3 2 C3 2.99 3 3.98 3 5 C3.99 5.33 4.98 5.66 6 6 C5.34 6.66 4.68 7.32 4 8 C2.02 5.69 0.04 3.38 -2 1 C-1.34 0.67 -0.68 0.34 0 0 Z " fill="#0B0B0B" transform="translate(193,140)"/>
<path d="M0 0 C1.65 1.65 3.3 3.3 5 5 C3.02 5.99 3.02 5.99 1 7 C-1 4 -1 4 -0.625 1.8125 C-0.41875 1.214375 -0.2125 0.61625 0 0 Z " fill="#B2B2B2" transform="translate(161,112)"/>
<path d="M0 0 C4.875 4.625 4.875 4.625 6 8 C5.01 8.495 5.01 8.495 4 9 C4 8.34 4 7.68 4 7 C3.01 6.67 2.02 6.34 1 6 C0.67 4.02 0.34 2.04 0 0 Z " fill="#BEBEBE" transform="translate(138,87)"/>
<path d="M0 0 C2 2 2 2 2.125 5.125 C2.08375 6.07375 2.0425 7.0225 2 8 C1.01 7.67 0.02 7.34 -1 7 C-1.04254356 5.00045254 -1.04080783 2.99958364 -1 1 C-0.67 0.67 -0.34 0.34 0 0 Z " fill="#D4D4D4" transform="translate(426,337)"/>
<path d="M0 0 C5.875 2.75 5.875 2.75 7 5 C5.1875 5.6875 5.1875 5.6875 3 6 C1.25 4.75 1.25 4.75 0 3 C0 2.01 0 1.02 0 0 Z " fill="#A4A4A4" transform="translate(46,397)"/>
<path d="M0 0 C1.32 0 2.64 0 4 0 C4.33 1.65 4.66 3.3 5 5 C4.01 5.66 3.02 6.32 2 7 C1.34 6.34 0.68 5.68 0 5 C0.66 5 1.32 5 2 5 C1.34 3.35 0.68 1.7 0 0 Z " fill="#BBBBBB" transform="translate(140,289)"/>
<path d="M0 0 C1.98 1.65 3.96 3.3 6 5 C5.01 5.33 4.02 5.66 3 6 C2.67 6.66 2.34 7.32 2 8 C1.87625 7.401875 1.7525 6.80375 1.625 6.1875 C1.04524015 3.73768652 1.04524015 3.73768652 -1 1 C-0.67 0.67 -0.34 0.34 0 0 Z " fill="#AFAFAF" transform="translate(201,152)"/>
<path d="M0 0 C1.65 1.65 3.3 3.3 5 5 C3.02 5.99 3.02 5.99 1 7 C0.34 6.34 -0.32 5.68 -1 5 C-0.34 4.01 0.32 3.02 1 2 C0.34 1.67 -0.32 1.34 -1 1 C-0.67 0.67 -0.34 0.34 0 0 Z " fill="#B0B0B0" transform="translate(177,128)"/>
<path d="M0 0 C-0.33 0.99 -0.66 1.98 -1 3 C-3.31 3.33 -5.62 3.66 -8 4 C-8 3.01 -8 2.02 -8 1 C-5.23735711 0.40267181 -2.83967231 0 0 0 Z " fill="#F5F5F5" transform="translate(107,21)"/>
<path d="M0 0 C2.97 0 5.94 0 9 0 C9 0.33 9 0.66 9 1 C6 2 3 3 0 4 C0 2.68 0 1.36 0 0 Z " fill="#B1B1B1" transform="translate(389,398)"/>
<path d="M0 0 C0.99 0.33 1.98 0.66 3 1 C3 2.65 3 4.3 3 6 C1.35 6.33 -0.3 6.66 -2 7 C-1.34 4.69 -0.68 2.38 0 0 Z " fill="#C5C5C5" transform="translate(419,365)"/>
<path d="M0 0 C1.67542976 0.28604898 3.34385343 0.61781233 5 1 C4.67 1.99 4.34 2.98 4 4 C3.34 3.67 2.68 3.34 2 3 C1.34 3.66 0.68 4.32 0 5 C-0.5625 3.0625 -0.5625 3.0625 -1 1 C-0.67 0.67 -0.34 0.34 0 0 Z " fill="#B1B1B1" transform="translate(164,312)"/>
<path d="M0 0 C0.99 0.33 1.98 0.66 3 1 C3 1.66 3 2.32 3 3 C3.99 3.33 4.98 3.66 6 4 C5.67 4.66 5.34 5.32 5 6 C3.0625 5.25 3.0625 5.25 1 4 C0.25 1.875 0.25 1.875 0 0 Z " fill="#0C0C0C" transform="translate(160,108)"/>
<path d="M0 0 C2 2 2 2 2 6 C0.0625 5.6875 0.0625 5.6875 -2 5 C-2.33 4.01 -2.66 3.02 -3 2 C-2.01 2 -1.02 2 0 2 C0 1.34 0 0.68 0 0 Z " fill="#0C0C0C" transform="translate(150,94)"/>
<path d="M0 0 C0.99 0 1.98 0 3 0 C2.34 1.32 1.68 2.64 1 4 C-0.32 4 -1.64 4 -3 4 C-1.6875 2 -1.6875 2 0 0 Z " fill="#A9A9A9" transform="translate(406,391)"/>
<path d="M0 0 C2.125 0.375 2.125 0.375 4 1 C3.01 1.495 3.01 1.495 2 2 C2 2.66 2 3.32 2 4 C0.68 3.34 -0.64 2.68 -2 2 C-1.34 1.34 -0.68 0.68 0 0 Z M-3 3 C-2.34 3 -1.68 3 -1 3 C-1.33 3.66 -1.66 4.32 -2 5 C-2.33 4.34 -2.66 3.68 -3 3 Z " fill="#C6C6C6" transform="translate(214,361)"/>
<path d="M0 0 C1.32 0.66 2.64 1.32 4 2 C3.67 3.65 3.34 5.3 3 7 C1.04783565 5.04783565 0.15173355 3.46800047 -1 1 C-0.67 0.67 -0.34 0.34 0 0 Z " fill="#ACACAC" transform="translate(186,332)"/>
<path d="M0 0 C1.32 0.99 2.64 1.98 4 3 C3.67 3.99 3.34 4.98 3 6 C2.01 6 1.02 6 0 6 C-0.38218767 4.34385343 -0.71395102 2.67542976 -1 1 C-0.67 0.67 -0.34 0.34 0 0 Z " fill="#B5B5B5" transform="translate(129,274)"/>
</svg>
