<?xml version="1.0" encoding="UTF-8"?>
<svg version="1.1" xmlns="http://www.w3.org/2000/svg"  width="90" height="90" viewBox="0 0 768 768">
<path d="M0 0 C0.66 0.66 1.32 1.32 2 2 C1.66711615 8.8274814 0.0464523 15.02385774 -1.90625 21.546875 C-2.33339294 23.00821869 -2.33339294 23.00821869 -2.76916504 24.49908447 C-3.67241258 27.58483994 -4.58571889 30.66749761 -5.5 33.75 C-6.41238856 36.8473064 -7.32264339 39.94522262 -8.23083496 43.04376221 C-8.7944657 44.96448405 -9.36083412 46.88440523 -9.93029785 48.80340576 C-10.1872644 49.67491272 -10.44423096 50.54641968 -10.70898438 51.44433594 C-10.93469116 52.2055072 -11.16039795 52.96667847 -11.39294434 53.75091553 C-12.04084395 56.15132302 -12.53770704 58.55765313 -13 61 C-6.66582495 59.8912916 -0.33210958 58.77999744 6.0012207 57.66647339 C8.29021202 57.26415166 10.57927447 56.86223448 12.8684082 56.46072388 C25.89541043 54.17439836 38.91283774 51.84836665 51.91015625 49.3984375 C53.01878525 49.19047043 54.12741425 48.98250336 55.26963806 48.76823425 C60.57979361 47.77195948 65.88787434 46.76650705 71.19311523 45.74438477 C73.12865849 45.3799194 75.06428261 45.01588313 77 44.65234375 C77.85324356 44.48403046 78.70648712 44.31571716 79.58558655 44.14230347 C95.1096737 41.26580422 95.1096737 41.26580422 101.125 44.875 C103.5018798 47.56879711 103.95707534 48.53755834 104.29296875 52.15625 C103.95203758 56.62926689 102.49153764 59.68691546 100.3125 63.5 C99.71236084 64.59078857 99.71236084 64.59078857 99.10009766 65.70361328 C97.7498362 68.14531481 96.3766791 70.57310471 95 73 C94.01144196 74.75765685 93.02316892 76.51547403 92.03515625 78.2734375 C89.87139076 82.11401937 87.69756143 85.94874257 85.51953125 89.78125 C81.82667962 96.29012125 78.19092417 102.83004876 74.5625 109.375 C67.9842028 121.23670053 61.367815 133.07656518 54.73388672 144.90722656 C51.82060861 150.10370742 48.91043473 155.30192626 46 160.5 C42.51323215 166.72741207 39.02587556 172.95448933 35.53515625 179.1796875 C29.47939914 189.98203312 23.44391126 200.79513013 17.4375 211.625 C12.30700891 220.874503 7.13095932 230.09650117 1.91381836 239.29736328 C-2.26471653 246.67589524 -6.38910146 254.08360346 -10.5 261.5 C-15.13065886 269.85408659 -19.78865186 278.19114561 -24.5 286.5 C-29.83399711 295.90849852 -35.09867971 305.35417652 -40.34375 314.8125 C-45.11010428 323.40563976 -49.90443989 331.98271018 -54.71264648 340.55249023 C-57.82238146 346.09895456 -60.91981609 351.65193177 -64 357.21484375 C-64.33491455 357.81934357 -64.6698291 358.42384338 -65.01489258 359.04666138 C-66.62933048 361.96088593 -68.24199355 364.87604948 -69.8515625 367.79296875 C-72.58624856 372.73226957 -75.34228441 377.65853517 -78.1875 382.53515625 C-78.63480469 383.30351807 -79.08210937 384.07187988 -79.54296875 384.86352539 C-82.1136792 388.6330105 -83.97811116 390.72130304 -88.4375 391.9375 C-92.50239238 392.0088139 -93.87663366 391.53245919 -97 389 C-99.73189892 385.79667322 -101.93813937 382.57351975 -103.9609375 378.88671875 C-104.5075 377.89865234 -105.0540625 376.91058594 -105.6171875 375.89257812 C-106.19726562 374.83490234 -106.77734375 373.77722656 -107.375 372.6875 C-112.15073048 364.06409591 -117.00351525 355.49741343 -122 347 C-127.41432688 337.77744489 -132.68434741 328.48248672 -137.89282227 319.14233398 C-144.68499308 306.96435112 -151.60559734 294.8617317 -158.58984375 282.79296875 C-165.41307611 271.00004531 -172.16263033 259.17359398 -178.79150391 247.27026367 C-183.4324784 238.95939171 -188.21376549 230.736207 -193.03149414 222.52685547 C-196.84499021 216.0165847 -200.55038042 209.45771153 -204.18383789 202.84570312 C-207.58178666 196.68979028 -211.125599 190.6247139 -214.6875 184.5625 C-220.50628089 174.65413436 -226.11616188 164.64314289 -231.67016602 154.58520508 C-235.4509572 147.75113485 -239.31055463 140.97859433 -243.30493164 134.26757812 C-246.68296781 128.57912861 -249.94300431 122.82800725 -253.1875 117.0625 C-257.92987365 108.63772149 -262.72585112 100.24600426 -267.5625 91.875 C-268.49799683 90.24908936 -268.49799683 90.24908936 -269.45239258 88.59033203 C-272.45780739 83.37132944 -275.48697456 78.17031615 -278.58203125 73.00390625 C-279.13882568 72.06240723 -279.69562012 71.1209082 -280.26928711 70.15087891 C-281.30272596 68.4045448 -282.34821536 66.66525713 -283.40844727 64.93505859 C-286.40588234 59.83328677 -288.4328055 55.03408731 -288 49 C-286.23496686 46.07856583 -285.04152365 44.52076183 -282 43 C-274.02934493 42.46951347 -266.43908006 43.33392881 -258.62280273 44.80419922 C-257.5560733 44.99605804 -256.48934387 45.18791687 -255.39028931 45.3855896 C-251.90283807 46.01536091 -248.4182948 46.65988814 -244.93359375 47.3046875 C-242.48861573 47.7492187 -240.04346791 48.19281683 -237.59815979 48.63552856 C-231.18432481 49.79929194 -224.77285741 50.97561876 -218.36181641 52.15466309 C-211.85522547 53.34899533 -205.34647393 54.53142639 -198.83789062 55.71484375 C-188.31697749 57.6292855 -177.79743153 59.55103665 -167.27952576 61.48193359 C-165.43657684 61.82022587 -163.59335106 62.15701432 -161.74981499 62.49209213 C-159.79533172 62.8530973 -157.84307229 63.2262346 -155.89247322 63.60766983 C-154.89159613 63.80031292 -153.89071903 63.99295601 -152.85951233 64.19143677 C-151.95167024 64.37004808 -151.04382814 64.5486594 -150.10847569 64.73268318 C-149.06478022 64.86500501 -149.06478022 64.86500501 -148 65 C-146.07106943 63.07106943 -146.68019351 59.49947764 -146.5703125 56.859375 C-146.4966187 55.38148415 -146.42238249 53.90362026 -146.34765625 52.42578125 C-146.23443069 50.09117799 -146.12528186 47.75662156 -146.02587891 45.42138672 C-145.927943 43.17077171 -145.8128501 40.92154028 -145.6953125 38.671875 C-145.67018585 37.97898376 -145.6450592 37.28609253 -145.61917114 36.57220459 C-145.37629446 32.21031854 -144.72655719 29.42641933 -142 26 C-138.90061951 24.8585968 -138.90061951 24.8585968 -135.01733398 24.12231445 C-134.30623663 23.98140884 -133.59513927 23.84050323 -132.86249352 23.69532776 C-130.49376971 23.23115307 -128.12049375 22.79740271 -125.74609375 22.36328125 C-124.06886195 22.04049151 -122.39200277 21.7157603 -120.71549988 21.38920593 C-116.2226214 20.51929369 -111.7252872 19.67495719 -107.22663116 18.83551025 C-102.58692771 17.96548574 -97.95155521 17.07303284 -93.31591797 16.18164062 C-87.76436756 15.11529957 -82.21251982 14.05071254 -76.65863037 12.99661255 C-66.05180719 10.98228194 -55.46119571 8.90862368 -44.88671875 6.73046875 C-43.71948776 6.49097 -42.55225677 6.25147125 -41.34965515 6.00471497 C-37.09089098 5.12971481 -32.83244819 4.25367331 -28.5776062 3.35977173 C-6.77361153 -1.21265801 -6.77361153 -1.21265801 0 0 Z " fill="#8B72FD" transform="translate(296,0)"/>
<path d="M0 0 C0.99 0.99 0.99 0.99 2 2 C1.66447716 8.80805575 0.06202195 15.00212524 -1.87109375 21.51171875 C-2.15348404 22.4835762 -2.43587433 23.45543365 -2.7268219 24.45674133 C-3.62344131 27.53573737 -4.53042965 30.6115687 -5.4375 33.6875 C-6.04297408 35.76348055 -6.64779786 37.83965089 -7.25195312 39.91601562 C-11.83875485 55.63355527 -11.83875485 55.63355527 -14 62 C-14.84037881 64.70013872 -15.63930355 67.41211334 -16.4375 70.125 C-16.65559326 70.86548584 -16.87368652 71.60597168 -17.09838867 72.36889648 C-18.89881087 78.53939195 -20.517623 84.74509219 -22 91 C-22.66 91 -23.32 91 -24 91 C-23.67 93.97 -23.34 96.94 -23 100 C-17.33334726 99.67650998 -11.93031486 99.09231138 -6.4375 97.625 C-1.24192139 96.24630398 3.95506837 95.21406504 9.25 94.3125 C9.99451416 94.18117676 10.73902832 94.04985352 11.50610352 93.91455078 C16.39979081 93.10428363 21.04005006 92.88217313 26 93 C27.52185399 99.24204284 26.35296172 102.52432796 23.3125 108.0625 C22.95994141 108.74376953 22.60738281 109.42503906 22.24414062 110.12695312 C20.58583085 113.28289549 18.84143557 116.23426246 16.83984375 119.19140625 C15.14463574 121.77920786 14.14091025 123.93499618 13.25 126.875 C12.88648438 128.04675781 12.88648438 128.04675781 12.515625 129.2421875 C12.34546875 129.82226562 12.1753125 130.40234375 12 131 C11.34 131 10.68 131 10 131 C9.855625 131.763125 9.71125 132.52625 9.5625 133.3125 C9 136 9 136 8 139 C7.34 139 6.68 139 6 139 C5.9175 139.70125 5.835 140.4025 5.75 141.125 C4.82787803 144.65980087 3.0339534 146.97988738 1 150 C0.32517569 151.99726227 -0.34082859 153.99751717 -1 156 C-1.81823271 157.74645735 -2.67479181 159.47531069 -3.5625 161.1875 C-5.5196993 165.01555156 -7.41247147 168.8560653 -9.21875 172.7578125 C-9.60603271 173.59159424 -9.99331543 174.42537598 -10.39233398 175.28442383 C-11.15527524 176.93271439 -11.91286741 178.58349464 -12.66430664 180.23706055 C-14.40932907 183.99259279 -16.20003978 187.43873665 -18.65625 190.78125 C-20.63441765 193.49793358 -21.84234661 195.56549555 -22.9375 198.6875 C-28.51939655 213.51939655 -28.51939655 213.51939655 -33 218 C-33.71008875 219.79593281 -34.36771954 221.61271998 -35 223.4375 C-37.51414084 230.1641246 -40.7146515 236.35618277 -44.1171875 242.67163086 C-47.46307425 248.9045934 -50.54322582 255.22557313 -53.48754883 261.65722656 C-54.84194307 264.60428476 -56.19600022 267.29400032 -58 270 C-58.66 270 -59.32 270 -60 270 C-60 271.32 -60 272.64 -60 274 C-60.66 274 -61.32 274 -62 274 C-62.11214844 275.18529297 -62.11214844 275.18529297 -62.2265625 276.39453125 C-63.25678854 281.19704962 -65.2448226 285.28221224 -67.375 289.6875 C-67.77460938 290.54150391 -68.17421875 291.39550781 -68.5859375 292.27539062 C-70.41265335 296.10007693 -71.93385213 299.04679059 -75 302 C-76.0752668 304.21936528 -76.0752668 304.21936528 -76.9375 306.6875 C-79.67507199 313.81140892 -82.39168362 320.6587463 -88 326 C-91.1875 326.5 -91.1875 326.5 -94 326 C-94.66 325.34 -95.32 324.68 -96 324 C-95.62846086 318.70838198 -94.530144 313.86951688 -93.125 308.75 C-91.4834128 302.53922965 -90.37553183 296.36175175 -89.5 290 C-88.47977565 282.61923817 -86.96942393 275.64747659 -85.046875 268.4453125 C-83.35647255 261.68689214 -82.38357913 254.77262659 -81.30688477 247.89550781 C-81.15018311 246.90131836 -80.99348145 245.90712891 -80.83203125 244.8828125 C-80.69514893 243.98965332 -80.5582666 243.09649414 -80.41723633 242.17626953 C-80 240 -80 240 -79 238 C-78.83330682 234.45828022 -78.83330682 234.45828022 -79 231 C-79.33 230.67 -79.66 230.34 -80 230 C-88.18104889 230.06860418 -98.14197043 231.42798028 -105 236 C-108.5625 236.3125 -108.5625 236.3125 -112 236 C-114.51056203 232.23415696 -114.06843321 230.69848405 -113.484375 226.39453125 C-112.88745973 223.44365172 -111.89110965 220.80950181 -110.76171875 218.02734375 C-108.34776507 211.60251319 -107.6464175 204.7873837 -107 198 C-106.34 198 -105.68 198 -105 198 C-105.020625 196.700625 -105.04125 195.40125 -105.0625 194.0625 C-105.07930315 188.23180762 -104.69469747 182.4394563 -104.26782227 176.62719727 C-104.14069096 174.75364993 -104.06558964 172.87670988 -104 171 C-104.33 170.67 -104.66 170.34 -105 170 C-114.61796345 170.05882546 -123.23722341 172.17376798 -132.328125 175.0546875 C-136.22870859 176.0588803 -139.85782765 176.4448787 -143.875 176.6875 C-144.88820312 176.75807617 -144.88820312 176.75807617 -145.921875 176.83007812 C-147.61236321 176.93361204 -149.30656675 176.97255033 -151 177 C-152.53102056 175.46897944 -152.12963406 174.08036215 -152.1328125 171.94921875 C-152.13410156 171.10423828 -152.13539063 170.25925781 -152.13671875 169.38867188 C-152.13285156 168.49728516 -152.12898437 167.60589844 -152.125 166.6875 C-152.12886719 165.83865234 -152.13273438 164.98980469 -152.13671875 164.11523438 C-152.12978916 159.49666469 -151.94324285 154.94756808 -151.5234375 150.34765625 C-150.78052237 142.11930835 -150.64988356 133.87141253 -150.44775391 125.61621094 C-150.26567771 118.34986747 -149.98543214 111.20597252 -149 104 C-148.71723966 99.69401384 -148.56423274 95.38198743 -148.39453125 91.0703125 C-148.35714844 90.21695313 -148.31976563 89.36359375 -148.28125 88.484375 C-148.25095703 87.71834961 -148.22066406 86.95232422 -148.18945312 86.16308594 C-148 84 -148 84 -147.5 82.16015625 C-146.78881133 79.08759896 -146.79452297 76.10415191 -146.71875 72.953125 C-146.70034058 72.26426208 -146.68193115 71.57539917 -146.66296387 70.86566162 C-146.60444186 68.66052505 -146.55171329 66.45530596 -146.5 64.25 C-146.36112276 58.49892483 -146.19876458 52.74933013 -146 47 C-145.96471191 45.89241333 -145.96471191 45.89241333 -145.92871094 44.76245117 C-145.85350254 42.58545359 -145.75789433 40.41028169 -145.65625 38.234375 C-145.60275391 36.96303711 -145.54925781 35.69169922 -145.49414062 34.38183594 C-144.95054241 30.66151854 -144.32537514 28.93609778 -142 26 C-138.90061951 24.8585968 -138.90061951 24.8585968 -135.01733398 24.12231445 C-134.30623663 23.98140884 -133.59513927 23.84050323 -132.86249352 23.69532776 C-130.49376971 23.23115307 -128.12049375 22.79740271 -125.74609375 22.36328125 C-124.06886195 22.04049151 -122.39200277 21.7157603 -120.71549988 21.38920593 C-116.2226214 20.51929369 -111.7252872 19.67495719 -107.22663116 18.83551025 C-102.58692771 17.96548574 -97.95155521 17.07303284 -93.31591797 16.18164062 C-87.76436756 15.11529957 -82.21251982 14.05071254 -76.65863037 12.99661255 C-66.05180719 10.98228194 -55.46119571 8.90862368 -44.88671875 6.73046875 C-43.71948776 6.49097 -42.55225677 6.25147125 -41.34965515 6.00471497 C-37.09089098 5.12971481 -32.83244819 4.25367331 -28.5776062 3.35977173 C-6.77361153 -1.21265801 -6.77361153 -1.21265801 0 0 Z " fill="#FEC923" transform="translate(296,0)"/>
<path d="M0 0 C0.99 0.495 0.99 0.495 2 1 C-5.94106996 15.78810678 -14.04609895 30.46915083 -22.33642578 45.06396484 C-25.19929372 50.11662846 -28.03809034 55.18272802 -30.875 60.25 C-31.4529834 61.28229736 -32.0309668 62.31459473 -32.62646484 63.37817383 C-36.95559407 71.11764305 -41.26099924 78.87015062 -45.5625 86.625 C-50.69304631 95.87447271 -55.86904038 105.09650064 -61.08618164 114.29736328 C-65.26471653 121.67589524 -69.38910146 129.08360346 -73.5 136.5 C-78.13065886 144.85408659 -82.78865186 153.19114561 -87.5 161.5 C-92.83399711 170.90849852 -98.09867971 180.35417652 -103.34375 189.8125 C-108.11010428 198.40563976 -112.90443989 206.98271018 -117.71264648 215.55249023 C-120.82238146 221.09895456 -123.91981609 226.65193177 -127 232.21484375 C-127.33491455 232.81934357 -127.6698291 233.42384338 -128.01489258 234.04666138 C-129.62933048 236.96088593 -131.24199355 239.87604948 -132.8515625 242.79296875 C-135.58624856 247.73226957 -138.34228441 252.65853517 -141.1875 257.53515625 C-141.85845703 258.68769897 -141.85845703 258.68769897 -142.54296875 259.86352539 C-145.1136792 263.6330105 -146.97811116 265.72130304 -151.4375 266.9375 C-155.50239238 267.0088139 -156.87663366 266.53245919 -160 264 C-162.82701543 260.69460476 -165.07188649 257.33834458 -167.171875 253.53515625 C-167.75050293 252.49367432 -168.32913086 251.45219238 -168.92529297 250.37915039 C-169.52744629 249.28465576 -170.12959961 248.19016113 -170.75 247.0625 C-171.99680854 244.81217451 -173.24420114 242.56217251 -174.4921875 240.3125 C-175.09256836 239.22839844 -175.69294922 238.14429688 -176.31152344 237.02734375 C-179.05623187 232.10623551 -181.89159326 227.23922907 -184.7421875 222.37890625 C-186 220 -186 220 -186 218 C-183 219 -183 219 -181.97265625 220.59375 C-181.52212891 221.53734375 -181.52212891 221.53734375 -181.0625 222.5 C-179.588928 225.41802626 -179.588928 225.41802626 -176.75 226.9375 C-176.1725 226.958125 -175.595 226.97875 -175 227 C-175.20625 227.94875 -175.4125 228.8975 -175.625 229.875 C-175.74875 230.90625 -175.8725 231.9375 -176 233 C-174.10244856 235.34973818 -174.10244856 235.34973818 -170.875 235.125 C-169.92625 235.08375 -168.9775 235.0425 -168 235 C-168 238.33333333 -168 241.66666667 -168 245 C-167.14635667 247.98775164 -166.66505294 249.54948027 -164.0625 251.3125 C-161.88800267 252.15811388 -161.88800267 252.15811388 -159 252 C-159.33 254.31 -159.66 256.62 -160 259 C-156.6136749 260.50930183 -156.6136749 260.50930183 -153 261 C-153 260.34 -153 259.68 -153 259 C-152.01 259 -151.02 259 -150 259 C-150 259.66 -150 260.32 -150 261 C-148.02 260.67 -146.04 260.34 -144 260 C-143.87625 259.2575 -143.7525 258.515 -143.625 257.75 C-143.0430105 255.18924619 -142.19578604 253.31185302 -141 251 C-141 250.34 -141 249.68 -141 249 C-140.34 249 -139.68 249 -139 249 C-138.731875 248.030625 -138.46375 247.06125 -138.1875 246.0625 C-137.795625 245.051875 -137.40375 244.04125 -137 243 C-136.01 242.67 -135.02 242.34 -134 242 C-134.33 241.01 -134.66 240.02 -135 239 C-135.1544533 234.82976082 -134.98388771 231.05853682 -134 227 C-132.35 227.66 -130.7 228.32 -129 229 C-129 228.34 -129 227.68 -129 227 C-128.34 227 -127.68 227 -127 227 C-126.80341192 225.58456585 -126.61812454 224.16755969 -126.4375 222.75 C-126.33308594 221.96109375 -126.22867188 221.1721875 -126.12109375 220.359375 C-125.99972651 217.99467126 -126.30366743 216.2488963 -127 214 C-126.4225 213.87625 -125.845 213.7525 -125.25 213.625 C-122.97664233 212.99351176 -121.0746471 212.11141809 -119 211 C-119.061875 210.21625 -119.12375 209.4325 -119.1875 208.625 C-119.125625 207.75875 -119.06375 206.8925 -119 206 C-116 204 -116 204 -113 204 C-112.49632243 202.54293274 -111.99717444 201.08429904 -111.5 199.625 C-111.2215625 198.81289063 -110.943125 198.00078125 -110.65625 197.1640625 C-109.64986544 193.84538962 -110.29503568 191.3485805 -111 188 C-108.50935112 187.31292445 -106.62113708 187 -104 187 C-103.67 184.69 -103.34 182.38 -103 180 C-102.34 180 -101.68 180 -101 180 C-101.350625 179.4225 -101.70125 178.845 -102.0625 178.25 C-103.14917407 175.64198224 -102.93065133 174.60582371 -102 172 C-101.1028125 171.7834375 -101.1028125 171.7834375 -100.1875 171.5625 C-98.43849596 171.1127561 -96.71322977 170.57107659 -95 170 C-94.45627049 166.94152152 -94 164.11227195 -94 161 C-92.07716164 158.87114324 -89.99383155 156.99437583 -87.875 155.0625 C-85.83406526 152.81747179 -84.95301973 150.85905918 -84 148 C-84.99 147.67 -85.98 147.34 -87 147 C-86.34 145.68 -85.68 144.36 -85 143 C-83.35 143 -81.7 143 -80 143 C-79.855625 142.278125 -79.71125 141.55625 -79.5625 140.8125 C-79.2840625 139.4203125 -79.2840625 139.4203125 -79 138 C-78.814375 136.6696875 -78.814375 136.6696875 -78.625 135.3125 C-78 133 -78 133 -75 131 C-74.01 131 -73.02 131 -72 131 C-71.92652344 129.86111328 -71.92652344 129.86111328 -71.8515625 128.69921875 C-71.77679688 127.70535156 -71.70203125 126.71148437 -71.625 125.6875 C-71.55539062 124.70136719 -71.48578125 123.71523437 -71.4140625 122.69921875 C-71 120 -71 120 -69 117 C-68.34 117 -67.68 117 -67 117 C-63.11015825 113.34590623 -62.44060534 110.17348544 -61.98046875 105.0859375 C-61.8949913 102.80280696 -61.8949913 102.80280696 -63 100 C-61.741875 99.979375 -60.48375 99.95875 -59.1875 99.9375 C-56.98300672 99.76957465 -56.98300672 99.76957465 -55 99 C-53.31016493 96.71019091 -52.81037139 94.78565167 -52 92 C-52.66 92 -53.32 92 -54 92 C-53.875 89.1875 -53.875 89.1875 -53 86 C-51.03384339 84.9349985 -49.03273074 83.93166826 -47 83 C-46.32843384 81.06381575 -46.32843384 81.06381575 -46 79 C-45.401875 78.443125 -44.80375 77.88625 -44.1875 77.3125 C-40.54035009 73.45694153 -38 68.34990648 -38 63 C-36.02 62.01 -36.02 62.01 -34 61 C-34 60.34 -34 59.68 -34 59 C-33.34 59 -32.68 59 -32 59 C-31.17361624 56.10765685 -31 54.11257569 -31 51 C-31 48.66666667 -31 46.33333333 -31 44 C-29.02 44 -27.04 44 -25 44 C-22.88671 39.91916414 -20.93414759 35.97164672 -19.4375 31.625 C-18 28 -18 28 -15 26 C-14.814375 24.63875 -14.814375 24.63875 -14.625 23.25 C-13.81798404 19.05351699 -11.81041609 17.15314976 -9 14 C-6.57681384 10.42291566 -6.83665696 7.24691895 -7 3 C-5.02 3 -3.04 3 -1 3 C-0.67 2.01 -0.34 1.02 0 0 Z " fill="#A54DE8" transform="translate(359,125)"/>
<path d="M0 0 C1.60009415 0.28778824 1.60009415 0.28778824 3.23251343 0.58139038 C6.71996466 1.2111617 10.20450794 1.85568892 13.68920898 2.50048828 C16.134187 2.94501948 18.57933482 3.38861762 21.02464294 3.83132935 C27.43847793 4.99509272 33.84994533 6.17141954 40.26098633 7.35046387 C46.76757726 8.54479611 53.2763288 9.72722717 59.78491211 10.91064453 C70.30582524 12.82508628 80.82537121 14.74683744 91.34327698 16.67773438 C97.76857109 17.85716336 104.1952645 19.02865927 110.62280273 20.19580078 C110.62280273 25.14580078 110.62280273 30.09580078 110.62280273 35.19580078 C109.96280273 35.19580078 109.30280273 35.19580078 108.62280273 35.19580078 C108.62280273 32.22580078 108.62280273 29.25580078 108.62280273 26.19580078 C106.64280273 26.69080078 106.64280273 26.69080078 104.62280273 27.19580078 C104.95280273 25.87580078 105.28280273 24.55580078 105.62280273 23.19580078 C99.09023115 18.84075306 91.23257687 19.07501072 83.62280273 19.19580078 C83.29280273 18.86580078 82.96280273 18.53580078 82.62280273 18.19580078 C81.02116357 18.09661001 79.41500356 18.0661018 77.81030273 18.07080078 C76.93760742 18.06822266 76.06491211 18.06564453 75.16577148 18.06298828 C72.8314427 18.18490407 70.8732723 18.61613438 68.62280273 19.19580078 C66.56030273 18.75830078 66.56030273 18.75830078 64.62280273 18.19580078 C63.63280273 18.19580078 62.64280273 18.19580078 61.62280273 18.19580078 C61.12780273 16.21580078 61.12780273 16.21580078 60.62280273 14.19580078 C55.01958182 13.00685549 49.39848387 11.9468885 43.74780273 11.00830078 C42.67788086 10.82912109 41.60795898 10.64994141 40.50561523 10.46533203 C37.83796023 10.21591713 36.13132725 10.34144823 33.62280273 11.19580078 C33.62280273 10.53580078 33.62280273 9.87580078 33.62280273 9.19580078 C29.48186575 8.98609519 29.48186575 8.98609519 25.62280273 10.19580078 C24.96280273 9.20580078 24.30280273 8.21580078 23.62280273 7.19580078 C22.29249023 7.56705078 22.29249023 7.56705078 20.93530273 7.94580078 C17.62280273 8.19580078 17.62280273 8.19580078 14.74780273 6.25830078 C14.04655273 5.57767578 13.34530273 4.89705078 12.62280273 4.19580078 C12.29280273 4.85580078 11.96280273 5.51580078 11.62280273 6.19580078 C11.62280273 5.53580078 11.62280273 4.87580078 11.62280273 4.19580078 C10.62313477 4.12232422 10.62313477 4.12232422 9.60327148 4.04736328 C3.60818161 3.5610483 -2.17973107 2.74933285 -8.06469727 1.50048828 C-10.53092912 1.00402108 -10.53092912 1.00402108 -13.37719727 2.19580078 C-13.37719727 1.53580078 -13.37719727 0.87580078 -13.37719727 0.19580078 C-16.01719727 0.19580078 -18.65719727 0.19580078 -21.37719727 0.19580078 C-21.70719727 1.18580078 -22.03719727 2.17580078 -22.37719727 3.19580078 C-23.36719727 3.52580078 -24.35719727 3.85580078 -25.37719727 4.19580078 C-25.37719727 6.17580078 -25.37719727 8.15580078 -25.37719727 10.19580078 C-24.71719727 10.52580078 -24.05719727 10.85580078 -23.37719727 11.19580078 C-22.68969727 13.13330078 -22.68969727 13.13330078 -22.37719727 15.19580078 C-22.70719727 15.85580078 -23.03719727 16.51580078 -23.37719727 17.19580078 C-22.71719727 17.19580078 -22.05719727 17.19580078 -21.37719727 17.19580078 C-21.18383789 17.82228516 -20.99047852 18.44876953 -20.79125977 19.09423828 C-20.53086914 19.91150391 -20.27047852 20.72876953 -20.00219727 21.57080078 C-19.74696289 22.38291016 -19.49172852 23.19501953 -19.22875977 24.03173828 C-18.47865443 26.36039263 -18.47865443 26.36039263 -16.37719727 28.19580078 C-15.38719727 28.19580078 -14.39719727 28.19580078 -13.37719727 28.19580078 C-13.04719727 30.83580078 -12.71719727 33.47580078 -12.37719727 36.19580078 C-9.88654838 36.88287633 -7.99833435 37.19580078 -5.37719727 37.19580078 C-5.37719727 38.86246745 -5.37719727 40.52913411 -5.37719727 42.19580078 C-6.03719727 42.19580078 -6.69719727 42.19580078 -7.37719727 42.19580078 C-6.31844652 45.59892817 -5.36817572 48.20933309 -3.37719727 51.19580078 C-0.29353856 51.44601648 -0.29353856 51.44601648 2.62280273 51.19580078 C2.62280273 54.19580078 2.62280273 57.19580078 2.62280273 60.19580078 C3.14176574 63.5338221 4.25709116 65.19493742 6.56030273 67.63330078 C9.03020257 70.37959417 10.36106962 72.70177061 11.62280273 76.19580078 C12.15905273 76.69080078 12.69530273 77.18580078 13.24780273 77.69580078 C14.62280273 79.19580078 14.62280273 79.19580078 14.81030273 81.88330078 C14.71749023 83.02798828 14.71749023 83.02798828 14.62280273 84.19580078 C15.61280273 84.19580078 16.60280273 84.19580078 17.62280273 84.19580078 C18.11780273 87.66080078 18.11780273 87.66080078 18.62280273 91.19580078 C20.27280273 91.19580078 21.92280273 91.19580078 23.62280273 91.19580078 C23.58155273 91.97955078 23.54030273 92.76330078 23.49780273 93.57080078 C23.3355154 96.35696197 23.3355154 96.35696197 25.62280273 98.19580078 C25.92058604 99.51928213 26.16578603 100.85512115 26.37280273 102.19580078 C26.77890605 104.33803773 26.77890605 104.33803773 27.62280273 106.19580078 C30.61708417 107.8072752 30.61708417 107.8072752 33.62280273 108.19580078 C34.12959152 111.23653348 34.63043516 114.25940431 34.99780273 117.32080078 C35.66659589 120.39724929 36.40459212 121.97759016 38.62280273 124.19580078 C39.61280273 124.19580078 40.60280273 124.19580078 41.62280273 124.19580078 C41.68467773 125.28892578 41.74655273 126.38205078 41.81030273 127.50830078 C42.23602604 131.33912794 42.23602604 131.33912794 45.18530273 133.13330078 C45.98967773 133.48392578 46.79405273 133.83455078 47.62280273 134.19580078 C47.11676281 136.3645433 46.6229646 138.19547705 45.62280273 140.19580078 C46.28280273 140.19580078 46.94280273 140.19580078 47.62280273 140.19580078 C47.62280273 141.18580078 47.62280273 142.17580078 47.62280273 143.19580078 C48.28280273 143.19580078 48.94280273 143.19580078 49.62280273 143.19580078 C50.28280273 145.17580078 50.94280273 147.15580078 51.62280273 149.19580078 C52.94280273 149.19580078 54.26280273 149.19580078 55.62280273 149.19580078 C56.28280273 149.85580078 56.94280273 150.51580078 57.62280273 151.19580078 C56.63280273 151.52580078 55.64280273 151.85580078 54.62280273 152.19580078 C53.88956477 154.21088436 53.88956477 154.21088436 53.62280273 156.19580078 C47.88861286 146.59037213 42.31457812 136.90755489 36.87280273 127.13330078 C32.24832564 118.83260304 27.55340792 110.58049513 22.74780273 102.38330078 C17.63496579 93.66169937 12.57301408 84.91272117 7.56030273 76.13330078 C7.0540033 75.24673294 7.0540033 75.24673294 6.53747559 74.34225464 C1.47355549 65.47129653 -3.55157051 56.57874645 -8.56030273 47.67651367 C-13.23545694 39.39166137 -18.03657435 31.18182401 -22.88549805 22.99755859 C-23.44350098 22.04977539 -24.00150391 21.10199219 -24.57641602 20.12548828 C-25.06972412 19.29259277 -25.56303223 18.45969727 -26.07128906 17.6015625 C-28.53206291 13.06829171 -30.02909723 9.4110005 -29.37719727 4.19580078 C-22.80647456 -5.66028327 -10.21853698 -1.92214425 0 0 Z " fill="#62B7EC" transform="translate(37.377197265625,44.80419921875)"/>
<path d="M0 0 C0.99 0.99 0.99 0.99 2 2 C1.78529667 10.65347772 -1.09364066 18.83516006 -3.5625 27.0625 C-3.99223142 28.5147685 -4.42127365 29.96724112 -4.84960938 31.41992188 C-5.89180252 34.94900384 -6.94330138 38.47523038 -8 42 C-8.33 42 -8.66 42 -9 42 C-9.2319794 37.16584869 -8.38947032 32.98495917 -7.0625 28.375 C-6.69909744 27.07034628 -6.33581274 25.76565973 -5.97265625 24.4609375 C-5.65167969 23.31882812 -5.33070313 22.17671875 -5 21 C-4.65970873 19.66842547 -4.32215107 18.33607918 -4 17 C-4.66 17 -5.32 17 -6 17 C-6.99 14.03 -6.99 14.03 -8 11 C-7.34 11 -6.68 11 -6 11 C-6 8.69 -6 6.38 -6 4 C-6.99 4.33 -7.98 4.66 -9 5 C-10.34262065 4.70630173 -11.67696283 4.3721042 -13 4 C-16.06735403 3.73500053 -16.06735403 3.73500053 -18.5 5.5625 C-19.325 6.036875 -20.15 6.51125 -21 7 C-21.99 6.67 -22.98 6.34 -24 6 C-26.08333333 6.16666667 -26.08333333 6.16666667 -28 7 C-28.66 7.99 -29.32 8.98 -30 10 C-30.763125 9.62875 -31.52625 9.2575 -32.3125 8.875 C-37.46601623 7.65213174 -41.94172348 8.5706597 -47 10 C-47.99 10.66 -48.98 11.32 -50 12 C-52.26171875 12.1953125 -52.26171875 12.1953125 -54.6875 12.125 C-55.49574219 12.10695313 -56.30398437 12.08890625 -57.13671875 12.0703125 C-58.05904297 12.03550781 -58.05904297 12.03550781 -59 12 C-59 12.99 -59 13.98 -59 15 C-59.75023437 14.97679687 -60.50046875 14.95359375 -61.2734375 14.9296875 C-68.16195715 14.80822746 -74.30710707 15.44544508 -81 17 C-82.99810662 17.34450114 -84.99722415 17.68377223 -87 18 C-87.33 19.32 -87.66 20.64 -88 22 C-91.33333333 22.66666667 -94.66666667 23.33333333 -98 24 C-98.495 23.01 -98.495 23.01 -99 22 C-102.8955664 21.92508526 -106.24783982 22.02237294 -110 23 C-111.93546718 23.32485274 -113.87321492 23.636276 -115.8125 23.9375 C-122.7537615 25.09017009 -128.78904072 26.69708387 -135.0078125 30 C-137.28897531 31.14505427 -139.62105013 32.07805403 -142 33 C-141.97679687 34.05960938 -141.95359375 35.11921875 -141.9296875 36.2109375 C-141.91093056 37.5989513 -141.89273028 38.9869727 -141.875 40.375 C-141.84986328 41.42300781 -141.84986328 41.42300781 -141.82421875 42.4921875 C-141.80655733 44.32897486 -141.89696739 46.16601963 -142 48 C-142.66 48.66 -143.32 49.32 -144 50 C-144.222168 53.0608554 -144.32544684 56.03798431 -144.34375 59.1015625 C-144.3583728 60.0119931 -144.37299561 60.92242371 -144.38806152 61.86044312 C-144.43466368 64.78191702 -144.46877011 67.70332375 -144.5 70.625 C-144.54134243 74.45076485 -144.59519211 78.27606726 -144.65625 82.1015625 C-144.6615271 82.97269684 -144.6668042 83.84383118 -144.67224121 84.74136353 C-144.75906297 90.13806571 -145.49840349 94.8110999 -147 100 C-147.33 100 -147.66 100 -148 100 C-148.02703562 97.41659616 -148.04685611 94.83347692 -148.0625 92.25 C-148.07087891 91.52039063 -148.07925781 90.79078125 -148.08789062 90.0390625 C-148.11343816 84.41860439 -148.11343816 84.41860439 -147.51147461 82.19726562 C-146.79276145 79.10971507 -146.79492313 76.12079271 -146.71875 72.953125 C-146.70034058 72.26426208 -146.68193115 71.57539917 -146.66296387 70.86566162 C-146.60444186 68.66052505 -146.55171329 66.45530596 -146.5 64.25 C-146.36112276 58.49892483 -146.19876458 52.74933013 -146 47 C-145.96471191 45.89241333 -145.96471191 45.89241333 -145.92871094 44.76245117 C-145.85350254 42.58545359 -145.75789433 40.41028169 -145.65625 38.234375 C-145.60275391 36.96303711 -145.54925781 35.69169922 -145.49414062 34.38183594 C-144.95054241 30.66151854 -144.32537514 28.93609778 -142 26 C-138.90061951 24.8585968 -138.90061951 24.8585968 -135.01733398 24.12231445 C-134.30623663 23.98140884 -133.59513927 23.84050323 -132.86249352 23.69532776 C-130.49376971 23.23115307 -128.12049375 22.79740271 -125.74609375 22.36328125 C-124.06886195 22.04049151 -122.39200277 21.7157603 -120.71549988 21.38920593 C-116.2226214 20.51929369 -111.7252872 19.67495719 -107.22663116 18.83551025 C-102.58692771 17.96548574 -97.95155521 17.07303284 -93.31591797 16.18164062 C-87.76436756 15.11529957 -82.21251982 14.05071254 -76.65863037 12.99661255 C-66.05180719 10.98228194 -55.46119571 8.90862368 -44.88671875 6.73046875 C-43.71948776 6.49097 -42.55225677 6.25147125 -41.34965515 6.00471497 C-37.09089098 5.12971481 -32.83244819 4.25367331 -28.5776062 3.35977173 C-6.77361153 -1.21265801 -6.77361153 -1.21265801 0 0 Z " fill="#FAE36E" transform="translate(296,0)"/>
<path d="M0 0 C0.97044866 6.50200605 -2.4319064 10.95159308 -5.625 16.3125 C-6.8288996 18.38626926 -8.03199785 20.4605039 -9.234375 22.53515625 C-9.85892578 23.6039502 -10.48347656 24.67274414 -11.12695312 25.77392578 C-14.10271477 30.89927959 -16.98806903 36.07425684 -19.875 41.25 C-20.44686035 42.2714209 -21.0187207 43.2928418 -21.60791016 44.34521484 C-24.75428718 49.96642742 -27.88704776 55.59501224 -31.0078125 61.23046875 C-31.34223358 61.83398163 -31.67665466 62.43749451 -32.02120972 63.05929565 C-33.63344674 65.96894725 -35.2439193 68.87952732 -36.85107422 71.79199219 C-39.58587473 76.73164563 -42.34210105 81.6582209 -45.1875 86.53515625 C-45.63480469 87.30351807 -46.08210938 88.07187988 -46.54296875 88.86352539 C-49.1136792 92.6330105 -50.97811116 94.72130304 -55.4375 95.9375 C-59.50239238 96.0088139 -60.87663366 95.53245919 -64 93 C-66.82701543 89.69460476 -69.07188649 86.33834458 -71.171875 82.53515625 C-71.75050293 81.49367432 -72.32913086 80.45219238 -72.92529297 79.37915039 C-73.52744629 78.28465576 -74.12959961 77.19016113 -74.75 76.0625 C-75.99680854 73.81217451 -77.24420114 71.56217251 -78.4921875 69.3125 C-79.09256836 68.22839844 -79.69294922 67.14429688 -80.31152344 66.02734375 C-83.05623187 61.10623551 -85.89159326 56.23922907 -88.7421875 51.37890625 C-90 49 -90 49 -90 47 C-87 48 -87 48 -85.97265625 49.59375 C-85.67230469 50.2228125 -85.37195313 50.851875 -85.0625 51.5 C-83.588928 54.41802626 -83.588928 54.41802626 -80.75 55.9375 C-80.1725 55.958125 -79.595 55.97875 -79 56 C-79.20625 56.94875 -79.4125 57.8975 -79.625 58.875 C-79.74875 59.90625 -79.8725 60.9375 -80 62 C-78.10244856 64.34973818 -78.10244856 64.34973818 -74.875 64.125 C-73.92625 64.08375 -72.9775 64.0425 -72 64 C-72 67.33333333 -72 70.66666667 -72 74 C-71.14635667 76.98775164 -70.66505294 78.54948027 -68.0625 80.3125 C-65.88800267 81.15811388 -65.88800267 81.15811388 -63 81 C-63.33 83.31 -63.66 85.62 -64 88 C-60.6136749 89.50930183 -60.6136749 89.50930183 -57 90 C-57 89.34 -57 88.68 -57 88 C-56.01 88 -55.02 88 -54 88 C-54 88.66 -54 89.32 -54 90 C-51.03 89.505 -51.03 89.505 -48 89 C-47.87625 88.2575 -47.7525 87.515 -47.625 86.75 C-47.0430105 84.18924619 -46.19578604 82.31185302 -45 80 C-45 79.34 -45 78.68 -45 78 C-44.34 78 -43.68 78 -43 78 C-42.731875 77.030625 -42.46375 76.06125 -42.1875 75.0625 C-41.795625 74.051875 -41.40375 73.04125 -41 72 C-40.01 71.67 -39.02 71.34 -38 71 C-38.33 70.01 -38.66 69.02 -39 68 C-39.1544533 63.82976082 -38.98388771 60.05853682 -38 56 C-36.35 56.66 -34.7 57.32 -33 58 C-33 57.34 -33 56.68 -33 56 C-32.34 56 -31.68 56 -31 56 C-30.80341192 54.58456585 -30.61812454 53.16755969 -30.4375 51.75 C-30.28087891 50.56664062 -30.28087891 50.56664062 -30.12109375 49.359375 C-29.99972651 46.99467126 -30.30366743 45.2488963 -31 43 C-30.4225 42.87625 -29.845 42.7525 -29.25 42.625 C-26.97664233 41.99351176 -25.0746471 41.11141809 -23 40 C-23.061875 39.21625 -23.12375 38.4325 -23.1875 37.625 C-23.0946875 36.325625 -23.0946875 36.325625 -23 35 C-20 33 -20 33 -17 33 C-16.49632243 31.54293274 -15.99717444 30.08429904 -15.5 28.625 C-15.2215625 27.81289063 -14.943125 27.00078125 -14.65625 26.1640625 C-13.64986544 22.84538962 -14.29503568 20.3485805 -15 17 C-12.50935112 16.31292445 -10.62113708 16 -8 16 C-7.67 13.69 -7.34 11.38 -7 9 C-6.34 9 -5.68 9 -5 9 C-5.350625 8.4225 -5.70125 7.845 -6.0625 7.25 C-7.14917407 4.64198224 -6.93065133 3.60582371 -6 1 C-3.92446352 0.4465236 -2.15634036 0 0 0 Z " fill="#B33BED" transform="translate(263,296)"/>
<path d="M0 0 C0.85346463 2.40596068 1.1107898 3.65523675 0.3190918 6.11889648 C-0.05046631 6.86212158 -0.42002441 7.60534668 -0.80078125 8.37109375 C-1.40116211 9.60375977 -1.40116211 9.60375977 -2.01367188 10.86132812 C-2.44228516 11.71146484 -2.87089844 12.56160156 -3.3125 13.4375 C-4.14311142 15.12311483 -4.97257317 16.80929676 -5.80078125 18.49609375 C-6.19177002 19.28540283 -6.58275879 20.07471191 -6.9855957 20.88793945 C-7.76148559 22.50339634 -8.46101241 24.15573251 -9.125 25.8203125 C-10.08859741 28.22070246 -11.30534916 30.25256565 -12.6875 32.4375 C-16.5530043 38.7463848 -19.76340368 45.35444423 -23 52 C-22.01 52.495 -22.01 52.495 -21 53 C-21.4434375 53.40347656 -21.886875 53.80695313 -22.34375 54.22265625 C-24.1619539 56.17379487 -25.25997253 58.08065293 -26.5 60.4375 C-27.74599403 62.79770022 -28.95517747 64.94116348 -30.57421875 67.06640625 C-32.29668899 69.40235904 -33.08729739 71.86490482 -34.05078125 74.58203125 C-36.36559618 80.47861743 -39.31226529 86.22817291 -42.60546875 91.63671875 C-44.12982462 94.22001092 -45.04460675 96.86859552 -46.04296875 99.6875 C-47.58289763 103.408471 -49.65304906 106.82432702 -51.6953125 110.2890625 C-53.10332979 113.21470323 -53.48795853 115.8144677 -54 119 C-55.9375 120.3125 -55.9375 120.3125 -58 121 C-58.99 121.495 -58.99 121.495 -60 122 C-63.54382021 120.99848559 -66.73295477 119.67595178 -70 118 C-69.85915204 116.20793453 -69.71216299 114.41635083 -69.5625 112.625 C-69.48128906 111.62726563 -69.40007812 110.62953125 -69.31640625 109.6015625 C-69 107 -69 107 -68 105 C-67.77532169 103.46331135 -67.59203195 101.92031946 -67.4375 100.375 C-67.35371094 99.55773437 -67.26992187 98.74046875 -67.18359375 97.8984375 C-67.12300781 97.27195312 -67.06242188 96.64546875 -67 96 C-66.34 96 -65.68 96 -65 96 C-65.33 92.7 -65.66 89.4 -66 86 C-65.34 86 -64.68 86 -64 86 C-63.855625 84.700625 -63.71125 83.40125 -63.5625 82.0625 C-63.125 78.125 -63.125 78.125 -62 77 C-61.79224439 75.33795513 -61.63281745 73.66970509 -61.5 72 C-61.11111111 67.11111111 -61.11111111 67.11111111 -60 66 C-59.76924918 64.65252916 -59.58846937 63.29622435 -59.4375 61.9375 C-59.2209375 59.9884375 -59.2209375 59.9884375 -59 58 C-58.34 58 -57.68 58 -57 58 C-57.02320313 57.39414062 -57.04640625 56.78828125 -57.0703125 56.1640625 C-57.20509644 49.90623649 -56.67461002 44.05059826 -55 38 C-54.505 37.505 -54.505 37.505 -54 37 C-53.92820036 35.48071962 -53.91607993 33.95832518 -53.9375 32.4375 C-53.94652344 31.61121094 -53.95554688 30.78492188 -53.96484375 29.93359375 C-53.97644531 29.29550781 -53.98804688 28.65742188 -54 28 C-53.01 28 -52.02 28 -51 28 C-51 26.35 -51 24.7 -51 23 C-50.67 23 -50.34 23 -50 23 C-49.62150174 28.55130777 -50.71718099 33.14185498 -52.14453125 38.49609375 C-53.11127206 42.45575816 -53.8240757 46.42002811 -54.5 50.4375 C-55.34478469 55.44614193 -56.28211975 60.37754775 -57.5 65.3125 C-58.81945913 70.78176063 -59.65859482 76.24746882 -60.4375 81.8125 C-61.51859771 89.51914069 -63.07364075 96.91946629 -65.1328125 104.421875 C-66.07745371 108.31958379 -66.64559196 112.00642652 -67 116 C-65.90460858 117.29113396 -65.90460858 117.29113396 -63.25 117.4375 C-59.86261853 117.28604331 -59.86261853 117.28604331 -57.5 114.8125 C-53.28737159 109.11386351 -50.49937881 102.09324088 -48.07421875 95.47265625 C-47 93 -47 93 -45.13671875 90.2265625 C-42.61909614 86.42481428 -40.72342572 82.50518093 -38.8125 78.375 C-38.45736328 77.62476563 -38.10222656 76.87453125 -37.73632812 76.1015625 C-36.1684629 72.7456764 -34.81229712 69.62735289 -34 66 C-33.34 66 -32.68 66 -32 66 C-32 64.68 -32 63.36 -32 62 C-31.34 62 -30.68 62 -30 62 C-29.74347656 61.16082031 -29.48695313 60.32164062 -29.22265625 59.45703125 C-27.8972093 55.70936175 -26.23881163 52.22102825 -24.4375 48.6875 C-24.09033936 47.99744873 -23.74317871 47.30739746 -23.38549805 46.59643555 C-21.52231008 42.91445086 -19.61337656 39.26151935 -17.6484375 35.6328125 C-13.54737016 28.0528793 -9.86487345 20.71574084 -7.0703125 12.5390625 C-5.99203364 9.9811017 -4.98752142 8.86099486 -3 7 C-2.02284391 5.19809386 -2.02284391 5.19809386 -1.3125 3.3125 C-0.879375 2.219375 -0.44625 1.12625 0 0 Z " fill="#AD56D1" transform="translate(268,208)"/>
<path d="M0 0 C1.98 0.66 3.96 1.32 6 2 C6.061875 3.03125 6.12375 4.0625 6.1875 5.125 C7.14971425 9.71402182 8.8356783 11.60965532 12 15 C13.98571511 17.48214389 14.9841675 18.95250249 16 22 C16.515625 22.45375 17.03125 22.9075 17.5625 23.375 C19 25 19 25 19.1875 27.6875 C19.0946875 28.8321875 19.0946875 28.8321875 19 30 C19.99 30 20.98 30 22 30 C22.33 32.31 22.66 34.62 23 37 C24.65 37 26.3 37 28 37 C27.95875 37.78375 27.9175 38.5675 27.875 39.375 C27.71271266 42.16116119 27.71271266 42.16116119 30 44 C30.2977833 45.32348135 30.54298329 46.65932037 30.75 48 C31.15610332 50.14223695 31.15610332 50.14223695 32 52 C34.99428144 53.61147442 34.99428144 53.61147442 38 54 C38.50678878 57.0407327 39.00763242 60.06360352 39.375 63.125 C40.04379315 66.20144851 40.78178938 67.78178938 43 70 C43.99 70 44.98 70 46 70 C46.061875 71.093125 46.12375 72.18625 46.1875 73.3125 C46.6132233 77.14332716 46.6132233 77.14332716 49.5625 78.9375 C50.366875 79.288125 51.17125 79.63875 52 80 C51.49396008 82.16874252 51.00016187 83.99967627 50 86 C50.66 86 51.32 86 52 86 C52 86.99 52 87.98 52 89 C52.66 89 53.32 89 54 89 C54.66 90.98 55.32 92.96 56 95 C57.32 95 58.64 95 60 95 C60.99 95.99 60.99 95.99 62 97 C61.01 97.33 60.02 97.66 59 98 C58.26676204 100.01508358 58.26676204 100.01508358 58 102 C52.26581013 92.39457134 46.69177538 82.71175411 41.25 72.9375 C36.62552125 64.63679927 31.93050127 56.38475772 27.125 48.1875 C22.18960685 39.76635342 17.28894069 31.32662271 12.43841553 22.85635376 C11.73923006 21.63581903 11.0392607 20.41573296 10.33843994 19.19613647 C6.70884156 12.8777395 3.16888781 6.56297578 0 0 Z " fill="#6CA1F0" transform="translate(33,99)"/>
<path d="M0 0 C0.66 0.33 1.32 0.66 2 1 C-5.40260797 14.78536616 -12.92347139 28.4925557 -20.65234375 42.09765625 C-24.29434583 48.50883765 -27.89933804 54.94053208 -31.5 61.375 C-32.07548584 62.40294678 -32.65097168 63.43089355 -33.24389648 64.48999023 C-36.50646473 70.32083074 -39.75934777 76.1569504 -43 82 C-43.97759825 78.91387275 -44.09800128 78.23476192 -42.78515625 75.08984375 C-42.21667969 74.04957031 -41.64820313 73.00929688 -41.0625 71.9375 C-38.6355777 67.70346198 -38.6355777 67.70346198 -38 63 C-36.68 62.34 -35.36 61.68 -34 61 C-34 60.34 -34 59.68 -34 59 C-33.34 59 -32.68 59 -32 59 C-31.17361624 56.10765685 -31 54.11257569 -31 51 C-31 48.66666667 -31 46.33333333 -31 44 C-29.02 44 -27.04 44 -25 44 C-22.88671 39.91916414 -20.93414759 35.97164672 -19.4375 31.625 C-18 28 -18 28 -15 26 C-14.87625 25.0925 -14.7525 24.185 -14.625 23.25 C-13.81798404 19.05351699 -11.81041609 17.15314976 -9 14 C-6.57681384 10.42291566 -6.83665696 7.24691895 -7 3 C-5.02 3 -3.04 3 -1 3 C-0.67 2.01 -0.34 1.02 0 0 Z " fill="#9B5BE8" transform="translate(359,125)"/>
<path d="M0 0 C0.66 0 1.32 0 2 0 C4.10446181 2.82787056 5.78988414 5.45617071 7.0625 8.75 C7.89310465 11.32935324 7.89310465 11.32935324 11 13 C11.33 13.99 11.66 14.98 12 16 C12.66 16.66 13.32 17.32 14 18 C14 19.32 14 20.64 14 22 C16.39068734 23.10636395 16.39068734 23.10636395 19 24 C19.66 23.67 20.32 23.34 21 23 C21.55187827 26.23242986 22.04303021 29.4231304 22.375 32.6875 C23.04650844 36.24649474 23.48870795 36.68961131 26 39 C27.1875 42.1875 27.1875 42.1875 28 45 C28.66 45 29.32 45 30 45 C30.103125 46.093125 30.20625 47.18625 30.3125 48.3125 C30.71140046 51.86283097 30.71140046 51.86283097 32.3125 53.875 C34.19619717 55.13079812 35.77888714 55.61704951 38 56 C37.67 56.99 37.34 57.98 37 59 C37.33 59.33 37.66 59.66 38 60 C38.2475 61.134375 38.495 62.26875 38.75 63.4375 C39.61324494 67.16843965 39.61324494 67.16843965 42.625 68.4375 C43.40875 68.623125 44.1925 68.80875 45 69 C44.67 70.65 44.34 72.3 44 74 C43.01 74 42.02 74 41 74 C40.12601563 72.41638672 40.12601563 72.41638672 39.234375 70.80078125 C28.80609296 51.94475356 18.02750209 33.2905612 7.25 14.6328125 C6.68667969 13.65473633 6.12335938 12.67666016 5.54296875 11.66894531 C4.59464013 10.02857688 3.64025502 8.39167018 2.67578125 6.76074219 C0 2.20956689 0 2.20956689 0 0 Z M4 2 C6 3 6 3 6 3 Z " fill="#A056E5" transform="translate(130,268)"/>
<path d="M0 0 C0.9075 0.33 1.815 0.66 2.75 1 C2.75 1.66 2.75 2.32 2.75 3 C1.821875 2.814375 0.89375 2.62875 -0.0625 2.4375 C-3.26343771 1.75876119 -3.26343771 1.75876119 -6.25 3 C-6.25 2.34 -6.25 1.68 -6.25 1 C-8.89 1 -11.53 1 -14.25 1 C-14.58 1.99 -14.91 2.98 -15.25 4 C-16.24 4.33 -17.23 4.66 -18.25 5 C-18.25 6.98 -18.25 8.96 -18.25 11 C-17.59 11.33 -16.93 11.66 -16.25 12 C-15.5625 13.9375 -15.5625 13.9375 -15.25 16 C-15.58 16.66 -15.91 17.32 -16.25 18 C-15.59 18 -14.93 18 -14.25 18 C-14.05664062 18.62648438 -13.86328125 19.25296875 -13.6640625 19.8984375 C-13.40367188 20.71570313 -13.14328125 21.53296875 -12.875 22.375 C-12.61976562 23.18710938 -12.36453125 23.99921875 -12.1015625 24.8359375 C-11.35145717 27.16459185 -11.35145717 27.16459185 -9.25 29 C-8.26 29 -7.27 29 -6.25 29 C-5.92 31.64 -5.59 34.28 -5.25 37 C-2.75935112 37.68707555 -0.87113708 38 1.75 38 C1.75 39.66666667 1.75 41.33333333 1.75 43 C1.09 43 0.43 43 -0.25 43 C0.80875074 46.40312738 1.75902154 49.01353231 3.75 52 C6.83365871 52.2502157 6.83365871 52.2502157 9.75 52 C9.75 53.65 9.75 55.3 9.75 57 C5.65791863 56.19355157 3.34593715 55.70779877 0.61303711 52.46191406 C0.0278833 51.40713867 -0.55727051 50.35236328 -1.16015625 49.265625 C-1.48806656 48.69080383 -1.81597687 48.11598267 -2.15382385 47.52374268 C-2.84783983 46.30652423 -3.53350782 45.08451248 -4.21124268 43.8581543 C-5.56528751 41.43600606 -6.99794174 39.06546883 -8.43270874 36.69055176 C-9.85579726 34.32359757 -11.2460937 31.93818787 -12.63452148 29.55078125 C-13.34283032 28.33944669 -14.05747692 27.13179813 -14.77807617 25.92773438 C-22.43240373 13.12525702 -22.43240373 13.12525702 -22.25 5 C-17.44493319 -2.95321403 -8.29014141 -2.40022575 0 0 Z " fill="#5AC5F0" transform="translate(30.25,44)"/>
<path d="M0 0 C0.33 0 0.66 0 1 0 C1.02703562 2.58340384 1.04685611 5.16652308 1.0625 7.75 C1.07087891 8.47960937 1.07925781 9.20921875 1.08789062 9.9609375 C1.10401494 13.50828646 0.85804173 16.58257749 0 20 C-0.13067778 21.49201693 -0.22206761 22.98781607 -0.28125 24.484375 C-0.31863281 25.33773437 -0.35601562 26.19109375 -0.39453125 27.0703125 C-0.42933594 27.95460938 -0.46414062 28.83890625 -0.5 29.75 C-0.87357377 39.0755082 -0.87357377 39.0755082 -1.5 43.65625 C-2.4029985 50.30165006 -2.33602722 57.0531676 -2.5 63.75 C-2.71070583 72.26881701 -3.01406259 80.73098721 -3.79052734 89.22167969 C-4.13060913 93.73232161 -4.10688761 98.22929298 -4.0625 102.75 C-4.05798828 103.64976562 -4.05347656 104.54953125 -4.04882812 105.4765625 C-4.03726159 107.65107182 -4.01933803 109.82554591 -4 112 C-0.37 112 3.26 112 7 112 C2.9152942 114.7231372 0.92603003 115.30787688 -4 115 C-6 113 -6 113 -6.24723816 111.10253906 C-6.24581314 110.33135742 -6.24438812 109.56017578 -6.24291992 108.765625 C-6.24599655 107.89131836 -6.24907318 107.01701172 -6.25224304 106.11621094 C-6.24505753 105.17036133 -6.23787201 104.22451172 -6.23046875 103.25 C-6.23001053 102.28094727 -6.22955231 101.31189453 -6.2290802 100.31347656 C-6.22605596 98.26235735 -6.21816454 96.21124048 -6.20581055 94.16015625 C-6.18757497 91.01293845 -6.18530069 87.86601506 -6.18554688 84.71875 C-6.18063098 82.72916411 -6.17480235 80.73958023 -6.16796875 78.75 C-6.16685593 77.80415039 -6.1657431 76.85830078 -6.16459656 75.88378906 C-6.15821671 75.00948242 -6.15183685 74.13517578 -6.14526367 73.234375 C-6.14145187 72.46319336 -6.13764008 71.69201172 -6.13371277 70.89746094 C-6 69 -6 69 -5 67 C-4.88017378 65.07536089 -4.82065655 63.1468568 -4.7890625 61.21875 C-4.76263672 59.99953857 -4.73621094 58.78032715 -4.70898438 57.52416992 C-4.69569092 56.86903412 -4.68239746 56.21389832 -4.66870117 55.53890991 C-4.39375517 42.71110446 -3.64480941 29.96657652 -2.5 17.1875 C-2.43419739 16.43758789 -2.36839478 15.68767578 -2.30059814 14.91503906 C-1.19049698 2.38099395 -1.19049698 2.38099395 0 0 Z " fill="#8A9EC8" transform="translate(149,64)"/>
<path d="M0 0 C0.33 0 0.66 0 1 0 C1.37849826 5.55130777 0.28281901 10.14185498 -1.14453125 15.49609375 C-2.11127206 19.45575816 -2.8240757 23.42002811 -3.5 27.4375 C-4.34478469 32.44614193 -5.28211975 37.37754775 -6.5 42.3125 C-7.81945913 47.78176063 -8.65859482 53.24746882 -9.4375 58.8125 C-10.51859771 66.51914069 -12.07364075 73.91946629 -14.1328125 81.421875 C-15.07745371 85.31958379 -15.64559196 89.00642652 -16 93 C-14.88898816 94.33648017 -14.88898816 94.33648017 -12.0625 94.125 C-9.08454272 94.21325664 -9.08454272 94.21325664 -7 93 C-7.33 93.99 -7.66 94.98 -8 96 C-9.45823212 96.0270043 -10.91660675 96.04639787 -12.375 96.0625 C-13.18710938 96.07410156 -13.99921875 96.08570313 -14.8359375 96.09765625 C-17 96 -17 96 -19 95 C-18.85915204 93.20793453 -18.71216299 91.41635083 -18.5625 89.625 C-18.48128906 88.62726563 -18.40007812 87.62953125 -18.31640625 86.6015625 C-18 84 -18 84 -17 82 C-16.77532169 80.46331135 -16.59203195 78.92031946 -16.4375 77.375 C-16.35371094 76.55773437 -16.26992187 75.74046875 -16.18359375 74.8984375 C-16.12300781 74.27195312 -16.06242188 73.64546875 -16 73 C-15.34 73 -14.68 73 -14 73 C-14.33 69.7 -14.66 66.4 -15 63 C-14.34 63 -13.68 63 -13 63 C-12.7834375 61.0509375 -12.7834375 61.0509375 -12.5625 59.0625 C-12.125 55.125 -12.125 55.125 -11 54 C-10.79224439 52.33795513 -10.63281745 50.66970509 -10.5 49 C-10.11111111 44.11111111 -10.11111111 44.11111111 -9 43 C-8.76924918 41.65252916 -8.58846937 40.29622435 -8.4375 38.9375 C-8.2209375 36.9884375 -8.2209375 36.9884375 -8 35 C-7.34 35 -6.68 35 -6 35 C-6.02320313 34.39414062 -6.04640625 33.78828125 -6.0703125 33.1640625 C-6.20509644 26.90623649 -5.67461002 21.05059826 -4 15 C-3.67 14.67 -3.34 14.34 -3 14 C-2.92820036 12.48071962 -2.91607993 10.95832518 -2.9375 9.4375 C-2.94652344 8.61121094 -2.95554688 7.78492188 -2.96484375 6.93359375 C-2.97644531 6.29550781 -2.98804688 5.65742188 -3 5 C-2.01 5 -1.02 5 0 5 C0 3.35 0 1.7 0 0 Z " fill="#BE62AC" transform="translate(217,231)"/>
<path d="M0 0 C0.79921875 0.03609375 1.5984375 0.0721875 2.421875 0.109375 C3.02515625 0.15578125 3.6284375 0.2021875 4.25 0.25 C1.02588233 3.01352943 -1.78520428 4.77069807 -5.75 6.25 C-5.72679687 7.30960938 -5.70359375 8.36921875 -5.6796875 9.4609375 C-5.66093056 10.8489513 -5.64273028 12.2369727 -5.625 13.625 C-5.60824219 14.32367188 -5.59148437 15.02234375 -5.57421875 15.7421875 C-5.55655733 17.57897486 -5.64696739 19.41601963 -5.75 21.25 C-6.41 21.91 -7.07 22.57 -7.75 23.25 C-7.972168 26.3108554 -8.07544684 29.28798431 -8.09375 32.3515625 C-8.1083728 33.2619931 -8.12299561 34.17242371 -8.13806152 35.11044312 C-8.18466368 38.03191702 -8.21877011 40.95332375 -8.25 43.875 C-8.29134243 47.70076485 -8.34519211 51.52606726 -8.40625 55.3515625 C-8.4115271 56.22269684 -8.4168042 57.09383118 -8.42224121 57.99136353 C-8.50906297 63.38806571 -9.24840349 68.0610999 -10.75 73.25 C-11.08 73.25 -11.41 73.25 -11.75 73.25 C-11.77703562 70.66659616 -11.79685611 68.08347692 -11.8125 65.5 C-11.82087891 64.77039063 -11.82925781 64.04078125 -11.83789062 63.2890625 C-11.86343816 57.66860439 -11.86343816 57.66860439 -11.26147461 55.44726562 C-10.54276145 52.35971507 -10.54492313 49.37079271 -10.46875 46.203125 C-10.45034058 45.51426208 -10.43193115 44.82539917 -10.41296387 44.11566162 C-10.35444186 41.91052505 -10.30171329 39.70530596 -10.25 37.5 C-10.12867165 32.47564549 -9.99268936 27.45234625 -9.82080078 22.42944336 C-9.77280252 20.95192443 -9.73100614 19.47419339 -9.69482422 17.99633789 C-9.63825676 15.80375485 -9.55634843 13.61341122 -9.46875 11.421875 C-9.42685547 10.13893555 -9.38496094 8.85599609 -9.34179688 7.53417969 C-8.34173707 1.98434285 -5.57637768 -0.32802222 0 0 Z " fill="#EED360" transform="translate(159.75,26.75)"/>
<path d="M0 0 C0.99 0.33 1.98 0.66 3 1 C3 1.66 3 2.32 3 3 C3.66 3 4.32 3 5 3 C5.51708533 13.93539713 5.51708533 13.93539713 2 19 C1.28076792 22.69523952 1.28076792 22.69523952 1 26 C0.34 26 -0.32 26 -1 26 C-0.98839844 26.71027344 -0.97679687 27.42054688 -0.96484375 28.15234375 C-0.95130859 29.53099609 -0.95130859 29.53099609 -0.9375 30.9375 C-0.92589844 31.85402344 -0.91429687 32.77054687 -0.90234375 33.71484375 C-1 36 -1 36 -2 37 C-2.24479131 40.03722557 -2.38408365 43.07340606 -2.5234375 46.1171875 C-3.05843421 49.3534791 -3.70877242 49.85234804 -6 52 C-6.500538 54.20722764 -6.500538 54.20722764 -6.5625 56.5625 C-6.79166667 60.79166667 -6.79166667 60.79166667 -9 63 C-8.72147654 55.64698061 -7.58089755 48.89931645 -5.65991211 41.80029297 C-3.68614154 34.25858932 -2.51181999 26.59334715 -1.30737305 18.89746094 C-1.15051025 17.90262695 -0.99364746 16.90779297 -0.83203125 15.8828125 C-0.69514893 14.98965332 -0.5582666 14.09649414 -0.41723633 13.17626953 C0 11 0 11 1 9 C1.3052622 4.34724024 1.3052622 4.34724024 0 0 Z " fill="#EC9C4C" transform="translate(216,229)"/>
<path d="M0 0 C-3.69880785 2.4658719 -6.28702757 2.39803736 -10.625 2.65625 C-13.26194296 2.86422231 -13.26194296 2.86422231 -16 5 C-18.10561575 4.96657753 -20.21125167 4.93030784 -22.31640625 4.875 C-28.4013242 5.1584314 -37.60344233 6.60344233 -42 11 C-42.99 11.66 -43.98 12.32 -45 13 C-45.69484805 15.97680514 -45.69484805 15.97680514 -46 19.375 C-46.4910213 23.90671738 -46.96963742 26.56053847 -50 30 C-50.99 31.485 -50.99 31.485 -52 33 C-51.55233883 27.35946922 -50.67720924 22.53149785 -48.76171875 17.21484375 C-47.99784183 14.99372469 -47.41661126 12.78454072 -46.875 10.5 C-46 7 -46 7 -45 6 C-42.91730518 5.58176165 -40.82347392 5.21876432 -38.7265625 4.87890625 C-37.42589844 4.66556641 -36.12523437 4.45222656 -34.78515625 4.23242188 C-33.39846793 4.00892572 -32.01174897 3.78561957 -30.625 3.5625 C-28.61105063 3.23522718 -26.59729656 2.90679338 -24.5836792 2.57748413 C-22.61895409 2.2567454 -20.65371675 1.93914954 -18.68847656 1.62158203 C-14.52240062 0.91951496 -10.38295829 0.11352918 -6.24755859 -0.75024414 C-3.87756576 -1.01360528 -2.25456003 -0.72682875 0 0 Z " fill="#8B86E0" transform="translate(327,55)"/>
<path d="M0 0 C2 2 2 2 2.01171875 5.5625 C1.91486862 7.04244386 1.80612875 8.52164246 1.6875 10 C1.63408447 10.76368896 1.58066895 11.52737793 1.52563477 12.31420898 C1.12397378 17.88732892 0.61705296 23.4465234 0 29 C-0.66 29 -1.32 29 -2 29 C-1.938125 30.258125 -1.87625 31.51625 -1.8125 32.8125 C-1.80181664 39.55369757 -3.24142663 46.36213995 -7 52 C-4.09550562 27.09550562 -4.09550562 27.09550562 -2 25 C-1.59553544 22.24846006 -1.24571417 19.51251215 -0.9375 16.75 C-0.84662109 15.98558594 -0.75574219 15.22117188 -0.66210938 14.43359375 C-0.22200612 10.60171733 0.11593559 6.86451976 0 3 C-1.47906892 2.97310784 -2.95827483 2.95365379 -4.4375 2.9375 C-5.26121094 2.92589844 -6.08492187 2.91429687 -6.93359375 2.90234375 C-8.99163938 2.76732652 -8.99163938 2.76732652 -10 4 C-12.0572917 4.31923492 -14.11613521 4.51161352 -16.1875 4.71875 C-18.0167533 4.81998043 -18.0167533 4.81998043 -19 6 C-21.01594582 6.23427778 -23.038474 6.41336124 -25.0625 6.5625 C-26.16722656 6.64628906 -27.27195313 6.73007813 -28.41015625 6.81640625 C-29.26480469 6.87699219 -30.11945313 6.93757812 -31 7 C-30.67 6.34 -30.34 5.68 -30 5 C-27.70911719 4.40880444 -25.38945126 3.9277313 -23.0625 3.5 C-21.691373 3.24366737 -20.32027931 2.98715652 -18.94921875 2.73046875 C-18.27552246 2.60720215 -17.60182617 2.48393555 -16.90771484 2.35693359 C-13.64153341 1.7458308 -10.39634118 1.03289468 -7.1484375 0.33203125 C-4.69940373 -0.04645579 -2.47362058 -0.18490519 0 0 Z " fill="#A07FB3" transform="translate(191,169)"/>
<path d="M0 0 C3.79153455 1.26384485 4.75123174 2.73565898 7 6 C7.70164642 7.98799818 8.37372872 9.98698517 9 12 C9.66 12.66 10.32 13.32 11 14 C11.99 14 12.98 14 14 14 C14.061875 15.093125 14.12375 16.18625 14.1875 17.3125 C14.6132233 21.14332716 14.6132233 21.14332716 17.5625 22.9375 C18.7690625 23.4634375 18.7690625 23.4634375 20 24 C19.49396008 26.16874252 19.00016187 27.99967627 18 30 C18.66 30 19.32 30 20 30 C20 30.99 20 31.98 20 33 C20.66 33 21.32 33 22 33 C22.66 34.98 23.32 36.96 24 39 C25.32 39 26.64 39 28 39 C28.66 39.66 29.32 40.32 30 41 C28.515 41.495 28.515 41.495 27 42 C26.26676204 44.01508358 26.26676204 44.01508358 26 46 C20.01742434 35.97849653 14.20170297 25.87164138 8.5 15.6875 C7.88882324 14.59638916 7.27764648 13.50527832 6.64794922 12.38110352 C1.89044082 3.86040197 1.89044082 3.86040197 0 0 Z " fill="#7890EE" transform="translate(65,155)"/>
<path d="M0 0 C0.99 0.33 1.98 0.66 3 1 C1.59922427 7.33267363 -0.76188015 12.90980617 -3.875 18.5625 C-4.20242187 19.18205566 -4.52984375 19.80161133 -4.8671875 20.43994141 C-6.55432392 23.39490154 -7.46291549 24.82426838 -10.7578125 25.90234375 C-11.86769531 25.95068359 -11.86769531 25.95068359 -13 26 C-13.08912219 22.16774573 -12.87867729 18.73437848 -12 15 C-9.525 15.99 -9.525 15.99 -7 17 C-7 16.34 -7 15.68 -7 15 C-6.34 15 -5.68 15 -5 15 C-4.80341192 13.58456585 -4.61812454 12.16755969 -4.4375 10.75 C-4.33308594 9.96109375 -4.22867188 9.1721875 -4.12109375 8.359375 C-3.99972651 5.99467126 -4.30366743 4.2488963 -5 2 C-4.360625 1.855625 -3.72125 1.71125 -3.0625 1.5625 C-1.02454854 1.18992819 -1.02454854 1.18992819 0 0 Z " fill="#BC35FA" transform="translate(237,337)"/>
<path d="M0 0 C0.66 0.33 1.32 0.66 2 1 C2.15377402 14.70785506 -1.86869041 27.04600276 -6 40 C-6.33 40 -6.66 40 -7 40 C-7.2319794 35.16584869 -6.38947032 30.98495917 -5.0625 26.375 C-4.69909744 25.07034628 -4.33581274 23.76565973 -3.97265625 22.4609375 C-3.65167969 21.31882812 -3.33070313 20.17671875 -3 19 C-2.65970873 17.66842547 -2.32215107 16.33607918 -2 15 C-2.66 15 -3.32 15 -4 15 C-4.66 13.02 -5.32 11.04 -6 9 C-5.34 9 -4.68 9 -4 9 C-4.0825 8.071875 -4.165 7.14375 -4.25 6.1875 C-4 3 -4 3 -2 1.125 C-1.34 0.75375 -0.68 0.3825 0 0 Z " fill="#FCE04C" transform="translate(294,2)"/>
<path d="M0 0 C9.67285369 1.31488321 19.27072283 2.87691992 28.875 4.625 C30.14730469 4.85445312 31.41960937 5.08390625 32.73046875 5.3203125 C35.82072052 5.87795192 38.9104205 6.43864783 42 7 C42 11.95 42 16.9 42 22 C41.34 22 40.68 22 40 22 C40 19.03 40 16.06 40 13 C38.68 13.33 37.36 13.66 36 14 C36.33 12.68 36.66 11.36 37 10 C30.52682323 5.68454882 22.56166317 5.75607538 15 6 C15 5.34 15 4.68 15 4 C14.08476563 3.87882812 13.16953125 3.75765625 12.2265625 3.6328125 C11.03804687 3.46523438 9.84953125 3.29765625 8.625 3.125 C7.44164063 2.96257813 6.25828125 2.80015625 5.0390625 2.6328125 C2 2 2 2 0 0 Z " fill="#6DA4E9" transform="translate(106,58)"/>
<path d="M0 0 C0.33 0 0.66 0 1 0 C1.32863062 6.51175488 1.01024985 11.64573053 -1.3359375 17.73046875 C-2.32752441 21.11936285 -2.17456314 24.33417406 -2.0078125 27.8359375 C-2 30 -2 30 -3 33 C-2.566875 32.525625 -2.13375 32.05125 -1.6875 31.5625 C0 30 0 30 3 29 C4.20882096 26.99983534 4.20882096 26.99983534 5 25 C5.66 25 6.32 25 7 25 C6.67 23.35 6.34 21.7 6 20 C7.32 20 8.64 20 10 20 C8.81172067 25.82256869 6.7432415 30.21883107 2 34 C-1.25 34.5625 -1.25 34.5625 -4 34 C-4.66 33.34 -5.32 32.68 -6 32 C-5.57187902 25.79224572 -4.07442181 19.98626062 -2.4609375 14 C-1.24132841 9.34000109 -0.51338664 4.79160866 0 0 Z " fill="#F9A324" transform="translate(206,292)"/>
<path d="M0 0 C0.66 0 1.32 0 2 0 C2.20086443 3.71599191 2.1519437 4.77208445 0 8 C-0.51565889 9.73397386 -0.96576268 11.48787224 -1.375 13.25 C-2.57498554 18.27147795 -3.84780502 23.26448027 -5.1875 28.25 C-5.36651855 28.91805664 -5.54553711 29.58611328 -5.72998047 30.27441406 C-6.15248323 31.84983411 -6.57611401 33.42495157 -7 35 C-7.66 35 -8.32 35 -9 35 C-9 37.31 -9 39.62 -9 42 C-9.33 42 -9.66 42 -10 42 C-10.02688151 40.35425434 -10.04634123 38.70838587 -10.0625 37.0625 C-10.07410156 36.14597656 -10.08570313 35.22945312 -10.09765625 34.28515625 C-10 32 -10 32 -9 31 C-8.76518307 28.81707226 -8.58636677 26.62796826 -8.4375 24.4375 C-8.35371094 23.23996094 -8.26992188 22.04242188 -8.18359375 20.80859375 C-8.12300781 19.88175781 -8.06242187 18.95492187 -8 18 C-7.01 17.67 -6.02 17.34 -5 17 C-4.29910757 15.16282859 -4.29910757 15.16282859 -4 12.9375 C-3.13481099 8.36226318 -1.72803361 4.32008403 0 0 Z " fill="#F6CC46" transform="translate(281,56)"/>
<path d="M0 0 C0.33 0 0.66 0 1 0 C1.10129249 4.76074718 0.78893341 9.26827273 0.12109375 13.984375 C-0.13803095 16.20682479 -0.13803095 16.20682479 1 19 C4.55901458 18.64409854 7.43483693 18.2960378 10.625 16.625 C17.56383539 13.28407926 25.31583017 11.75697656 33 12 C33.495 12.99 33.495 12.99 34 14 C33.34773438 14.03738281 32.69546875 14.07476562 32.0234375 14.11328125 C26.6714569 14.51586386 22.69301497 15.18419102 18 18 C15.13822943 19.43088528 13.06624227 18.59991697 10 18 C10 18.66 10 19.32 10 20 C8.37536158 20.05395478 6.75021459 20.09277195 5.125 20.125 C4.22007812 20.14820313 3.31515625 20.17140625 2.3828125 20.1953125 C0 20 0 20 -2 18 C-2.14497985 15.41935871 -2.18677545 12.95056116 -2.125 10.375 C-2.11597656 9.66859375 -2.10695312 8.9621875 -2.09765625 8.234375 C-2.07407603 6.48943902 -2.03820461 4.74467705 -2 3 C-1.34 3 -0.68 3 0 3 C0 2.01 0 1.02 0 0 Z " fill="#A76EC4" transform="translate(183,217)"/>
<path d="M0 0 C0.99 0 1.98 0 3 0 C3.66 0.99 4.32 1.98 5 3 C5.66 3.66 6.32 4.32 7 5 C6.6875 6.875 6.6875 6.875 6 9 C5.814375 9.7425 5.62875 10.485 5.4375 11.25 C5.293125 11.8275 5.14875 12.405 5 13 C4.34 13 3.68 13 3 13 C2.87625 13.639375 2.7525 14.27875 2.625 14.9375 C2.315625 15.9584375 2.315625 15.9584375 2 17 C1.34 17.33 0.68 17.66 0 18 C0.33 17.154375 0.66 16.30875 1 15.4375 C2.06327768 11.78248298 2.07199483 8.78422829 2 5 C1.22285645 5.12117188 0.44571289 5.24234375 -0.35498047 5.3671875 C-3.86141303 5.91301744 -7.36819973 6.45653776 -10.875 7 C-12.09832031 7.19078125 -13.32164062 7.3815625 -14.58203125 7.578125 C-15.74863281 7.75859375 -16.91523438 7.9390625 -18.1171875 8.125 C-19.73536377 8.37636719 -19.73536377 8.37636719 -21.38623047 8.6328125 C-24 9 -24 9 -26 9 C-26 8.34 -26 7.68 -26 7 C-23.03 7 -20.06 7 -17 7 C-17 6.34 -17 5.68 -17 5 C-14.03 5 -11.06 5 -8 5 C-8 4.34 -8 3.68 -8 3 C-5.36 2.67 -2.72 2.34 0 2 C0 1.34 0 0.68 0 0 Z " fill="#9472E4" transform="translate(320,88)"/>
<path d="M0 0 C1.23076923 6.4 1.23076923 6.4 0.0625 9.4375 C-0.4634375 10.2109375 -0.4634375 10.2109375 -1 11 C-2.53445094 7.93109813 -1.54984289 5.29905734 -1 2 C-4.08380096 2.47618832 -7.16695046 2.95647268 -10.25 3.4375 C-11.12269531 3.57220703 -11.99539063 3.70691406 -12.89453125 3.84570312 C-13.73886719 3.97783203 -14.58320313 4.10996094 -15.453125 4.24609375 C-16.22817383 4.36654053 -17.00322266 4.4869873 -17.80175781 4.61108398 C-19.99902417 4.97173816 -19.99902417 4.97173816 -22.12304688 5.54101562 C-24.53660978 6.13122091 -26.76948317 6.09513838 -29.25 6.0625 C-30.14203125 6.05347656 -31.0340625 6.04445313 -31.953125 6.03515625 C-32.62859375 6.02355469 -33.3040625 6.01195313 -34 6 C-34 6.66 -34 7.32 -34 8 C-38.29 8 -42.58 8 -47 8 C-47 7.67 -47 7.34 -47 7 C-45.7625 6.896875 -44.525 6.79375 -43.25 6.6875 C-39.57674743 6.28315747 -36.13194583 5.57585656 -32.5625 4.625 C-27.32497562 3.2601509 -22.08152754 2.22197334 -16.75 1.3125 C-16.00564697 1.18117676 -15.26129395 1.04985352 -14.49438477 0.91455078 C-9.6005071 0.10443216 -4.96012612 -0.11783105 0 0 Z " fill="#E2BA71" transform="translate(322,93)"/>
<path d="M0 0 C1.258125 -0.04125 2.51625 -0.0825 3.8125 -0.125 C4.52019531 -0.14820313 5.22789062 -0.17140625 5.95703125 -0.1953125 C8 0 8 0 11 2 C11.3984375 4.0234375 11.3984375 4.0234375 11.375 6.375 C11.38660156 7.53128906 11.38660156 7.53128906 11.3984375 8.7109375 C10.91626225 11.48108156 9.81715572 12.89440686 8 15 C8.01160156 14.21753906 8.02320313 13.43507812 8.03515625 12.62890625 C8.04417969 11.61699219 8.05320313 10.60507813 8.0625 9.5625 C8.07410156 8.55316406 8.08570313 7.54382813 8.09765625 6.50390625 C8.28612676 4.05978933 8.28612676 4.05978933 7 3 C-2.14172137 3.05591267 -10.45326474 4.89090279 -19.09765625 7.67578125 C-22.41690129 8.71172397 -24.69500388 9.32199845 -28 8 C-24.86501708 6.14223235 -22.62528568 5.79859524 -19 6 C-19 5.34 -19 4.68 -19 4 C-16.03 4 -13.06 4 -10 4 C-10 3.34 -10 2.68 -10 2 C-6.7 2 -3.4 2 0 2 C0 1.34 0 0.68 0 0 Z " fill="#E7B758" transform="translate(184,167)"/>
<path d="M0 0 C1.98 0.66 3.96 1.32 6 2 C6.061875 3.03125 6.12375 4.0625 6.1875 5.125 C7.14971425 9.71402182 8.8356783 11.60965532 12 15 C13.98571511 17.48214389 14.9841675 18.95250249 16 22 C17.49985609 23.66710346 17.49985609 23.66710346 19 25 C18.67 25.99 18.34 26.98 18 28 C13.86937985 26.49934367 12.61712236 24.14324959 10.546875 20.37109375 C9.928125 19.25412109 9.309375 18.13714844 8.671875 16.98632812 C8.03120317 15.80341078 7.39057874 14.62046776 6.75 13.4375 C6.09471427 12.25011837 5.43847439 11.06326279 4.78125 9.87695312 C0 1.18331473 0 1.18331473 0 0 Z " fill="#6AA9EE" transform="translate(33,99)"/>
<path d="M0 0 C0.33 0 0.66 0 1 0 C1.10283884 5.16479484 1.02006067 10.23299165 0.5 15.375 C-0.32465324 24.22550383 -0.07896366 33.12097502 0 42 C3.63 42 7.26 42 11 42 C6.9152942 44.7231372 4.92603003 45.30787688 0 45 C-2.45518025 42.54481975 -2.2454567 41.17247932 -2.27789307 37.82041931 C-2.2738446 37.11526688 -2.26979614 36.41011444 -2.265625 35.68359375 C-2.26753845 34.95310318 -2.2694519 34.22261261 -2.27142334 33.46998596 C-2.27278613 31.91903338 -2.26908311 30.36806943 -2.26074219 28.81713867 C-2.25015087 26.47092131 -2.26057759 24.12548862 -2.2734375 21.77929688 C-2.27943635 14.29003109 -2.09342972 7.25223866 0 0 Z " fill="#9F92B1" transform="translate(145,134)"/>
<path d="M0 0 C0.66 0 1.32 0 2 0 C4.10446181 2.82787056 5.78988414 5.45617071 7.0625 8.75 C7.89310465 11.32935324 7.89310465 11.32935324 11 13 C11.33 13.99 11.66 14.98 12 16 C12.66 16.66 13.32 17.32 14 18 C14.144375 18.763125 14.28875 19.52625 14.4375 20.3125 C14.86410074 23.08319865 14.86410074 23.08319865 16.5 25.5 C18.03939121 28.06565201 18.5802411 30.06168772 19 33 C16.31480309 30.58592394 14.71939355 27.99707722 12.96875 24.8515625 C12.40542969 23.84609375 11.84210938 22.840625 11.26171875 21.8046875 C10.68035156 20.75539063 10.09898437 19.70609375 9.5 18.625 C8.34425864 16.55440351 7.18802533 14.48408152 6.03125 12.4140625 C5.52142578 11.4957666 5.01160156 10.5774707 4.48632812 9.63134766 C3.46711009 7.82695672 2.40590037 6.04583478 1.31054688 4.28662109 C0 2 0 2 0 0 Z M4 2 C6 3 6 3 6 3 Z " fill="#9A60EC" transform="translate(130,268)"/>
<path d="M0 0 C0.99 0 1.98 0 3 0 C1.99806563 3.79303725 1.18975773 6.71536341 -1 10 C-1.66 10 -2.32 10 -3 10 C-3 11.32 -3 12.64 -3 14 C-3.66 14 -4.32 14 -5 14 C-5.10183594 14.85851562 -5.20367187 15.71703125 -5.30859375 16.6015625 C-6.05797412 20.28495755 -7.32623231 23.05023208 -9.0625 26.375 C-9.61035156 27.43460937 -10.15820312 28.49421875 -10.72265625 29.5859375 C-11.14417969 30.38257813 -11.56570312 31.17921875 -12 32 C-13.32440261 29.35119478 -12.8146285 28.00802734 -12.25 25.125 C-12.09015625 24.26132812 -11.9303125 23.39765625 -11.765625 22.5078125 C-10.93169955 19.77628118 -9.92935573 18.09500748 -8 16 C-7.34 16 -6.68 16 -6 16 C-6.061875 15.2575 -6.12375 14.515 -6.1875 13.75 C-5.96568069 10.49665015 -5.0474909 9.45698908 -3 7 C-2.67 6.01 -2.34 5.02 -2 4 C-1.34 4 -0.68 4 0 4 C0 2.68 0 1.36 0 0 Z " fill="#F09B40" transform="translate(239,260)"/>
<path d="M0 0 C0 4.44437686 -2.35900464 7.81141058 -4.42382812 11.64257812 C-6.41945801 15.46513516 -7.35881093 18.76312321 -8 23 C-9.9375 24.3125 -9.9375 24.3125 -12 25 C-12.66 25.33 -13.32 25.66 -14 26 C-16.01927511 25.39421747 -18.02253397 24.73080266 -20 24 C-20 23.67 -20 23.34 -20 23 C-16.535 22.505 -16.535 22.505 -13 22 C-12.5978125 20.9171875 -12.5978125 20.9171875 -12.1875 19.8125 C-11.00119541 17.00283123 -9.56890619 14.61484366 -8 12 C-6.74212896 9.41050652 -5.50102785 6.81469737 -4.28125 4.20703125 C-3 2 -3 2 0 0 Z " fill="#B744E0" transform="translate(222,304)"/>
<path d="M0 0 C0.33 0 0.66 0 1 0 C0.67604855 8.8025428 0.13901589 16.96658608 -2.4765625 25.44921875 C-3.06116781 28.29807893 -2.75282053 30.21456403 -2 33 C2.14093698 33.20970559 2.14093698 33.20970559 6 32 C5.67 32.99 5.34 33.98 5 35 C3.54176788 35.0270043 2.08339325 35.04639787 0.625 35.0625 C-0.59316406 35.07990234 -0.59316406 35.07990234 -1.8359375 35.09765625 C-4 35 -4 35 -6 34 C-5.85915204 32.20793453 -5.71216299 30.41635083 -5.5625 28.625 C-5.48128906 27.62726563 -5.40007812 26.62953125 -5.31640625 25.6015625 C-5 23 -5 23 -4 21 C-3.77532169 19.46331135 -3.59203195 17.92031946 -3.4375 16.375 C-3.35371094 15.55773437 -3.26992187 14.74046875 -3.18359375 13.8984375 C-3.12300781 13.27195312 -3.06242188 12.64546875 -3 12 C-2.34 12 -1.68 12 -1 12 C-1.33 8.7 -1.66 5.4 -2 2 C-1.34 2 -0.68 2 0 2 C0 1.34 0 0.68 0 0 Z " fill="#BE57BB" transform="translate(204,292)"/>
<path d="M0 0 C0.66 0 1.32 0 2 0 C-0.60062084 9.60229235 -4.40542607 18.18567265 -9 27 C-9.58007812 28.11568359 -9.58007812 28.11568359 -10.171875 29.25390625 C-11.87705609 32.39537449 -12.96571942 33.97714628 -16 36 C-15.54944079 32.17024674 -14.28093542 29.9127955 -12.12744141 26.77490234 C-10.03062427 23.47393643 -8.45212537 19.91880567 -6.8125 16.375 C-6.45736328 15.62476563 -6.10222656 14.87453125 -5.73632812 14.1015625 C-4.1684629 10.7456764 -2.81229712 7.62735289 -2 4 C-1.34 4 -0.68 4 0 4 C0 2.68 0 1.36 0 0 Z " fill="#B955BF" transform="translate(236,270)"/>
<path d="M0 0 C0.33 0 0.66 0 1 0 C1.33 2.97 1.66 5.94 2 9 C6.7897321 9.23428313 6.7897321 9.23428313 11 7 C13.21584546 6.55296766 15.44841961 6.18536758 17.6875 5.875 C18.86699219 5.70742187 20.04648438 5.53984375 21.26171875 5.3671875 C22.16535156 5.24601563 23.06898438 5.12484375 24 5 C24 4.34 24 3.68 24 3 C26.97 3 29.94 3 33 3 C33 3.66 33 4.32 33 5 C32.02389771 5.21148682 32.02389771 5.21148682 31.02807617 5.42724609 C28.07973816 6.06991693 25.13364185 6.72233883 22.1875 7.375 C21.16333984 7.59671875 20.13917969 7.8184375 19.08398438 8.046875 C18.10107422 8.26601562 17.11816406 8.48515625 16.10546875 8.7109375 C14.74651489 9.00943604 14.74651489 9.00943604 13.36010742 9.31396484 C10.76379364 9.94051095 10.76379364 9.94051095 8 12 C4.4375 12.3125 4.4375 12.3125 1 12 C-1.23551759 8.64672361 -1.17283528 8.09256343 -0.625 4.3125 C-0.51414063 3.50425781 -0.40328125 2.69601563 -0.2890625 1.86328125 C-0.19367188 1.24839844 -0.09828125 0.63351563 0 0 Z " fill="#E6A25E" transform="translate(183,224)"/>
<path d="M0 0 C-2.55074153 3.20589774 -4.77203774 3.54253793 -8.75 4.0625 C-12.14694566 4.55009986 -15.20896432 5.0634356 -18.5 6.0625 C-22.78090945 7.20917218 -26.91240747 7.4321019 -31.328125 7.65625 C-34.22243655 7.82762916 -34.22243655 7.82762916 -37 10 C-36.41137695 8.10644531 -36.41137695 8.10644531 -35 6 C-32.09838867 4.99511719 -32.09838867 4.99511719 -28.41796875 4.296875 C-27.76677567 4.16935852 -27.11558258 4.04184204 -26.44465637 3.91046143 C-25.06677415 3.64382307 -23.68726974 3.38545366 -22.30639648 3.13476562 C-20.20259215 2.75274055 -18.10435532 2.34758776 -16.00585938 1.9375 C-4.95581385 -0.17588361 -4.95581385 -0.17588361 0 0 Z " fill="#F5E36F" transform="translate(189,20)"/>
<path d="M0 0 C0.99 0 1.98 0 3 0 C1.53892664 6.18856934 -1.10086201 11.36783409 -4.125 16.9375 C-4.59292969 17.81212891 -5.06085938 18.68675781 -5.54296875 19.58789062 C-6.68934046 21.72856433 -7.84176845 23.86572704 -9 26 C-9.33 26 -9.66 26 -10 26 C-10 24.35 -10 22.7 -10 21 C-9.34 21 -8.68 21 -8 21 C-8.20625 20.278125 -8.4125 19.55625 -8.625 18.8125 C-9.05952211 15.55358415 -8.41680669 13.91695496 -7 11 C-6.01 11 -5.02 11 -4 11 C-4 10.01 -4 9.02 -4 8 C-3.34 8 -2.68 8 -2 8 C-2 7.01 -2 6.02 -2 5 C-1.34 5 -0.68 5 0 5 C0 3.35 0 1.7 0 0 Z " fill="#F0A441" transform="translate(259,220)"/>
<path d="M0 0 C1.13583456 3.71727674 0.66670026 5.47051709 -1 9 C-1.66 9 -2.32 9 -3 9 C-3.09796875 9.56847656 -3.1959375 10.13695312 -3.296875 10.72265625 C-4.36966197 16.26230622 -6.00553465 20.22757085 -9 25 C-9.6802367 26.32646156 -10.35492261 27.65608877 -11 29 C-11.66 29 -12.32 29 -13 29 C-13.495 31.475 -13.495 31.475 -14 34 C-14.66 34 -15.32 34 -16 34 C-14.35178133 28.01436377 -11.99488547 23.14577291 -8.6953125 17.90625 C-5.34856119 12.16896204 -2.72668157 6.05032892 0 0 Z " fill="#A668C4" transform="translate(288,168)"/>
<path d="M0 0 C7.23785489 -0.42575617 14.09158937 0.78849704 21 3 C21.33 3.66 21.66 4.32 22 5 C21.32453125 4.98839844 20.6490625 4.97679687 19.953125 4.96484375 C19.06109375 4.95582031 18.1690625 4.94679688 17.25 4.9375 C16.36828125 4.92589844 15.4865625 4.91429687 14.578125 4.90234375 C12.21151077 4.99198823 10.27638725 5.407448 8 6 C5.9375 5.5625 5.9375 5.5625 4 5 C3.01 5 2.02 5 1 5 C0.67 3.35 0.34 1.7 0 0 Z " fill="#5DAEFB" transform="translate(98,58)"/>
<path d="M0 0 C0.66 0.33 1.32 0.66 2 1 C2 2.66666667 2 4.33333333 2 6 C1.34 6 0.68 6 0 6 C1.05875074 9.40312738 2.00902154 12.01353231 4 15 C7.08365871 15.2502157 7.08365871 15.2502157 10 15 C10 16.65 10 18.3 10 20 C5.70296935 19.56152748 3.82061016 18.94518096 0.94140625 15.62890625 C-4.10637773 8.14356059 -4.10637773 8.14356059 -3.6875 3.640625 C-3.460625 2.76921875 -3.23375 1.8978125 -3 1 C-2.01 0.67 -1.02 0.34 0 0 Z " fill="#56B2FA" transform="translate(30,81)"/>
<path d="M0 0 C0.99 0.33 1.98 0.66 3 1 C3 1.66 3 2.32 3 3 C3.66 3 4.32 3 5 3 C5.51708533 13.93539713 5.51708533 13.93539713 2 19 C1.28076792 22.69523952 1.28076792 22.69523952 1 26 C0.34 26 -0.32 26 -1 26 C-0.85941524 23.54126232 -0.71277001 21.08314825 -0.5625 18.625 C-0.50352539 17.57699219 -0.50352539 17.57699219 -0.44335938 16.5078125 C-0.11328125 11.2265625 -0.11328125 11.2265625 1 9 C1.3052622 4.34724024 1.3052622 4.34724024 0 0 Z " fill="#F9AF1B" transform="translate(216,229)"/>
<path d="M0 0 C0.66 0 1.32 0 2 0 C1.67 1.98 1.34 3.96 1 6 C0.34 6 -0.32 6 -1 6 C-0.87625 7.051875 -0.87625 7.051875 -0.75 8.125 C-1.08499048 11.97739051 -2.80408098 13.82811697 -5 17 C-6.43531631 19.95791537 -7.73276082 22.96671472 -9 26 C-9.66 26 -10.32 26 -11 26 C-11 26.99 -11 27.98 -11 29 C-11.66 29 -12.32 29 -13 29 C-11.50833609 24.04894531 -10.10997131 20.14662841 -7 16 C-6.1987409 13.72559266 -5.50101453 11.44108107 -4.84375 9.12109375 C-3.91603958 6.78893283 -2.80906539 5.69691309 -1 4 C-0.28552357 1.89667109 -0.28552357 1.89667109 0 0 Z " fill="#AB71C1" transform="translate(302,139)"/>
<path d="M0 0 C0.66 0.33 1.32 0.66 2 1 C0.46048671 6.47576886 -2.12085006 11.02157582 -5 15.875 C-5.45117188 16.65875 -5.90234375 17.4425 -6.3671875 18.25 C-6.80289062 18.98992187 -7.23859375 19.72984375 -7.6875 20.4921875 C-8.08324219 21.16620605 -8.47898437 21.84022461 -8.88671875 22.53466797 C-9.25410156 23.01822754 -9.62148438 23.50178711 -10 24 C-10.66 24 -11.32 24 -12 24 C-11 16.57142857 -11 16.57142857 -10 13 C-9.38382812 12.9175 -8.76765625 12.835 -8.1328125 12.75 C-5.866079 12.19451924 -5.866079 12.19451924 -4.8046875 10.1875 C-4.49789063 9.465625 -4.19109375 8.74375 -3.875 8 C-2.18678815 4.09339408 -2.18678815 4.09339408 0 3 C0 2.01 0 1.02 0 0 Z " fill="#9165E3" transform="translate(372,100)"/>
<path d="M0 0 C0.928125 0.2784375 0.928125 0.2784375 1.875 0.5625 C4.04160178 1.23686176 4.04160178 1.23686176 6 0 C6.55187827 3.23242986 7.04303021 6.4231304 7.375 9.6875 C7.99730407 12.98571155 8.36378641 14.05149431 11 16 C10.67 16.99 10.34 17.98 10 19 C5.69808542 15.39569319 4.15570781 12.39046715 2.67578125 6.98828125 C2.09578652 4.80115678 2.09578652 4.80115678 0 3 C0 2.01 0 1.02 0 0 Z " fill="#A059F5" transform="translate(145,291)"/>
<path d="M0 0 C1.03115279 3.26913624 0.9638984 5.86041348 0.5625 9.25 C0.46066406 10.14203125 0.35882813 11.0340625 0.25390625 11.953125 C0.17011719 12.62859375 0.08632812 13.3040625 0 14 C-0.66 14 -1.32 14 -2 14 C-1.9071875 15.8871875 -1.9071875 15.8871875 -1.8125 17.8125 C-1.80181664 24.55369757 -3.24142663 31.36213995 -7 37 C-4.09550562 12.09550562 -4.09550562 12.09550562 -2 10 C-1.6068352 8.32115762 -1.25914548 6.63149955 -0.9375 4.9375 C-0.76089844 4.01839844 -0.58429688 3.09929687 -0.40234375 2.15234375 C-0.26957031 1.44207031 -0.13679687 0.73179687 0 0 Z " fill="#D59E74" transform="translate(191,184)"/>
<path d="M0 0 C2.475 0.495 2.475 0.495 5 1 C5.19335938 1.62648437 5.38671875 2.25296875 5.5859375 2.8984375 C5.84632812 3.71570313 6.10671875 4.53296875 6.375 5.375 C6.63023438 6.18710938 6.88546875 6.99921875 7.1484375 7.8359375 C7.89854283 10.16459185 7.89854283 10.16459185 10 12 C10.99 12 11.98 12 13 12 C13.12375 13.2375 13.2475 14.475 13.375 15.75 C13.75746305 18.8762197 14.30549523 21.28879237 16 24 C15.34 24.33 14.68 24.66 14 25 C12.00342538 21.6019544 10.00967034 18.20227276 8.01855469 14.80102539 C7.00606246 13.07284775 5.99131897 11.34598971 4.9765625 9.61914062 C4.34492188 8.53955078 3.71328125 7.45996094 3.0625 6.34765625 C2.47597656 5.34742432 1.88945312 4.34719238 1.28515625 3.31665039 C0 1 0 1 0 0 Z " fill="#60BDF0" transform="translate(11,61)"/>
<path d="M0 0 C1.21236328 0.04060547 1.21236328 0.04060547 2.44921875 0.08203125 C3.06410156 0.11683594 3.67898437 0.15164062 4.3125 0.1875 C1.08838233 2.95102943 -1.72270428 4.70819807 -5.6875 6.1875 C-5.63529297 7.77691406 -5.63529297 7.77691406 -5.58203125 9.3984375 C-5.55389601 10.78644252 -5.52659557 12.17446463 -5.5 13.5625 C-5.47486328 14.26117188 -5.44972656 14.95984375 -5.42382812 15.6796875 C-5.39453125 17.7109375 -5.39453125 17.7109375 -5.6875 21.1875 C-6.6775 21.8475 -7.6675 22.5075 -8.6875 23.1875 C-8.60665297 19.91565192 -8.49381126 16.64567221 -8.375 13.375 C-8.35244141 12.44623047 -8.32988281 11.51746094 -8.30664062 10.56054688 C-8.27119141 9.66787109 -8.23574219 8.77519531 -8.19921875 7.85546875 C-8.17303467 7.03328857 -8.14685059 6.2111084 -8.11987305 5.36401367 C-7.18351287 0.65048968 -4.42754357 -0.19250189 0 0 Z " fill="#FBDE4B" transform="translate(159.6875,26.8125)"/>
<path d="M0 0 C-0.83551673 5.68151375 -3.18559765 10.68806691 -7 15 C-7.66 15 -8.32 15 -9 15 C-8.23004535 10.22628119 -6.91865756 5.44320697 -5 1 C-3 0 -3 0 0 0 Z " fill="#FCB41A" transform="translate(269,205)"/>
<path d="M0 0 C3 1 3 1 4.02734375 2.59375 C4.32769531 3.2228125 4.62804687 3.851875 4.9375 4.5 C6.411072 7.41802626 6.411072 7.41802626 9.25 8.9375 C9.8275 8.958125 10.405 8.97875 11 9 C10.814375 9.886875 10.62875 10.77375 10.4375 11.6875 C10.01957516 14.85178811 10.19222258 16.94839642 11 20 C7.87961917 16.32043588 5.51980912 12.56596709 3.25 8.3125 C2.63640625 7.17425781 2.0228125 6.03601563 1.390625 4.86328125 C0 2 0 2 0 0 Z " fill="#A74BE1" transform="translate(173,343)"/>
<path d="M0 0 C0.33 0 0.66 0 1 0 C1.4568904 6.70105913 -0.268013 12.56356181 -2 19 C-2.5667035 21.24894495 -3.12937849 23.4989099 -3.6875 25.75 C-4.125 27.5 -4.5625 29.25 -5 31 C-5.33 31 -5.66 31 -6 31 C-6.28925539 25.50414765 -5.36902269 20.30621203 -4 15 C-3.67 14.67 -3.34 14.34 -3 14 C-2.92820036 12.48071962 -2.91607993 10.95832518 -2.9375 9.4375 C-2.95103516 8.19806641 -2.95103516 8.19806641 -2.96484375 6.93359375 C-2.97644531 6.29550781 -2.98804688 5.65742188 -3 5 C-2.01 5 -1.02 5 0 5 C0 3.35 0 1.7 0 0 Z " fill="#A85ED1" transform="translate(217,231)"/>
<path d="M0 0 C0.99 0.33 1.98 0.66 3 1 C3.70211894 2.65204456 4.36971413 4.31923769 5 6 C5.66 6.33 6.32 6.66 7 7 C7 7.66 7 8.32 7 9 C7.66 9.33 8.32 9.66 9 10 C9.6328125 12.06640625 9.6328125 12.06640625 10.125 14.5625 C10.29257813 15.38878906 10.46015625 16.21507812 10.6328125 17.06640625 C10.75398438 17.70449219 10.87515625 18.34257812 11 19 C11.66 19 12.32 19 13 19 C12.67 20.32 12.34 21.64 12 23 C9.99304709 19.54565686 7.99563221 16.0858937 6 12.625 C5.42765625 11.64015625 4.8553125 10.6553125 4.265625 9.640625 C3.72421875 8.69960937 3.1828125 7.75859375 2.625 6.7890625 C2.12226562 5.91975098 1.61953125 5.05043945 1.1015625 4.15478516 C0 2 0 2 0 0 Z " fill="#8380E6" transform="translate(92,201)"/>
<path d="M0 0 C0.33 0.66 0.66 1.32 1 2 C0.01196289 4.15478516 0.01196289 4.15478516 -1.52734375 6.7890625 C-2.07197266 7.73007812 -2.61660156 8.67109375 -3.17773438 9.640625 C-3.75845703 10.62546875 -4.33917969 11.6103125 -4.9375 12.625 C-5.51435547 13.61757813 -6.09121094 14.61015625 -6.68554688 15.6328125 C-8.11659874 18.09280248 -9.55499196 20.54819042 -11 23 C-12 20 -12 20 -10.5625 16.9375 C-9.7890625 15.4834375 -9.7890625 15.4834375 -9 14 C-9 13.34 -9 12.68 -9 12 C-8.34 12 -7.68 12 -7 12 C-6.731875 11.030625 -6.46375 10.06125 -6.1875 9.0625 C-5.795625 8.051875 -5.40375 7.04125 -5 6 C-4.01 5.67 -3.02 5.34 -2 5 C-2.33 3.68 -2.66 2.36 -3 1 C-2.01 0.67 -1.02 0.34 0 0 Z " fill="#AD3FE1" transform="translate(227,362)"/>
<path d="M0 0 C0.33 0 0.66 0 1 0 C1.32175185 6.37545341 1.09427651 11.55209571 -1.19921875 17.51953125 C-2.81434382 22.52247963 -3.31704181 27.80148294 -4 33 C-4.66 32.67 -5.32 32.34 -6 32 C-5.33542615 25.79731074 -4.08139842 20.01214485 -2.4609375 14 C-1.24132841 9.34000109 -0.51338664 4.79160866 0 0 Z " fill="#F29944" transform="translate(206,292)"/>
<path d="M0 0 C0.66 0 1.32 0 2 0 C1.54700552 2.44617018 0.91924336 4.13398261 -0.375 6.28125 C-2.03494558 9.05846665 -3.3707668 11.85874714 -4.6875 14.8125 C-5.12449219 15.78832031 -5.56148437 16.76414062 -6.01171875 17.76953125 C-6.33785156 18.50558594 -6.66398438 19.24164063 -7 20 C-8.50824218 16.98351564 -7.62508282 14.73440355 -6.87109375 11.53125 C-5.39179166 7.23265021 -2.98092881 3.42644806 0 0 Z " fill="#EE9642" transform="translate(224,292)"/>
<path d="M0 0 C0.66 0 1.32 0 2 0 C2 0.99 2 1.98 2 3 C2.66 3 3.32 3 4 3 C4 3.99 4 4.98 4 6 C4.66 6 5.32 6 6 6 C6.66 7.98 7.32 9.96 8 12 C9.32 12 10.64 12 12 12 C12.66 12.66 13.32 13.32 14 14 C13.01 14.33 12.02 14.66 11 15 C10.26676204 17.01508358 10.26676204 17.01508358 10 19 C8.32626249 16.21251481 6.66223733 13.41935573 5 10.625 C4.28457031 9.43390625 4.28457031 9.43390625 3.5546875 8.21875 C3.10351562 7.45820313 2.65234375 6.69765625 2.1875 5.9140625 C1.76855469 5.2123291 1.34960938 4.5105957 0.91796875 3.78759766 C0 2 0 2 0 0 Z " fill="#7D86E2" transform="translate(81,182)"/>
<path d="M0 0 C0.33 0 0.66 0 1 0 C0.91288896 2.75150737 0.80600385 5.49981633 0.6875 8.25 C0.66494141 9.02730469 0.64238281 9.80460937 0.61914062 10.60546875 C0.4126541 14.99800022 0.17688173 17.70545599 -3 21 C-3.66 21.99 -4.32 22.98 -5 24 C-4.54764189 18.30028784 -3.63145073 13.45848495 -1.69921875 8.0859375 C-0.80839146 5.42838571 -0.35583886 2.77554307 0 0 Z " fill="#9289CB" transform="translate(280,64)"/>
<path d="M0 0 C1.20628008 2.33214148 2.1654738 4.49642139 3 7 C5.50447516 8.21869929 5.50447516 8.21869929 8 9 C7.67 10.65 7.34 12.3 7 14 C6.01 14 5.02 14 4 14 C3.12808053 12.61518672 2.27809616 11.21654754 1.4375 9.8125 C0.96183594 9.03519531 0.48617187 8.25789063 -0.00390625 7.45703125 C-1.19605797 4.51639033 -0.88855164 2.99553637 0 0 Z " fill="#A94BEA" transform="translate(167,328)"/>
<path d="M0 0 C2.64 0 5.28 0 8 0 C8 0.66 8 1.32 8 2 C4.04210568 2.66929088 0.08361542 3.33498856 -3.875 4 C-5.00292969 4.19078125 -6.13085938 4.3815625 -7.29296875 4.578125 C-8.36933594 4.75859375 -9.44570313 4.9390625 -10.5546875 5.125 C-11.54968262 5.29257813 -12.54467773 5.46015625 -13.56982422 5.6328125 C-16 6 -16 6 -18 6 C-18 5.34 -18 4.68 -18 4 C-15.03 4 -12.06 4 -9 4 C-9 3.34 -9 2.68 -9 2 C-6.03 2 -3.06 2 0 2 C0 1.34 0 0.68 0 0 Z " fill="#977AC8" transform="translate(312,91)"/>
<path d="M0 0 C1.15294668 3.45884004 0.79943888 4.47127724 -0.21484375 7.88671875 C-0.48876953 8.82451172 -0.76269531 9.76230469 -1.04492188 10.72851562 C-1.33947266 11.70498047 -1.63402344 12.68144531 -1.9375 13.6875 C-2.22818359 14.67556641 -2.51886719 15.66363281 -2.81835938 16.68164062 C-3.53793217 19.1234696 -4.26540993 21.56265482 -5 24 C-5.33 24 -5.66 24 -6 24 C-6.22484149 19.16590789 -5.4147889 14.93653041 -4.125 10.3125 C-3.95097656 9.64927734 -3.77695312 8.98605469 -3.59765625 8.30273438 C-2.72621947 5.09778354 -1.86021386 2.79032079 0 0 Z " fill="#F0D853" transform="translate(293,18)"/>
<path d="M0 0 C2.475 0.99 2.475 0.99 5 2 C4.5020163 5.73487777 4.12508244 7.81237635 2 11 C1.01 11 0.02 11 -1 11 C-1.08912219 7.16774573 -0.87867729 3.73437848 0 0 Z " fill="#BC35FC" transform="translate(225,352)"/>
<path d="M0 0 C0.33 0.66 0.66 1.32 1 2 C0.34773438 2.03738281 -0.30453125 2.07476562 -0.9765625 2.11328125 C-6.3285431 2.51586386 -10.30698503 3.18419102 -15 6 C-15.99 6.495 -15.99 6.495 -17 7 C-17.99 6.34 -18.98 5.68 -20 5 C-17.79567015 4.15450362 -15.58751467 3.32357186 -13.375 2.5 C-11.53035156 1.80390625 -11.53035156 1.80390625 -9.6484375 1.09375 C-6.18957134 0.05683081 -3.57814964 -0.22019382 0 0 Z " fill="#A362D4" transform="translate(216,229)"/>
<path d="M0 0 C0.66 0 1.32 0 2 0 C2.20086443 3.71599191 2.1519437 4.77208445 0 8 C-0.59739945 10.04705225 -1.13409983 12.11233108 -1.625 14.1875 C-1.88539063 15.27417969 -2.14578125 16.36085938 -2.4140625 17.48046875 C-2.60742188 18.31191406 -2.80078125 19.14335938 -3 20 C-3.33 20 -3.66 20 -4 20 C-4.4946164 12.45709983 -2.90617391 6.941085 0 0 Z " fill="#EFCD5D" transform="translate(281,56)"/>
<path d="M0 0 C0.66 0.33 1.32 0.66 2 1 C-0.64 5.62 -3.28 10.24 -6 15 C-6.33 14.34 -6.66 13.68 -7 13 C-6.0625 10.875 -6.0625 10.875 -5 9 C-5.66 8.67 -6.32 8.34 -7 8 C-6.34 8 -5.68 8 -5 8 C-5 7.01 -5 6.02 -5 5 C-4.34 5 -3.68 5 -3 5 C-2.814375 4.0409375 -2.814375 4.0409375 -2.625 3.0625 C-2.41875 2.381875 -2.2125 1.70125 -2 1 C-1.34 0.67 -0.68 0.34 0 0 Z " fill="#AE40E3" transform="translate(235,347)"/>
<path d="M0 0 C0 1.32 0 2.64 0 4 C-0.99 4 -1.98 4 -3 4 C-3.12375 4.94875 -3.2475 5.8975 -3.375 6.875 C-4 10 -4 10 -6 12 C-6.33 11.01 -6.66 10.02 -7 9 C-6.34 9 -5.68 9 -5 9 C-5.5259375 8.13375 -5.5259375 8.13375 -6.0625 7.25 C-7.14917407 4.64198224 -6.93065133 3.60582371 -6 1 C-3.92446352 0.4465236 -2.15634036 0 0 0 Z " fill="#B63CFA" transform="translate(263,296)"/>
<path d="M0 0 C0.33 0 0.66 0 1 0 C1 3.63 1 7.26 1 11 C3.97 11 6.94 11 10 11 C10 11.33 10 11.66 10 12 C6.37 12 2.74 12 -1 12 C-2.4783226 9.04335481 -2.06032783 6.25770263 -2 3 C-1.34 3 -0.68 3 0 3 C0 2.01 0 1.02 0 0 Z " fill="#9E8ABC" transform="translate(274,88)"/>
<path d="M0 0 C0.66 0 1.32 0 2 0 C1.40380045 4.86896303 0.43023178 9.32790951 -1 14 C-1.33 14 -1.66 14 -2 14 C-2 12.02 -2 10.04 -2 8 C-2.99 8.33 -3.98 8.66 -5 9 C-4.33333333 7.66666667 -3.66666667 6.33333333 -3 5 C-2.4740625 3.9171875 -2.4740625 3.9171875 -1.9375 2.8125 C-1 1 -1 1 0 0 Z " fill="#F5D648" transform="translate(285,42)"/>
<path d="M0 0 C1.65 0 3.3 0 5 0 C4.55785156 0.56460937 4.11570313 1.12921875 3.66015625 1.7109375 C1.52633173 4.65310496 -0.10904861 7.77460206 -1.81640625 10.9765625 C-3 13 -3 13 -5 15 C-4.5188509 9.22621075 -2.81532819 5.04140164 0 0 Z " fill="#B04FDD" transform="translate(242,260)"/>
<path d="M0 0 C-1.81191882 1.81191882 -4.72351299 1.4723513 -7.1875 1.71875 C-9.0167533 1.81998043 -9.0167533 1.81998043 -10 3 C-12.01594582 3.23427778 -14.038474 3.41336124 -16.0625 3.5625 C-17.16722656 3.64628906 -18.27195313 3.73007813 -19.41015625 3.81640625 C-20.26480469 3.87699219 -21.11945313 3.93757812 -22 4 C-21.67 3.34 -21.34 2.68 -21 2 C-5.65909091 -2.82954545 -5.65909091 -2.82954545 0 0 Z " fill="#9D85BD" transform="translate(182,172)"/>
<path d="M0 0 C1.49479382 3.88646393 0.34699273 6.17170488 -1 10 C-1.74046478 13.31966758 -2.3788094 16.65614419 -3 20 C-3.66 19.67 -4.32 19.34 -5 19 C-4.855625 18.34 -4.71125 17.68 -4.5625 17 C-3.87700084 13.34400449 -3.43824485 9.69377805 -3 6 C-2.34 6 -1.68 6 -1 6 C-0.67 4.02 -0.34 2.04 0 0 Z " fill="#B35EBC" transform="translate(212,260)"/>
<path d="M0 0 C0.33 0.66 0.66 1.32 1 2 C-0.24282012 4.45038293 -1.52882339 6.773325 -2.9375 9.125 C-3.32357422 9.78371094 -3.70964844 10.44242188 -4.10742188 11.12109375 C-5.06446578 12.751613 -6.03132815 14.37636184 -7 16 C-8.17114775 13.14998148 -8.05939414 12.14331623 -6.85546875 9.23828125 C-6.30503906 8.27277344 -5.75460937 7.30726563 -5.1875 6.3125 C-4.64480469 5.33925781 -4.10210937 4.36601562 -3.54296875 3.36328125 C-2 1 -2 1 0 0 Z " fill="#965DE0" transform="translate(340,160)"/>
<path d="M0 0 C1.65 0 3.3 0 5 0 C5 2.83967231 4.59732819 5.23735711 4 8 C2.68 7.67 1.36 7.34 0 7 C0 4.69 0 2.38 0 0 Z " fill="#A354FA" transform="translate(328,169)"/>
<path d="M0 0 C2.31 0.33 4.62 0.66 7 1 C6.67 3.31 6.34 5.62 6 8 C6.66 8.33 7.32 8.66 8 9 C7.01 9.33 6.02 9.66 5 10 C4.731875 9.236875 4.46375 8.47375 4.1875 7.6875 C3.04199033 5.09503074 2.00288478 3.91184456 0 2 C0 1.34 0 0.68 0 0 Z " fill="#BD34FB" transform="translate(193,376)"/>
<path d="M0 0 C0.66 0 1.32 0 2 0 C1.57405412 1.44096586 1.13373367 2.87768712 0.6875 4.3125 C0.44386719 5.11300781 0.20023437 5.91351563 -0.05078125 6.73828125 C-1.04182023 9.09964573 -2.08074943 10.33879993 -4 12 C-5.3442623 6.62295082 -5.3442623 6.62295082 -3.6875 3.625 C-2 2 -2 2 0 2 C0 1.34 0 0.68 0 0 Z " fill="#EAB14F" transform="translate(287,166)"/>
<path d="M0 0 C1.98 0.99 1.98 0.99 4 2 C4 2.99 4 3.98 4 5 C4.99 5.33 5.98 5.66 7 6 C7.94921875 8.28515625 7.94921875 8.28515625 8.6875 11.0625 C9.06455078 12.44115234 9.06455078 12.44115234 9.44921875 13.84765625 C9.63097656 14.55792969 9.81273437 15.26820313 10 16 C6.86030886 13.32401709 5.18156373 9.91405704 3.3125 6.3125 C2.83200195 5.40274414 2.83200195 5.40274414 2.34179688 4.47460938 C1.55628516 2.98565434 0.77747058 1.49316953 0 0 Z " fill="#AA47DB" transform="translate(184,364)"/>
<path d="M0 0 C0.66 0 1.32 0 2 0 C2 0.99 2 1.98 2 3 C3.32 3 4.64 3 6 3 C6 5.31 6 7.62 6 10 C6.66 10 7.32 10 8 10 C7.67 10.99 7.34 11.98 7 13 C0 4.25 0 4.25 0 0 Z " fill="#8976E5" transform="translate(109,231)"/>
<path d="M0 0 C0.33 1.32 0.66 2.64 1 4 C0.34 4 -0.32 4 -1 4 C-1.12375 4.804375 -1.2475 5.60875 -1.375 6.4375 C-1.58125 7.283125 -1.7875 8.12875 -2 9 C-4 10 -4 10 -7.125 9.0625 C-8.07375 8.711875 -9.0225 8.36125 -10 8 C-10 7.67 -10 7.34 -10 7 C-6.535 6.505 -6.535 6.505 -3 6 C-2.690625 5.195625 -2.38125 4.39125 -2.0625 3.5625 C-1 1 -1 1 0 0 Z " fill="#BC47D0" transform="translate(212,320)"/>
<path d="M0 0 C0.33 0.66 0.66 1.32 1 2 C-0.85579659 6.63949148 -3.34117479 9.6378363 -7 13 C-6.65986985 7.55791766 -3.29703472 4.06331802 0 0 Z " fill="#B94FCD" transform="translate(227,293)"/>
<path d="M0 0 C1.2536419 3.51180455 0.77956527 5.33464859 -0.75 8.6875 C-1.09546875 9.47511719 -1.4409375 10.26273438 -1.796875 11.07421875 C-3 13 -3 13 -6 14 C-5.43026084 10.0118259 -4.16380338 7.37553327 -2 4 C-1.31903578 2.67391178 -0.64669414 1.34313399 0 0 Z " fill="#B165BF" transform="translate(268,208)"/>
<path d="M0 0 C1.2065625 0.0309375 1.2065625 0.0309375 2.4375 0.0625 C2.1075 1.0525 1.7775 2.0425 1.4375 3.0625 C0.7775 3.0625 0.1175 3.0625 -0.5625 3.0625 C-0.5625 4.3825 -0.5625 5.7025 -0.5625 7.0625 C-1.8825 7.0625 -3.2025 7.0625 -4.5625 7.0625 C-3.5234375 0.0859375 -3.5234375 0.0859375 0 0 Z " fill="#AB4CFC" transform="translate(309.5625,209.9375)"/>
<path d="M0 0 C0.66 0.66 1.32 1.32 2 2 C0.35 4.97 -1.3 7.94 -3 11 C-3.66 10.67 -4.32 10.34 -5 10 C-5 8.35 -5 6.7 -5 5 C-4.01 4.67 -3.02 4.34 -2 4 C-0.79117904 1.99983534 -0.79117904 1.99983534 0 0 Z " fill="#9066EB" transform="translate(384,80)"/>
<path d="M0 0 C2.97 0.495 2.97 0.495 6 1 C6.33 2.98 6.66 4.96 7 7 C3.76509224 6.44225728 2.02144994 5.62788492 0 3 C0 2.01 0 1.02 0 0 Z " fill="#6D98FB" transform="translate(65,152)"/>
<path d="M0 0 C0.99 0.33 1.98 0.66 3 1 C3 5.62 3 10.24 3 15 C2.01 15 1.02 15 0 15 C0.08378906 14.08476562 0.16757813 13.16953125 0.25390625 12.2265625 C0.35574219 11.03804687 0.45757812 9.84953125 0.5625 8.625 C0.66691406 7.44164062 0.77132812 6.25828125 0.87890625 5.0390625 C1.24153596 2.08101369 1.24153596 2.08101369 0 0 Z " fill="#E49E5A" transform="translate(216,229)"/>
<path d="M0 0 C-1 1 -1 1 -4.5625 1.0625 C-5.696875 1.041875 -6.83125 1.02125 -8 1 C-8 1.66 -8 2.32 -8 3 C-9.65 3.33 -11.3 3.66 -13 4 C-13.66 3.01 -14.32 2.02 -15 1 C-13.25215171 0.63536268 -11.50159498 0.2836922 -9.75 -0.0625 C-8.28820312 -0.35833984 -8.28820312 -0.35833984 -6.796875 -0.66015625 C-4.131881 -0.98397535 -2.51128277 -0.85503199 0 0 Z " fill="#8C7EE4" transform="translate(365,48)"/>
<path d="M0 0 C0.66 0 1.32 0 2 0 C4.39731331 3.19641774 6.38479725 6.00118212 7 10 C6.01 10.495 6.01 10.495 5 11 C4.16151196 9.54462432 3.32936066 8.08559627 2.5 6.625 C1.80390625 5.40683594 1.80390625 5.40683594 1.09375 4.1640625 C0 2 0 2 0 0 Z M4 2 C6 3 6 3 6 3 Z " fill="#9269E2" transform="translate(130,268)"/>
<path d="M0 0 C1.485 0.99 1.485 0.99 3 2 C2.88541307 3.43836751 2.75790884 4.87570966 2.625 6.3125 C2.55539062 7.11300781 2.48578125 7.91351563 2.4140625 8.73828125 C2 11 2 11 0 14 C0 9.38 0 4.76 0 0 Z " fill="#F5E072" transform="translate(295,0)"/>
<path d="M0 0 C0.99 0.33 1.98 0.66 3 1 C2.814375 1.886875 2.62875 2.77375 2.4375 3.6875 C2.01957516 6.85178811 2.19222258 8.94839642 3 12 C0.33973399 9.17346736 -0.93491949 7.67683725 -1.3125 3.75 C-1 1 -1 1 0 0 Z " fill="#AF44EC" transform="translate(181,351)"/>
<path d="M0 0 C0.33 0.66 0.66 1.32 1 2 C-0.21484375 4.8203125 -0.21484375 4.8203125 -1.9375 8.125 C-2.50339844 9.22070312 -3.06929687 10.31640625 -3.65234375 11.4453125 C-4.09707031 12.28835938 -4.54179687 13.13140625 -5 14 C-6.33332095 11.3333581 -5.67102033 9.83319697 -5 7 C-4.34 7 -3.68 7 -3 7 C-3 5.68 -3 4.36 -3 3 C-2.34 3 -1.68 3 -1 3 C-0.67 2.01 -0.34 1.02 0 0 Z " fill="#E99660" transform="translate(248,246)"/>
<path d="M0 0 C1.33332095 2.6666419 0.67102033 4.16680303 0 7 C-0.66 7 -1.32 7 -2 7 C-2.33 8.65 -2.66 10.3 -3 12 C-3.66 12 -4.32 12 -5 12 C-4.54738642 10.56068883 -4.08767021 9.12361001 -3.625 7.6875 C-3.24214844 6.48673828 -3.24214844 6.48673828 -2.8515625 5.26171875 C-2 3 -2 3 0 0 Z " fill="#B56DB5" transform="translate(277,190)"/>
<path d="M0 0 C0.99 0.33 1.98 0.66 3 1 C1.87548273 3.9719385 0.77706209 6.33440687 -1 9 C-1.66 8.67 -2.32 8.34 -3 8 C-3 6.35 -3 4.7 -3 3 C-2.01 2.67 -1.02 2.34 0 2 C0 1.34 0 0.68 0 0 Z " fill="#9568FC" transform="translate(388,67)"/>
<path d="M0 0 C1.134375 0.020625 2.26875 0.04125 3.4375 0.0625 C3.1075 0.7225 2.7775 1.3825 2.4375 2.0625 C1.7775 2.0625 1.1175 2.0625 0.4375 2.0625 C-0.2225 2.7225 -0.8825 3.3825 -1.5625 4.0625 C-2.87997324 4.75998583 -4.21164193 5.43209957 -5.5625 6.0625 C-4.48849278 0.07874549 -4.48849278 0.07874549 0 0 Z " fill="#8184EE" transform="translate(286.5625,61.9375)"/>
<path d="M0 0 C0.99 0 1.98 0 3 0 C1.85814266 4.47959418 0.56984833 8.14522751 -2 12 C-3.33332095 9.3333581 -2.67102033 7.83319697 -2 5 C-1.34 5 -0.68 5 0 5 C0 3.35 0 1.7 0 0 Z " fill="#E99F59" transform="translate(259,220)"/>
<path d="M0 0 C0.66 0.33 1.32 0.66 2 1 C2 2.66666667 2 4.33333333 2 6 C0.02 6 -1.96 6 -4 6 C-3.67 4.35 -3.34 2.7 -3 1 C-2.01 0.67 -1.02 0.34 0 0 Z " fill="#54B9FC" transform="translate(30,81)"/>
<path d="M0 0 C0.99 0.33 1.98 0.66 3 1 C3.6875 3.0625 3.6875 3.0625 4 5 C2.68 5.33 1.36 5.66 0 6 C-0.38218767 4.34385343 -0.71395102 2.67542976 -1 1 C-0.67 0.67 -0.34 0.34 0 0 Z " fill="#BD37FC" transform="translate(249,312)"/>
<path d="M0 0 C1.65 0 3.3 0 5 0 C4.34 1.98 3.68 3.96 3 6 C1.35 5.67 -0.3 5.34 -2 5 C-1.34 3.35 -0.68 1.7 0 0 Z " fill="#B242FB" transform="translate(274,268)"/>
<path d="M0 0 C0.99 0.33 1.98 0.66 3 1 C2.1875 3.9375 2.1875 3.9375 1 7 C0.01 7.33 -0.98 7.66 -2 8 C-1.125 1.125 -1.125 1.125 0 0 Z " fill="#A556F5" transform="translate(341,153)"/>
<path d="M0 0 C3.39460785 1.37928277 4.72525168 2.64656429 6.3125 5.9375 C6.65925781 6.62714844 7.00601563 7.31679687 7.36328125 8.02734375 C8 10 8 10 7 13 C5.83072457 11.02237345 4.66464427 9.04285742 3.5 7.0625 C2.8503125 5.96035156 2.200625 4.85820312 1.53125 3.72265625 C0 1 0 1 0 0 Z " fill="#7799E6" transform="translate(57,141)"/>
<path d="M0 0 C0.93423645 3.01031744 1.04449911 3.86650268 0 7 C-0.66 7 -1.32 7 -2 7 C-2 9.31 -2 11.62 -2 14 C-2.33 14 -2.66 14 -3 14 C-3.08153933 12.41753293 -3.13943557 10.83383727 -3.1875 9.25 C-3.22230469 8.36828125 -3.25710938 7.4865625 -3.29296875 6.578125 C-2.94923684 3.55328417 -1.99772541 2.24416398 0 0 Z " fill="#E8C264" transform="translate(274,84)"/>
<path d="M0 0 C1.32 0 2.64 0 4 0 C5.27253436 3.64793184 6.32829194 7.1936543 7 11 C4.04250209 7.53258866 1.92151848 4.13126473 0 0 Z " fill="#63B5EB" transform="translate(26,87)"/>
<path d="M0 0 C0.33 0.99 0.66 1.98 1 3 C-0.32 3.33 -1.64 3.66 -3 4 C-3.33 5.98 -3.66 7.96 -4 10 C-4.12375 9.360625 -4.2475 8.72125 -4.375 8.0625 C-4.684375 7.0415625 -4.684375 7.0415625 -5 6 C-5.66 5.67 -6.32 5.34 -7 5 C-4.69 3.35 -2.38 1.7 0 0 Z " fill="#B043F8" transform="translate(272,280)"/>
<path d="M0 0 C2.31 0 4.62 0 7 0 C7 0.66 7 1.32 7 2 C6.34 2 5.68 2 5 2 C4.67 2.99 4.34 3.98 4 5 C3.34 5 2.68 5 2 5 C1.34 3.35 0.68 1.7 0 0 Z " fill="#AB49FB" transform="translate(296,225)"/>
<path d="M0 0 C0.99 0 1.98 0 3 0 C2.39301257 4.12751449 0.96189209 7.3321148 -1 11 C-2.31625194 8.36749612 -1.74813658 7.19820944 -1.0625 4.375 C-0.86785156 3.55773437 -0.67320312 2.74046875 -0.47265625 1.8984375 C-0.23869141 0.95871094 -0.23869141 0.95871094 0 0 Z " fill="#EBA84F" transform="translate(266,205)"/>
<path d="M0 0 C0.66 0 1.32 0 2 0 C1.67 3.3 1.34 6.6 1 10 C0.01 10.33 -0.98 10.66 -2 11 C-1 3.57142857 -1 3.57142857 0 0 Z " fill="#9763F5" transform="translate(362,113)"/>
<path d="M0 0 C3.80383334 1.26794445 4.24082925 2.48165849 6 6 C6.6875 8.8125 6.6875 8.8125 7 11 C4.59424393 8.81482901 3.20464419 6.74080329 1.8125 3.8125 C1.46832031 3.09707031 1.12414062 2.38164062 0.76953125 1.64453125 C0.51558594 1.10183594 0.26164063 0.55914062 0 0 Z " fill="#9561E0" transform="translate(142,290)"/>
<path d="M0 0 C0.66 0.33 1.32 0.66 2 1 C-0.97 5.95 -0.97 5.95 -4 11 C-5 9 -5 9 -4.51171875 7.08984375 C-4.10373047 6.02443359 -4.10373047 6.02443359 -3.6875 4.9375 C-3.42324219 4.22464844 -3.15898437 3.51179688 -2.88671875 2.77734375 C-2 1 -2 1 0 0 Z " fill="#A34DD6" transform="translate(271,283)"/>
<path d="M0 0 C1.98 0.66 3.96 1.32 6 2 C6.33 3.65 6.66 5.3 7 7 C5.1875 6.875 5.1875 6.875 3 6 C1.25 2.9375 1.25 2.9375 0 0 Z " fill="#64AFEF" transform="translate(33,99)"/>
<path d="M0 0 C0.99 0 1.98 0 3 0 C1.55049545 3.7910119 -0.15172566 7.3874638 -2 11 C-3.13643966 7.59068103 -2.86747764 6.99664544 -1.5625 3.8125 C-1.13130859 2.73935547 -1.13130859 2.73935547 -0.69140625 1.64453125 C-0.46324219 1.10183594 -0.23507812 0.55914062 0 0 Z " fill="#A64DD8" transform="translate(260,300)"/>
<path d="M0 0 C0.33 0.66 0.66 1.32 1 2 C0.22265625 3.9453125 0.22265625 3.9453125 -0.9375 6.125 C-1.31777344 6.84945312 -1.69804687 7.57390625 -2.08984375 8.3203125 C-2.39019531 8.87460938 -2.69054687 9.42890625 -3 10 C-4.46604374 7.06791253 -3.77925574 5.11702298 -3 2 C-2.01 1.34 -1.02 0.68 0 0 Z " fill="#E7A761" transform="translate(282,178)"/>
<path d="M0 0 C0.66 0 1.32 0 2 0 C2 0.66 2 1.32 2 2 C2.66 2 3.32 2 4 2 C3.34 3.32 2.68 4.64 2 6 C0.68 5.67 -0.64 5.34 -2 5 C-1 2 -1 2 0 0 Z " fill="#9963FC" transform="translate(370,97)"/>
<path d="M0 0 C2.9375 0.375 2.9375 0.375 6 1 C6.33 1.66 6.66 2.32 7 3 C7.99 3.66 8.98 4.32 10 5 C3.47692308 4.50769231 3.47692308 4.50769231 1.0625 1.9375 C0.711875 1.298125 0.36125 0.65875 0 0 Z " fill="#A840DD" transform="translate(198,387)"/>
<path d="M0 0 C0.33 0 0.66 0 1 0 C0.67 3.96 0.34 7.92 0 12 C-0.33 12 -0.66 12 -1 12 C-1.33 8.7 -1.66 5.4 -2 2 C-1.34 2 -0.68 2 0 2 C0 1.34 0 0.68 0 0 Z " fill="#AF4DDD" transform="translate(204,292)"/>
<path d="M0 0 C0.33 0.66 0.66 1.32 1 2 C-2.75 7.875 -2.75 7.875 -5 9 C-3.90931332 5.22454612 -3.0916909 2.52956528 0 0 Z " fill="#AD5BCC" transform="translate(263,221)"/>
<path d="M0 0 C2.475 0.99 2.475 0.99 5 2 C4.67 2.66 4.34 3.32 4 4 C3.34 4 2.68 4 2 4 C1.67 5.32 1.34 6.64 1 8 C0.67 5.36 0.34 2.72 0 0 Z " fill="#7D85F9" transform="translate(90,193)"/>
<path d="M0 0 C0 3.19610552 -0.54671542 4.41717626 -2 7.1875 C-2.37125 7.90292969 -2.7425 8.61835938 -3.125 9.35546875 C-3.41375 9.89816406 -3.7025 10.44085938 -4 11 C-5 8 -5 8 -4.25 5.5 C-3.06488343 3.12976686 -1.98707119 1.71610694 0 0 Z " fill="#A15FDF" transform="translate(282,184)"/>
<path d="M0 0 C1.32 0 2.64 0 4 0 C3.40138258 2.35171131 2.73075648 4.6859378 2 7 C1.01 7.495 1.01 7.495 0 8 C0 5.36 0 2.72 0 0 Z " fill="#EC8F4D" transform="translate(212,312)"/>
<path d="M0 0 C0.66 0 1.32 0 2 0 C2.1875 2.375 2.1875 2.375 2 5 C1.01 5.66 0.02 6.32 -1 7 C-1.66 6.34 -2.32 5.68 -3 5 C-2.34 4.34 -1.68 3.68 -1 3 C-0.67 2.01 -0.34 1.02 0 0 Z " fill="#A251EA" transform="translate(313,204)"/>
<path d="M0 0 C0.66 0.33 1.32 0.66 2 1 C0.68 3.31 -0.64 5.62 -2 8 C-2.66 7.34 -3.32 6.68 -4 6 C-3.67 5.01 -3.34 4.02 -3 3 C-2.34 3 -1.68 3 -1 3 C-0.67 2.01 -0.34 1.02 0 0 Z " fill="#9360E0" transform="translate(359,125)"/>
<path d="M0 0 C0.99 0 1.98 0 3 0 C3.625 1.875 3.625 1.875 4 4 C3.34 4.66 2.68 5.32 2 6 C1.34 5.67 0.68 5.34 0 5 C0 3.35 0 1.7 0 0 Z " fill="#4DC6F7" transform="translate(11,56)"/>
</svg>
