<?xml version="1.0" encoding="UTF-8"?>
<svg version="1.1" xmlns="http://www.w3.org/2000/svg" width="364" height="138">
<path d="M0 0 C120.12 0 240.24 0 364 0 C364 45.54 364 91.08 364 138 C243.88 138 123.76 138 0 138 C0 92.46 0 46.92 0 0 Z " fill="#F1F1F1" transform="translate(0,0)"/>
<path d="M0 0 C1.37463917 0.88891217 2.69854501 1.85590906 4.00390625 2.84375 C4.33390625 0.20375 4.66390625 -2.43625 5.00390625 -5.15625 C10.28390625 -5.15625 15.56390625 -5.15625 21.00390625 -5.15625 C21.1036239 1.44160681 21.17577297 8.03901403 21.22363281 14.63745117 C21.24360818 16.87678684 21.27079807 19.11607129 21.30566406 21.35522461 C21.55094477 37.52571565 21.68230599 51.68320408 11.00390625 64.84375 C10.50246094 65.46894531 10.00101562 66.09414062 9.484375 66.73828125 C2.09190947 74.99410042 -8.52818748 78.93138299 -19.31640625 80.09375 C-31.52233982 80.721708 -42.02462567 75.71445996 -51.1484375 68.03125 C-59.0004789 60.77871269 -63.37343959 51.52253517 -64.3671875 40.86328125 C-64.73112081 28.36872889 -62.15233072 18.6498501 -53.9296875 8.87109375 C-39.61656076 -6.13600277 -18.33476077 -10.62052678 0 0 Z " fill="#191919" transform="translate(133.99609375,37.15625)"/>
<path d="M0 0 C13.16634724 6.92852043 20.67569677 16.13255907 25.3828125 30.25390625 C26.38661206 44.30710013 24.62689018 56.40606638 15.64453125 67.8125 C8.03763528 76.02374349 -2.76984289 81.35292458 -13.95703125 82.4921875 C-25.42812494 82.81993303 -35.6974046 79.49137253 -44.6171875 72.25390625 C-45.24238281 71.75246094 -45.86757813 71.25101562 -46.51171875 70.734375 C-53.82178323 64.18876171 -59.08263326 53.50194286 -59.91796875 43.73828125 C-59.96101852 30.01975587 -57.14132305 19.71855874 -47.8046875 9.21484375 C-35.25428931 -2.65574121 -16.05752719 -7.04665184 0 0 Z " fill="#1A1A1A" transform="translate(327.6171875,34.74609375)"/>
<path d="M0 0 C5.28 0 10.56 0 16 0 C16 2.64 16 5.28 16 8 C17.46373047 7.25943359 17.46373047 7.25943359 18.95703125 6.50390625 C20.24213405 5.85666469 21.52729325 5.20953512 22.8125 4.5625 C23.45509766 4.23701172 24.09769531 3.91152344 24.75976562 3.57617188 C34.56576026 -1.35222958 45.34066623 -1.37206441 55.875 1.5625 C69.29811641 6.28637244 76.72031331 14.7982259 82.80078125 27.23046875 C84.57672821 31.33192279 85.12458011 34.66963635 85.11352539 39.13574219 C85.11341209 40.66687653 85.11341209 40.66687653 85.11329651 42.22894287 C85.10813522 43.32386047 85.10297394 44.41877808 85.09765625 45.546875 C85.0962413 46.6732135 85.09482635 47.799552 85.09336853 48.96002197 C85.08777199 52.55670835 85.0752201 56.15333244 85.0625 59.75 C85.05748455 62.18880118 85.05292172 64.62760334 85.04882812 67.06640625 C85.03780369 73.04429483 85.0205414 79.02213685 85 85 C79.72 85 74.44 85 69 85 C68.9906543 83.59306885 68.98130859 82.1861377 68.97167969 80.73657227 C68.93162412 75.48625741 68.8658217 70.23651893 68.79248047 64.98657227 C68.764361 62.72004637 68.74310186 60.45342406 68.72900391 58.18676758 C68.70744961 54.91698158 68.66073389 51.64834391 68.609375 48.37890625 C68.60814636 47.37541641 68.60691772 46.37192657 68.60565186 45.33802795 C68.43929873 37.2364695 66.28347623 31.49237541 61.875 24.75 C56.16240628 19.28577992 50.43637225 16.71192146 42.5 16.375 C34.42589108 16.72687518 28.06669285 19.39863374 22.5625 25.375 C16.97218651 32.15012619 16.54036241 38.96096786 16.48828125 47.40234375 C16.47033005 48.48004532 16.45237885 49.55774689 16.43388367 50.66810608 C16.37994554 54.09119826 16.34593724 57.5141523 16.3125 60.9375 C16.27931244 63.26629519 16.24482146 65.5950722 16.20898438 67.92382812 C16.12422821 73.6157855 16.05733796 79.30770307 16 85 C10.72 85 5.44 85 0 85 C0 56.95 0 28.9 0 0 Z " fill="#191919" transform="translate(179,32)"/>
<path d="M0 0 C6.72604977 -0.0742768 13.4518596 -0.12866276 20.17822266 -0.16479492 C22.46537435 -0.17986116 24.75249725 -0.20031797 27.03955078 -0.22631836 C30.33112707 -0.26279606 33.62232062 -0.27974834 36.9140625 -0.29296875 C37.93303619 -0.30845261 38.95200989 -0.32393646 40.00186157 -0.33988953 C46.17182649 -0.34134503 50.83835971 0.12229343 55.609375 4.46484375 C60.25619281 10.46433113 61.84303246 14.43905264 61 22 C56.70335108 33.75924968 41.17632943 44.18035721 31.64453125 51.828125 C28.01179231 54.81158564 24.55176278 57.96940017 21.09375 61.15234375 C19 63 19 63 16 65 C16.33 65.99 16.66 66.98 17 68 C30.86 68.33 44.72 68.66 59 69 C59 74.28 59 79.56 59 85 C52.45303172 85.12405345 45.90675498 85.21455514 39.35888672 85.2746582 C37.13383051 85.29972607 34.90885602 85.33378944 32.68408203 85.37719727 C29.47668235 85.43818809 26.27037593 85.46628784 23.0625 85.48828125 C21.58233398 85.52699089 21.58233398 85.52699089 20.07226562 85.56648254 C13.43553043 85.56914787 9.14235296 84.2633751 4 80 C-0.06836399 75.71751159 -1.72288882 72.07833387 -2.5 66.25 C-2.24626465 60.06808418 1.1191509 55.73990736 5.49707031 51.57617188 C9.0103422 48.41896093 12.64771566 45.41669572 16.29736328 42.41943359 C18.65743193 40.4519201 20.92291567 38.38867091 23.1875 36.3125 C27.54331424 32.35332447 32.06299826 28.62999565 36.65234375 24.9453125 C38.96072797 23.10675749 38.96072797 23.10675749 40.69140625 21.2421875 C42 20 42 20 44 20 C43.505 18.515 43.505 18.515 43 17 C28.81 16.67 14.62 16.34 0 16 C0 10.72 0 5.44 0 0 Z " fill="#1A1A1A" transform="translate(12,32)"/>
<path d="M0 0 C6.67588125 3.85355747 11.86295769 9.43646459 14.1875 16.875 C15.82929085 24.8494127 14.73116127 31.94936455 10.625 39 C6.7317837 43.9741961 2.04995866 48.8470893 -4.375 50 C-14.76516077 50.9181462 -22.03560378 50.47019218 -30.0625 43.75 C-36.09746358 36.57328655 -38.82510297 30.65602567 -38.7109375 21.203125 C-37.96772148 14.11664662 -34.65458903 8.85606723 -29.5 4.0625 C-20.81037181 -2.77312588 -10.310208 -4.65926957 0 0 Z " fill="#F0F0F0" transform="translate(124.375,50)"/>
<path d="M0 0 C7.03596526 4.04997025 12.39584519 10.13239477 14.625 18 C15.93748097 27.20075945 13.93758569 34.39129677 8.625 42 C3.71098485 47.03101551 -1.70857077 49.63420776 -8.7421875 50.3359375 C-18.35747 50.44301192 -23.95728105 49.25804235 -31.125 42.875 C-36.11152901 37.5233247 -38.52452054 31.21842805 -38.875 23.9375 C-38.52434522 16.48024174 -35.24898753 9.99330586 -30.18359375 4.57421875 C-21.58267189 -2.9121128 -10.48444607 -4.68453973 0 0 Z " fill="#F0F0F0" transform="translate(322.375,50)"/>
<path d="M0 0 C5.28 0 10.56 0 16 0 C16.12486951 7.11256728 16.21493382 14.22447746 16.2746582 21.33789062 C16.29959123 23.75076431 16.33355028 26.16356415 16.37719727 28.57617188 C16.76386399 50.52064599 14.52375723 69.24424726 -1.0234375 86.17578125 C-4.69324336 89.56273646 -8.80941352 92.30183567 -13 95 C-15.68234235 92.57542028 -17.36856725 89.92489603 -19.1875 86.8125 C-19.71730469 85.91144531 -20.24710938 85.01039062 -20.79296875 84.08203125 C-21.19128906 83.39496094 -21.58960938 82.70789063 -22 82 C-17.48746518 77.2367688 -17.48746518 77.2367688 -14.8125 75.9375 C-12.42603118 74.70311958 -12.16826062 73.3921527 -11 71 C-10.04981914 69.70232443 -9.09081344 68.41108318 -8.125 67.125 C0.58856908 53.8031322 -0.34698252 38.41891745 -0.25 23.125 C-0.22178966 20.87627961 -0.19185533 18.62758016 -0.16015625 16.37890625 C-0.08689789 10.91930896 -0.03695619 5.45995875 0 0 Z " fill="#181818" transform="translate(159,32)"/>
<path d="M0 0 C3.32274404 2.45594125 4.77618008 3.9256644 5.625 8 C4.77618008 12.0743356 3.32274404 13.54405875 0 16 C-3 16.625 -3 16.625 -6 16 C-9.66900829 13.36788535 -10.84009531 11.91145674 -11.625 7.4375 C-11 4 -11 4 -8.875 1.5625 C-5.46537255 -0.29055839 -3.81804737 -0.71588388 0 0 Z " fill="#181818" transform="translate(170,11)"/>
<path d="M0 0 C1.32 0.66 2.64 1.32 4 2 C3.07334032 9.50913876 0.95674067 16.13017552 -4 22 C-5.9453125 22.65234375 -5.9453125 22.65234375 -8 23 C-9.3479743 23.63654342 -10.68596724 24.29605388 -12 25 C-11.43732422 24.34257813 -11.43732422 24.34257813 -10.86328125 23.671875 C-5.27538259 16.74682175 -1.49733688 8.80691695 0 0 Z " fill="#DEDEDE" transform="translate(154,80)"/>
<path d="M0 0 C3.0625 0.1875 3.0625 0.1875 5.0625 2.1875 C5.375 5.1875 5.375 5.1875 5.0625 8.1875 C2.0625 10.1875 2.0625 10.1875 -0.5 10 C-2.9375 9.1875 -2.9375 9.1875 -4.9375 6.1875 C-4.23305896 0.27019525 -4.23305896 0.27019525 0 0 Z " fill="#8B8B8B" transform="translate(347.9375,31.8125)"/>
<path d="M0 0 C0.33 0.99 0.66 1.98 1 3 C-1.3125 5.5 -1.3125 5.5 -4 8 C-4.99 8 -5.98 8 -7 8 C-6.8125 6.1875 -6.8125 6.1875 -6 4 C-3.5 2.3125 -3.5 2.3125 -1 1 C-0.67 0.67 -0.34 0.34 0 0 Z " fill="#EBEBEB" transform="translate(147,101)"/>
<path d="M0 0 C0 3 0 3 -1.53125 4.82421875 C-2.1809375 5.43910156 -2.830625 6.05398437 -3.5 6.6875 C-4.1496875 7.31011719 -4.799375 7.93273438 -5.46875 8.57421875 C-5.9740625 9.04472656 -6.479375 9.51523437 -7 10 C-7.33 9.01 -7.66 8.02 -8 7 C-5.36 4.69 -2.72 2.38 0 0 Z " fill="#212121" transform="translate(285,40)"/>
<path d="M0 0 C0 3 0 3 -1.53125 4.82421875 C-2.1809375 5.43910156 -2.830625 6.05398437 -3.5 6.6875 C-4.1496875 7.31011719 -4.799375 7.93273438 -5.46875 8.57421875 C-5.9740625 9.04472656 -6.479375 9.51523437 -7 10 C-7.33 9.34 -7.66 8.68 -8 8 C-7.04578192 6.85073734 -6.08647955 5.70569459 -5.125 4.5625 C-4.59132813 3.92441406 -4.05765625 3.28632812 -3.5078125 2.62890625 C-2 1 -2 1 0 0 Z " fill="#EAEAEA" transform="translate(98,52)"/>
<path d="M0 0 C1.32 0 2.64 0 4 0 C4 1.65 4 3.3 4 5 C2.68 5 1.36 5 0 5 C0 3.35 0 1.7 0 0 Z " fill="#5E5E5E" transform="translate(346,34)"/>
<path d="M0 0 C1.98 0.495 1.98 0.495 4 1 C3.67 2.65 3.34 4.3 3 6 C1.68 5.67 0.36 5.34 -1 5 C-0.67 3.35 -0.34 1.7 0 0 Z " fill="#D4D4D4" transform="translate(152,88)"/>
</svg>
